# MagicaVoxel @ Ephtracy

# material
mtllib 004.mtl
usemtl palette

# normals
vn -1 0 0
vn 1 0 0
vn 0 0 1
vn 0 0 -1
vn 0 -1 0
vn 0 1 0

# texcoords
vt 0.677734 0.5
vt 0.966797 0.5
vt 0.986328 0.5

# verts
v -16 0 16
v -16 0 -16
v -16 8 16
v -16 8 -16
v 12 8 16
v 12 8 -16
v 12 9 16
v 12 9 -5
v 12 9 -6
v 12 9 -16
v 12 18 16
v 12 18 -5
v 12 18 -6
v 12 18 -16
v 12 19 16
v 12 19 5
v 12 19 4
v 12 19 -16
v 12 31 16
v 12 31 5
v 12 31 4
v 12 31 -16
v 12 32 16
v 12 32 -16
v 16 0 16
v 16 0 -16
v 16 8 16
v 16 8 -16
v 16 9 16
v 16 9 -5
v 16 9 -6
v 16 9 -16
v 16 18 16
v 16 18 -5
v 16 18 -6
v 16 18 -16
v 16 19 16
v 16 19 5
v 16 19 4
v 16 19 -16
v 16 32 16
v 16 32 5
v 16 32 4
v 16 32 -16
v -16 0 16
v -16 8 16
v 12 8 16
v 12 9 16
v 12 18 16
v 12 19 16
v 12 31 16
v 12 32 16
v 13 31 16
v 13 32 16
v 16 0 16
v 16 8 16
v 16 9 16
v 16 18 16
v 16 19 16
v 16 32 16
v -16 0 -16
v -16 8 -16
v 12 8 -16
v 12 9 -16
v 12 18 -16
v 12 19 -16
v 12 31 -16
v 12 32 -16
v 13 31 -16
v 13 32 -16
v 16 0 -16
v 16 8 -16
v 16 9 -16
v 16 18 -16
v 16 19 -16
v 16 32 -16
v -16 0 16
v 16 0 16
v -16 0 -16
v 16 0 -16
v -16 8 16
v 12 8 16
v -16 8 -16
v 12 8 -16
v 12 32 16
v 13 32 16
v 16 32 16
v 13 32 5
v 16 32 5
v 13 32 4
v 16 32 4
v 12 32 -16
v 13 32 -16
v 16 32 -16

# faces
f 3/1/1 2/1/1 1/1/1
f 4/1/1 2/1/1 3/1/1
f 7/3/1 6/3/1 5/3/1
f 8/3/1 6/3/1 7/3/1
f 9/3/1 6/3/1 8/3/1
f 10/3/1 6/3/1 9/3/1
f 11/2/1 8/2/1 7/2/1
f 12/3/1 9/3/1 8/3/1
f 12/2/1 8/2/1 11/2/1
f 13/2/1 10/2/1 9/2/1
f 13/3/1 9/3/1 12/3/1
f 14/2/1 10/2/1 13/2/1
f 15/3/1 12/3/1 11/3/1
f 15/3/1 13/3/1 12/3/1
f 15/3/1 14/3/1 13/3/1
f 16/3/1 14/3/1 15/3/1
f 17/3/1 14/3/1 16/3/1
f 18/3/1 14/3/1 17/3/1
f 19/2/1 16/2/1 15/2/1
f 20/3/1 17/3/1 16/3/1
f 20/2/1 16/2/1 19/2/1
f 21/2/1 18/2/1 17/2/1
f 21/3/1 17/3/1 20/3/1
f 22/2/1 18/2/1 21/2/1
f 23/3/1 20/3/1 19/3/1
f 23/3/1 21/3/1 20/3/1
f 23/3/1 22/3/1 21/3/1
f 24/3/1 22/3/1 23/3/1
f 25/1/2 26/1/2 27/1/2
f 27/1/2 26/1/2 28/1/2
f 27/3/2 28/3/2 29/3/2
f 29/3/2 28/3/2 30/3/2
f 30/3/2 28/3/2 31/3/2
f 31/3/2 28/3/2 32/3/2
f 29/2/2 30/2/2 33/2/2
f 30/3/2 31/3/2 34/3/2
f 33/2/2 30/2/2 34/2/2
f 31/2/2 32/2/2 35/2/2
f 34/3/2 31/3/2 35/3/2
f 35/2/2 32/2/2 36/2/2
f 33/3/2 34/3/2 37/3/2
f 34/3/2 35/3/2 37/3/2
f 35/3/2 36/3/2 37/3/2
f 37/3/2 36/3/2 38/3/2
f 38/3/2 36/3/2 39/3/2
f 39/3/2 36/3/2 40/3/2
f 37/2/2 38/2/2 41/2/2
f 38/3/2 39/3/2 42/3/2
f 41/2/2 38/2/2 42/2/2
f 39/2/2 40/2/2 43/2/2
f 42/3/2 39/3/2 43/3/2
f 43/2/2 40/2/2 44/2/2
f 47/1/3 46/1/3 45/1/3
f 53/2/3 51/2/3 50/2/3
f 53/3/3 52/3/3 51/3/3
f 54/3/3 52/3/3 53/3/3
f 55/1/3 47/1/3 45/1/3
f 56/3/3 48/3/3 47/3/3
f 56/1/3 47/1/3 55/1/3
f 57/2/3 49/2/3 48/2/3
f 57/3/3 48/3/3 56/3/3
f 58/3/3 50/3/3 49/3/3
f 58/2/3 49/2/3 57/2/3
f 59/2/3 53/2/3 50/2/3
f 59/3/3 50/3/3 58/3/3
f 59/2/3 54/2/3 53/2/3
f 60/2/3 54/2/3 59/2/3
f 61/1/4 62/1/4 63/1/4
f 66/2/4 67/2/4 69/2/4
f 67/3/4 68/3/4 69/3/4
f 69/3/4 68/3/4 70/3/4
f 61/1/4 63/1/4 71/1/4
f 63/3/4 64/3/4 72/3/4
f 71/1/4 63/1/4 72/1/4
f 64/2/4 65/2/4 73/2/4
f 72/3/4 64/3/4 73/3/4
f 65/3/4 66/3/4 74/3/4
f 73/2/4 65/2/4 74/2/4
f 66/2/4 69/2/4 75/2/4
f 74/3/4 66/3/4 75/3/4
f 69/2/4 70/2/4 75/2/4
f 75/2/4 70/2/4 76/2/4
f 79/1/5 78/1/5 77/1/5
f 80/1/5 78/1/5 79/1/5
f 81/1/6 82/1/6 83/1/6
f 83/1/6 82/1/6 84/1/6
f 85/3/6 86/3/6 88/3/6
f 86/2/6 87/2/6 88/2/6
f 88/2/6 87/2/6 89/2/6
f 85/3/6 88/3/6 90/3/6
f 88/3/6 89/3/6 90/3/6
f 90/3/6 89/3/6 91/3/6
f 85/3/6 90/3/6 92/3/6
f 90/2/6 91/2/6 93/2/6
f 92/3/6 90/3/6 93/3/6
f 93/2/6 91/2/6 94/2/6
