# MagicaVoxel @ Ephtracy

# material
mtllib 012.mtl
usemtl palette

# normals
vn -1 0 0
vn 1 0 0
vn 0 0 1
vn 0 0 -1
vn 0 -1 0
vn 0 1 0

# texcoords
vt 0.677734 0.5
vt 0.966797 0.5

# verts
v -16 0 16
v -16 0 -16
v -16 8 16
v -16 8 -16
v 12 8 -14
v 12 8 -16
v 12 9 -14
v 12 9 -16
v 13 8 -13
v 13 8 -14
v 13 9 -13
v 13 9 -14
v 14 8 -12
v 14 8 -13
v 14 9 -12
v 14 9 -13
v 16 0 16
v 16 0 -16
v 16 8 16
v 16 8 -12
v 16 8 -16
v 16 9 -12
v 16 9 -16
v -16 0 16
v -16 8 16
v 16 0 16
v 16 8 16
v 14 8 -12
v 14 9 -12
v 16 8 -12
v 16 9 -12
v 13 8 -13
v 13 9 -13
v 14 8 -13
v 14 9 -13
v 12 8 -14
v 12 9 -14
v 13 8 -14
v 13 9 -14
v -16 0 -16
v -16 8 -16
v 12 8 -16
v 12 9 -16
v 16 0 -16
v 16 8 -16
v 16 9 -16
v -16 0 16
v 16 0 16
v -16 0 -16
v 16 0 -16
v -16 8 16
v 16 8 16
v 14 8 -12
v 16 8 -12
v 13 8 -13
v 14 8 -13
v 12 8 -14
v 13 8 -14
v -16 8 -16
v 12 8 -16
v 14 9 -12
v 16 9 -12
v 13 9 -13
v 14 9 -13
v 12 9 -14
v 13 9 -14
v 12 9 -16
v 16 9 -16

# faces
f 3/1/1 2/1/1 1/1/1
f 4/1/1 2/1/1 3/1/1
f 7/2/1 6/2/1 5/2/1
f 8/2/1 6/2/1 7/2/1
f 11/2/1 10/2/1 9/2/1
f 12/2/1 10/2/1 11/2/1
f 15/2/1 14/2/1 13/2/1
f 16/2/1 14/2/1 15/2/1
f 17/1/2 18/1/2 19/1/2
f 19/1/2 18/1/2 20/1/2
f 20/1/2 18/1/2 21/1/2
f 20/2/2 21/2/2 22/2/2
f 22/2/2 21/2/2 23/2/2
f 26/1/3 25/1/3 24/1/3
f 27/1/3 25/1/3 26/1/3
f 30/2/3 29/2/3 28/2/3
f 31/2/3 29/2/3 30/2/3
f 34/2/3 33/2/3 32/2/3
f 35/2/3 33/2/3 34/2/3
f 38/2/3 37/2/3 36/2/3
f 39/2/3 37/2/3 38/2/3
f 40/1/4 41/1/4 42/1/4
f 40/1/4 42/1/4 44/1/4
f 42/2/4 43/2/4 45/2/4
f 44/1/4 42/1/4 45/1/4
f 45/2/4 43/2/4 46/2/4
f 49/1/5 48/1/5 47/1/5
f 50/1/5 48/1/5 49/1/5
f 51/1/6 52/1/6 53/1/6
f 53/1/6 52/1/6 54/1/6
f 51/1/6 53/1/6 55/1/6
f 55/1/6 53/1/6 56/1/6
f 51/1/6 55/1/6 57/1/6
f 57/1/6 55/1/6 58/1/6
f 51/1/6 57/1/6 59/1/6
f 59/1/6 57/1/6 60/1/6
f 61/2/6 62/2/6 64/2/6
f 63/2/6 64/2/6 66/2/6
f 65/2/6 66/2/6 67/2/6
f 64/2/6 62/2/6 68/2/6
f 67/2/6 66/2/6 68/2/6
f 66/2/6 64/2/6 68/2/6
