# MagicaVoxel @ Ephtracy

# group
g 002_001_01

# material
mtllib 002_001_01.mtl
usemtl palette

# normals
vn -1 0 0
vn 1 0 0
vn 0 0 1
vn 0 0 -1
vn 0 -1 0
vn 0 1 0

# texcoords
vt 0.908203 0.5
vt 0.970703 0.5
vt 0.974609 0.5

# verts
v -16 0 16
v -16 0 -16
v -16 1 -1
v -16 1 -2
v -16 2 13
v -16 2 11
v -16 2 7
v -16 2 6
v -16 2 -0
v -16 2 -1
v -16 2 -9
v -16 2 -10
v -16 3 14
v -16 3 13
v -16 3 8
v -16 3 7
v -16 3 -0
v -16 3 -1
v -16 3 -5
v -16 3 -6
v -16 3 -8
v -16 3 -9
v -16 3 -10
v -16 3 -11
v -16 4 16
v -16 4 14
v -16 4 11
v -16 4 8
v -16 4 6
v -16 4 -1
v -16 4 -2
v -16 4 -5
v -16 4 -6
v -16 4 -8
v -16 4 -11
v -16 4 -16
v -16 6 16
v -16 6 -16
v -13 6 -6
v -13 6 -7
v -13 7 -6
v -13 7 -7
v -12 6 9
v -12 6 8
v -12 7 9
v -12 7 8
v -10 6 1
v -10 6 -0
v -10 7 1
v -10 7 -0
v -7 6 3
v -7 6 2
v -7 6 -11
v -7 6 -12
v -7 7 3
v -7 7 2
v -7 7 -11
v -7 7 -12
v -4 6 9
v -4 6 8
v -4 7 9
v -4 7 8
v -1 6 16
v -1 6 15
v -1 6 -6
v -1 6 -7
v -1 7 16
v -1 7 15
v -1 7 -6
v -1 7 -7
v 5 6 -8
v 5 6 -9
v 5 7 -8
v 5 7 -9
v 8 6 8
v 8 6 7
v 8 7 8
v 8 7 7
v 9 6 -15
v 9 6 -16
v 9 7 -15
v 9 7 -16
v 11 6 -4
v 11 6 -5
v 11 7 -4
v 11 7 -5
v 12 6 5
v 12 6 4
v 12 6 3
v 12 6 2
v 12 7 5
v 12 7 4
v 12 7 3
v 12 7 2
v -12 6 -6
v -12 6 -7
v -12 7 -6
v -12 7 -7
v -11 6 9
v -11 6 8
v -11 7 9
v -11 7 8
v -9 6 1
v -9 6 -0
v -9 7 1
v -9 7 -0
v -6 6 3
v -6 6 2
v -6 6 -11
v -6 6 -12
v -6 7 3
v -6 7 2
v -6 7 -11
v -6 7 -12
v -3 6 9
v -3 6 8
v -3 7 9
v -3 7 8
v 0 6 16
v 0 6 15
v 0 6 -6
v 0 6 -7
v 0 7 16
v 0 7 15
v 0 7 -6
v 0 7 -7
v 6 6 -8
v 6 6 -9
v 6 7 -8
v 6 7 -9
v 9 6 8
v 9 6 7
v 9 7 8
v 9 7 7
v 10 6 -15
v 10 6 -16
v 10 7 -15
v 10 7 -16
v 12 6 -4
v 12 6 -5
v 12 7 -4
v 12 7 -5
v 13 6 5
v 13 6 4
v 13 6 3
v 13 6 2
v 13 7 5
v 13 7 4
v 13 7 3
v 13 7 2
v 16 0 16
v 16 0 -16
v 16 2 11
v 16 2 10
v 16 2 -6
v 16 2 -7
v 16 3 16
v 16 3 15
v 16 3 13
v 16 3 12
v 16 3 10
v 16 3 9
v 16 3 -0
v 16 3 -1
v 16 3 -5
v 16 3 -6
v 16 3 -12
v 16 3 -13
v 16 4 15
v 16 4 13
v 16 4 12
v 16 4 11
v 16 4 9
v 16 4 -0
v 16 4 -1
v 16 4 -5
v 16 4 -7
v 16 4 -12
v 16 4 -13
v 16 4 -16
v 16 6 16
v 16 6 -16
v -16 0 16
v -16 4 16
v -16 6 16
v -14 3 16
v -14 4 16
v -13 3 16
v -13 4 16
v -11 3 16
v -11 4 16
v -10 3 16
v -10 4 16
v -3 3 16
v -3 4 16
v -2 3 16
v -2 4 16
v -1 6 16
v -1 7 16
v 0 6 16
v 0 7 16
v 1 2 16
v 1 4 16
v 2 2 16
v 2 3 16
v 3 3 16
v 3 4 16
v 4 3 16
v 4 4 16
v 5 3 16
v 5 4 16
v 11 2 16
v 11 4 16
v 12 2 16
v 12 4 16
v 15 3 16
v 15 4 16
v 16 0 16
v 16 3 16
v 16 6 16
v -12 6 9
v -12 7 9
v -11 6 9
v -11 7 9
v -4 6 9
v -4 7 9
v -3 6 9
v -3 7 9
v 8 6 8
v 8 7 8
v 9 6 8
v 9 7 8
v 12 6 5
v 12 7 5
v 13 6 5
v 13 7 5
v -7 6 3
v -7 7 3
v -6 6 3
v -6 7 3
v 12 6 3
v 12 7 3
v 13 6 3
v 13 7 3
v -10 6 1
v -10 7 1
v -9 6 1
v -9 7 1
v 11 6 -4
v 11 7 -4
v 12 6 -4
v 12 7 -4
v -13 6 -6
v -13 7 -6
v -12 6 -6
v -12 7 -6
v -1 6 -6
v -1 7 -6
v 0 6 -6
v 0 7 -6
v 5 6 -8
v 5 7 -8
v 6 6 -8
v 6 7 -8
v -7 6 -11
v -7 7 -11
v -6 6 -11
v -6 7 -11
v 9 6 -15
v 9 7 -15
v 10 6 -15
v 10 7 -15
v -1 6 15
v -1 7 15
v 0 6 15
v 0 7 15
v -12 6 8
v -12 7 8
v -11 6 8
v -11 7 8
v -4 6 8
v -4 7 8
v -3 6 8
v -3 7 8
v 8 6 7
v 8 7 7
v 9 6 7
v 9 7 7
v 12 6 4
v 12 7 4
v 13 6 4
v 13 7 4
v -7 6 2
v -7 7 2
v -6 6 2
v -6 7 2
v 12 6 2
v 12 7 2
v 13 6 2
v 13 7 2
v -10 6 -0
v -10 7 -0
v -9 6 -0
v -9 7 -0
v 11 6 -5
v 11 7 -5
v 12 6 -5
v 12 7 -5
v -13 6 -7
v -13 7 -7
v -12 6 -7
v -12 7 -7
v -1 6 -7
v -1 7 -7
v 0 6 -7
v 0 7 -7
v 5 6 -9
v 5 7 -9
v 6 6 -9
v 6 7 -9
v -7 6 -12
v -7 7 -12
v -6 6 -12
v -6 7 -12
v -16 0 -16
v -16 4 -16
v -16 6 -16
v -13 2 -16
v -13 4 -16
v -12 2 -16
v -12 3 -16
v -11 2 -16
v -11 3 -16
v -11 4 -16
v -10 1 -16
v -10 2 -16
v -10 3 -16
v -10 4 -16
v -9 1 -16
v -9 4 -16
v -5 2 -16
v -5 4 -16
v -4 2 -16
v -4 3 -16
v -3 3 -16
v -3 4 -16
v 6 2 -16
v 6 4 -16
v 7 1 -16
v 7 2 -16
v 7 3 -16
v 7 4 -16
v 8 1 -16
v 8 3 -16
v 9 6 -16
v 9 7 -16
v 10 3 -16
v 10 4 -16
v 10 6 -16
v 10 7 -16
v 12 2 -16
v 12 3 -16
v 13 2 -16
v 13 4 -16
v 16 0 -16
v 16 4 -16
v 16 6 -16
v -16 0 16
v 16 0 16
v -16 0 -16
v 16 0 -16
v -16 6 16
v -1 6 16
v 0 6 16
v 16 6 16
v -1 6 15
v 0 6 15
v -12 6 9
v -11 6 9
v -4 6 9
v -3 6 9
v -12 6 8
v -11 6 8
v -4 6 8
v -3 6 8
v 8 6 8
v 9 6 8
v 8 6 7
v 9 6 7
v 12 6 5
v 13 6 5
v 12 6 4
v 13 6 4
v -7 6 3
v -6 6 3
v 12 6 3
v 13 6 3
v -7 6 2
v -6 6 2
v 12 6 2
v 13 6 2
v -10 6 1
v -9 6 1
v -10 6 -0
v -9 6 -0
v 11 6 -4
v 12 6 -4
v 11 6 -5
v 12 6 -5
v -13 6 -6
v -12 6 -6
v -1 6 -6
v 0 6 -6
v -13 6 -7
v -12 6 -7
v -1 6 -7
v 0 6 -7
v 5 6 -8
v 6 6 -8
v 5 6 -9
v 6 6 -9
v -7 6 -11
v -6 6 -11
v -7 6 -12
v -6 6 -12
v 9 6 -15
v 10 6 -15
v -16 6 -16
v 9 6 -16
v 10 6 -16
v 16 6 -16
v -1 7 16
v 0 7 16
v -1 7 15
v 0 7 15
v -12 7 9
v -11 7 9
v -4 7 9
v -3 7 9
v -12 7 8
v -11 7 8
v -4 7 8
v -3 7 8
v 8 7 8
v 9 7 8
v 8 7 7
v 9 7 7
v 12 7 5
v 13 7 5
v 12 7 4
v 13 7 4
v -7 7 3
v -6 7 3
v 12 7 3
v 13 7 3
v -7 7 2
v -6 7 2
v 12 7 2
v 13 7 2
v -10 7 1
v -9 7 1
v -10 7 -0
v -9 7 -0
v 11 7 -4
v 12 7 -4
v 11 7 -5
v 12 7 -5
v -13 7 -6
v -12 7 -6
v -1 7 -6
v 0 7 -6
v -13 7 -7
v -12 7 -7
v -1 7 -7
v 0 7 -7
v 5 7 -8
v 6 7 -8
v 5 7 -9
v 6 7 -9
v -7 7 -11
v -6 7 -11
v -7 7 -12
v -6 7 -12
v 9 7 -15
v 10 7 -15
v 9 7 -16
v 10 7 -16

# faces
f 3/1/1 2/1/1 1/1/1
f 4/1/1 2/1/1 3/1/1
f 5/1/1 3/1/1 1/1/1
f 6/1/1 3/1/1 5/1/1
f 7/1/1 3/1/1 6/1/1
f 8/1/1 3/1/1 7/1/1
f 9/1/1 3/1/1 8/1/1
f 10/2/1 4/2/1 3/2/1
f 10/1/1 3/1/1 9/1/1
f 11/1/1 2/1/1 4/1/1
f 12/1/1 2/1/1 11/1/1
f 13/1/1 5/1/1 1/1/1
f 14/2/1 6/2/1 5/2/1
f 14/1/1 5/1/1 13/1/1
f 15/1/1 7/1/1 6/1/1
f 16/2/1 8/2/1 7/2/1
f 16/1/1 7/1/1 15/1/1
f 17/1/1 9/1/1 8/1/1
f 17/2/1 10/2/1 9/2/1
f 18/2/1 4/2/1 10/2/1
f 18/2/1 10/2/1 17/2/1
f 19/1/1 11/1/1 4/1/1
f 20/1/1 11/1/1 19/1/1
f 21/1/1 11/1/1 20/1/1
f 22/2/1 12/2/1 11/2/1
f 22/1/1 11/1/1 21/1/1
f 23/1/1 2/1/1 12/1/1
f 23/2/1 12/2/1 22/2/1
f 24/1/1 2/1/1 23/1/1
f 25/1/1 13/1/1 1/1/1
f 26/2/1 14/2/1 13/2/1
f 26/1/1 13/1/1 25/1/1
f 27/2/1 6/2/1 14/2/1
f 27/2/1 14/2/1 26/2/1
f 27/1/1 15/1/1 6/1/1
f 28/2/1 16/2/1 15/2/1
f 28/1/1 15/1/1 27/1/1
f 29/1/1 17/1/1 8/1/1
f 29/2/1 16/2/1 28/2/1
f 29/2/1 8/2/1 16/2/1
f 29/1/1 18/1/1 17/1/1
f 30/2/1 4/2/1 18/2/1
f 30/1/1 18/1/1 29/1/1
f 31/1/1 19/1/1 4/1/1
f 31/2/1 4/2/1 30/2/1
f 32/2/1 20/2/1 19/2/1
f 32/1/1 19/1/1 31/1/1
f 33/1/1 21/1/1 20/1/1
f 33/2/1 20/2/1 32/2/1
f 34/2/1 23/2/1 22/2/1
f 34/1/1 21/1/1 33/1/1
f 34/2/1 22/2/1 21/2/1
f 34/2/1 24/2/1 23/2/1
f 35/1/1 2/1/1 24/1/1
f 35/2/1 24/2/1 34/2/1
f 36/1/1 2/1/1 35/1/1
f 37/2/1 28/2/1 27/2/1
f 37/2/1 33/2/1 32/2/1
f 37/2/1 36/2/1 35/2/1
f 37/2/1 35/2/1 34/2/1
f 37/2/1 30/2/1 29/2/1
f 37/2/1 32/2/1 31/2/1
f 37/2/1 29/2/1 28/2/1
f 37/2/1 27/2/1 26/2/1
f 37/2/1 31/2/1 30/2/1
f 37/2/1 26/2/1 25/2/1
f 37/2/1 34/2/1 33/2/1
f 38/2/1 36/2/1 37/2/1
f 41/3/1 40/3/1 39/3/1
f 42/3/1 40/3/1 41/3/1
f 45/3/1 44/3/1 43/3/1
f 46/3/1 44/3/1 45/3/1
f 49/3/1 48/3/1 47/3/1
f 50/3/1 48/3/1 49/3/1
f 55/3/1 52/3/1 51/3/1
f 56/3/1 52/3/1 55/3/1
f 57/3/1 54/3/1 53/3/1
f 58/3/1 54/3/1 57/3/1
f 61/3/1 60/3/1 59/3/1
f 62/3/1 60/3/1 61/3/1
f 67/3/1 64/3/1 63/3/1
f 68/3/1 64/3/1 67/3/1
f 69/3/1 66/3/1 65/3/1
f 70/3/1 66/3/1 69/3/1
f 73/3/1 72/3/1 71/3/1
f 74/3/1 72/3/1 73/3/1
f 77/3/1 76/3/1 75/3/1
f 78/3/1 76/3/1 77/3/1
f 81/3/1 80/3/1 79/3/1
f 82/3/1 80/3/1 81/3/1
f 85/3/1 84/3/1 83/3/1
f 86/3/1 84/3/1 85/3/1
f 91/3/1 88/3/1 87/3/1
f 92/3/1 88/3/1 91/3/1
f 93/3/1 90/3/1 89/3/1
f 94/3/1 90/3/1 93/3/1
f 95/3/2 96/3/2 97/3/2
f 97/3/2 96/3/2 98/3/2
f 99/3/2 100/3/2 101/3/2
f 101/3/2 100/3/2 102/3/2
f 103/3/2 104/3/2 105/3/2
f 105/3/2 104/3/2 106/3/2
f 107/3/2 108/3/2 111/3/2
f 111/3/2 108/3/2 112/3/2
f 109/3/2 110/3/2 113/3/2
f 113/3/2 110/3/2 114/3/2
f 115/3/2 116/3/2 117/3/2
f 117/3/2 116/3/2 118/3/2
f 119/3/2 120/3/2 123/3/2
f 123/3/2 120/3/2 124/3/2
f 121/3/2 122/3/2 125/3/2
f 125/3/2 122/3/2 126/3/2
f 127/3/2 128/3/2 129/3/2
f 129/3/2 128/3/2 130/3/2
f 131/3/2 132/3/2 133/3/2
f 133/3/2 132/3/2 134/3/2
f 135/3/2 136/3/2 137/3/2
f 137/3/2 136/3/2 138/3/2
f 139/3/2 140/3/2 141/3/2
f 141/3/2 140/3/2 142/3/2
f 143/3/2 144/3/2 147/3/2
f 147/3/2 144/3/2 148/3/2
f 145/3/2 146/3/2 149/3/2
f 149/3/2 146/3/2 150/3/2
f 151/1/2 152/1/2 153/1/2
f 153/1/2 152/1/2 154/1/2
f 154/1/2 152/1/2 155/1/2
f 155/1/2 152/1/2 156/1/2
f 151/1/2 153/1/2 157/1/2
f 157/1/2 153/1/2 158/1/2
f 158/1/2 153/1/2 159/1/2
f 159/1/2 153/1/2 160/1/2
f 153/2/2 154/2/2 161/2/2
f 154/1/2 155/1/2 161/1/2
f 161/1/2 155/1/2 162/1/2
f 162/1/2 155/1/2 163/1/2
f 163/1/2 155/1/2 164/1/2
f 164/1/2 155/1/2 165/1/2
f 155/2/2 156/2/2 166/2/2
f 165/1/2 155/1/2 166/1/2
f 156/1/2 152/1/2 167/1/2
f 167/1/2 152/1/2 168/1/2
f 157/2/2 158/2/2 169/2/2
f 158/1/2 159/1/2 169/1/2
f 159/2/2 160/2/2 170/2/2
f 169/1/2 159/1/2 170/1/2
f 160/1/2 153/1/2 171/1/2
f 170/2/2 160/2/2 171/2/2
f 153/2/2 161/2/2 172/2/2
f 171/1/2 153/1/2 172/1/2
f 161/2/2 162/2/2 172/2/2
f 162/1/2 163/1/2 173/1/2
f 172/2/2 162/2/2 173/2/2
f 163/2/2 164/2/2 174/2/2
f 173/1/2 163/1/2 174/1/2
f 164/1/2 165/1/2 175/1/2
f 174/2/2 164/2/2 175/2/2
f 165/2/2 166/2/2 176/2/2
f 175/1/2 165/1/2 176/1/2
f 166/2/2 156/2/2 177/2/2
f 176/2/2 166/2/2 177/2/2
f 156/1/2 167/1/2 177/1/2
f 167/2/2 168/2/2 178/2/2
f 177/1/2 167/1/2 178/1/2
f 168/1/2 152/1/2 179/1/2
f 178/2/2 168/2/2 179/2/2
f 179/1/2 152/1/2 180/1/2
f 175/2/2 176/2/2 181/2/2
f 169/2/2 170/2/2 181/2/2
f 179/2/2 180/2/2 181/2/2
f 178/2/2 179/2/2 181/2/2
f 172/2/2 173/2/2 181/2/2
f 171/2/2 172/2/2 181/2/2
f 174/2/2 175/2/2 181/2/2
f 170/2/2 171/2/2 181/2/2
f 176/2/2 177/2/2 181/2/2
f 177/2/2 178/2/2 181/2/2
f 157/2/2 169/2/2 181/2/2
f 173/2/2 174/2/2 181/2/2
f 181/2/2 180/2/2 182/2/2
f 186/1/3 184/1/3 183/1/3
f 187/2/3 185/2/3 184/2/3
f 187/1/3 184/1/3 186/1/3
f 188/1/3 186/1/3 183/1/3
f 188/2/3 187/2/3 186/2/3
f 189/2/3 185/2/3 187/2/3
f 189/2/3 187/2/3 188/2/3
f 190/1/3 188/1/3 183/1/3
f 190/1/3 189/1/3 188/1/3
f 191/2/3 185/2/3 189/2/3
f 191/1/3 189/1/3 190/1/3
f 192/1/3 190/1/3 183/1/3
f 192/2/3 191/2/3 190/2/3
f 193/2/3 185/2/3 191/2/3
f 193/2/3 191/2/3 192/2/3
f 194/1/3 192/1/3 183/1/3
f 194/1/3 193/1/3 192/1/3
f 195/2/3 185/2/3 193/2/3
f 195/1/3 193/1/3 194/1/3
f 196/1/3 194/1/3 183/1/3
f 196/2/3 195/2/3 194/2/3
f 197/2/3 185/2/3 195/2/3
f 197/2/3 195/2/3 196/2/3
f 198/2/3 185/2/3 197/2/3
f 200/2/3 198/2/3 197/2/3
f 200/3/3 199/3/3 198/3/3
f 201/3/3 199/3/3 200/3/3
f 202/1/3 196/1/3 183/1/3
f 202/1/3 197/1/3 196/1/3
f 203/2/3 200/2/3 197/2/3
f 203/1/3 197/1/3 202/1/3
f 204/1/3 202/1/3 183/1/3
f 204/2/3 203/2/3 202/2/3
f 205/2/3 203/2/3 204/2/3
f 206/1/3 205/1/3 204/1/3
f 206/2/3 203/2/3 205/2/3
f 207/2/3 200/2/3 203/2/3
f 207/2/3 203/2/3 206/2/3
f 208/1/3 206/1/3 204/1/3
f 208/1/3 207/1/3 206/1/3
f 209/2/3 200/2/3 207/2/3
f 209/1/3 207/1/3 208/1/3
f 210/1/3 208/1/3 204/1/3
f 210/2/3 209/2/3 208/2/3
f 211/2/3 200/2/3 209/2/3
f 211/2/3 209/2/3 210/2/3
f 212/1/3 210/1/3 204/1/3
f 212/1/3 204/1/3 183/1/3
f 212/1/3 211/1/3 210/1/3
f 213/2/3 200/2/3 211/2/3
f 213/1/3 211/1/3 212/1/3
f 214/1/3 212/1/3 183/1/3
f 214/2/3 213/2/3 212/2/3
f 215/2/3 200/2/3 213/2/3
f 215/2/3 213/2/3 214/2/3
f 216/1/3 215/1/3 214/1/3
f 217/2/3 200/2/3 215/2/3
f 217/1/3 215/1/3 216/1/3
f 218/1/3 214/1/3 183/1/3
f 218/1/3 216/1/3 214/1/3
f 219/2/3 217/2/3 216/2/3
f 219/1/3 216/1/3 218/1/3
f 220/2/3 200/2/3 217/2/3
f 220/2/3 217/2/3 219/2/3
f 223/3/3 222/3/3 221/3/3
f 224/3/3 222/3/3 223/3/3
f 227/3/3 226/3/3 225/3/3
f 228/3/3 226/3/3 227/3/3
f 231/3/3 230/3/3 229/3/3
f 232/3/3 230/3/3 231/3/3
f 235/3/3 234/3/3 233/3/3
f 236/3/3 234/3/3 235/3/3
f 239/3/3 238/3/3 237/3/3
f 240/3/3 238/3/3 239/3/3
f 243/3/3 242/3/3 241/3/3
f 244/3/3 242/3/3 243/3/3
f 247/3/3 246/3/3 245/3/3
f 248/3/3 246/3/3 247/3/3
f 251/3/3 250/3/3 249/3/3
f 252/3/3 250/3/3 251/3/3
f 255/3/3 254/3/3 253/3/3
f 256/3/3 254/3/3 255/3/3
f 259/3/3 258/3/3 257/3/3
f 260/3/3 258/3/3 259/3/3
f 263/3/3 262/3/3 261/3/3
f 264/3/3 262/3/3 263/3/3
f 267/3/3 266/3/3 265/3/3
f 268/3/3 266/3/3 267/3/3
f 271/3/3 270/3/3 269/3/3
f 272/3/3 270/3/3 271/3/3
f 273/3/4 274/3/4 275/3/4
f 275/3/4 274/3/4 276/3/4
f 277/3/4 278/3/4 279/3/4
f 279/3/4 278/3/4 280/3/4
f 281/3/4 282/3/4 283/3/4
f 283/3/4 282/3/4 284/3/4
f 285/3/4 286/3/4 287/3/4
f 287/3/4 286/3/4 288/3/4
f 289/3/4 290/3/4 291/3/4
f 291/3/4 290/3/4 292/3/4
f 293/3/4 294/3/4 295/3/4
f 295/3/4 294/3/4 296/3/4
f 297/3/4 298/3/4 299/3/4
f 299/3/4 298/3/4 300/3/4
f 301/3/4 302/3/4 303/3/4
f 303/3/4 302/3/4 304/3/4
f 305/3/4 306/3/4 307/3/4
f 307/3/4 306/3/4 308/3/4
f 309/3/4 310/3/4 311/3/4
f 311/3/4 310/3/4 312/3/4
f 313/3/4 314/3/4 315/3/4
f 315/3/4 314/3/4 316/3/4
f 317/3/4 318/3/4 319/3/4
f 319/3/4 318/3/4 320/3/4
f 321/3/4 322/3/4 323/3/4
f 323/3/4 322/3/4 324/3/4
f 325/1/4 326/1/4 328/1/4
f 326/2/4 327/2/4 329/2/4
f 328/1/4 326/1/4 329/1/4
f 325/1/4 328/1/4 330/1/4
f 328/2/4 329/2/4 330/2/4
f 330/2/4 329/2/4 331/2/4
f 325/1/4 330/1/4 332/1/4
f 330/1/4 331/1/4 332/1/4
f 331/2/4 329/2/4 333/2/4
f 332/1/4 331/1/4 333/1/4
f 329/2/4 327/2/4 334/2/4
f 333/2/4 329/2/4 334/2/4
f 325/1/4 332/1/4 335/1/4
f 332/2/4 333/2/4 336/2/4
f 335/1/4 332/1/4 336/1/4
f 333/1/4 334/1/4 337/1/4
f 336/2/4 333/2/4 337/2/4
f 334/2/4 327/2/4 338/2/4
f 337/1/4 334/1/4 338/1/4
f 325/1/4 335/1/4 339/1/4
f 336/2/4 337/2/4 339/2/4
f 337/2/4 338/2/4 339/2/4
f 335/2/4 336/2/4 339/2/4
f 338/2/4 327/2/4 340/2/4
f 339/2/4 338/2/4 340/2/4
f 339/1/4 340/1/4 341/1/4
f 340/2/4 327/2/4 342/2/4
f 341/1/4 340/1/4 342/1/4
f 339/1/4 341/1/4 343/1/4
f 341/2/4 342/2/4 343/2/4
f 343/2/4 342/2/4 344/2/4
f 343/1/4 344/1/4 345/1/4
f 344/2/4 342/2/4 345/2/4
f 342/2/4 327/2/4 346/2/4
f 345/2/4 342/2/4 346/2/4
f 343/1/4 345/1/4 347/1/4
f 339/1/4 343/1/4 347/1/4
f 345/1/4 346/1/4 347/1/4
f 346/2/4 327/2/4 348/2/4
f 347/1/4 346/1/4 348/1/4
f 325/1/4 339/1/4 349/1/4
f 339/1/4 347/1/4 349/1/4
f 347/2/4 348/2/4 350/2/4
f 349/1/4 347/1/4 350/1/4
f 350/2/4 348/2/4 351/2/4
f 348/2/4 327/2/4 352/2/4
f 351/2/4 348/2/4 352/2/4
f 350/2/4 351/2/4 353/2/4
f 325/1/4 349/1/4 353/1/4
f 349/2/4 350/2/4 353/2/4
f 351/1/4 352/1/4 354/1/4
f 353/2/4 351/2/4 354/2/4
f 352/2/4 327/2/4 355/2/4
f 354/1/4 352/1/4 357/1/4
f 353/1/4 354/1/4 357/1/4
f 352/2/4 355/2/4 358/2/4
f 357/1/4 352/1/4 358/1/4
f 355/3/4 356/3/4 359/3/4
f 358/2/4 355/2/4 359/2/4
f 359/3/4 356/3/4 360/3/4
f 353/1/4 357/1/4 361/1/4
f 357/2/4 358/2/4 362/2/4
f 361/1/4 357/1/4 362/1/4
f 358/2/4 359/2/4 362/2/4
f 353/1/4 361/1/4 363/1/4
f 361/2/4 362/2/4 363/2/4
f 362/2/4 359/2/4 364/2/4
f 363/2/4 362/2/4 364/2/4
f 353/1/4 363/1/4 365/1/4
f 325/1/4 353/1/4 365/1/4
f 363/1/4 364/1/4 365/1/4
f 364/2/4 359/2/4 366/2/4
f 365/1/4 364/1/4 366/1/4
f 366/2/4 359/2/4 367/2/4
f 370/1/5 369/1/5 368/1/5
f 371/1/5 369/1/5 370/1/5
f 372/2/6 373/2/6 376/2/6
f 374/2/6 375/2/6 377/2/6
f 372/2/6 376/2/6 378/2/6
f 376/2/6 377/2/6 378/2/6
f 378/2/6 377/2/6 379/2/6
f 379/2/6 377/2/6 380/2/6
f 380/2/6 377/2/6 381/2/6
f 372/2/6 378/2/6 382/2/6
f 379/2/6 380/2/6 383/2/6
f 383/2/6 380/2/6 384/2/6
f 381/2/6 377/2/6 385/2/6
f 377/2/6 375/2/6 386/2/6
f 385/2/6 377/2/6 386/2/6
f 386/2/6 375/2/6 387/2/6
f 384/2/6 385/2/6 388/2/6
f 383/2/6 384/2/6 388/2/6
f 385/2/6 386/2/6 388/2/6
f 382/2/6 383/2/6 388/2/6
f 387/2/6 375/2/6 389/2/6
f 389/2/6 375/2/6 390/2/6
f 388/2/6 389/2/6 390/2/6
f 390/2/6 375/2/6 391/2/6
f 388/2/6 390/2/6 392/2/6
f 391/2/6 375/2/6 393/2/6
f 382/2/6 388/2/6 394/2/6
f 392/2/6 393/2/6 394/2/6
f 388/2/6 392/2/6 394/2/6
f 394/2/6 393/2/6 395/2/6
f 395/2/6 393/2/6 396/2/6
f 393/2/6 375/2/6 397/2/6
f 396/2/6 393/2/6 397/2/6
f 382/2/6 394/2/6 398/2/6
f 395/2/6 396/2/6 399/2/6
f 399/2/6 396/2/6 400/2/6
f 397/2/6 375/2/6 401/2/6
f 382/2/6 398/2/6 402/2/6
f 400/2/6 401/2/6 402/2/6
f 399/2/6 400/2/6 402/2/6
f 398/2/6 399/2/6 402/2/6
f 402/2/6 401/2/6 403/2/6
f 382/2/6 402/2/6 404/2/6
f 403/2/6 401/2/6 405/2/6
f 405/2/6 401/2/6 406/2/6
f 404/2/6 405/2/6 406/2/6
f 406/2/6 401/2/6 407/2/6
f 404/2/6 406/2/6 408/2/6
f 407/2/6 401/2/6 409/2/6
f 372/2/6 382/2/6 410/2/6
f 408/2/6 409/2/6 410/2/6
f 382/2/6 404/2/6 410/2/6
f 404/2/6 408/2/6 410/2/6
f 410/2/6 409/2/6 411/2/6
f 411/2/6 409/2/6 412/2/6
f 412/2/6 409/2/6 413/2/6
f 372/2/6 410/2/6 414/2/6
f 411/2/6 412/2/6 415/2/6
f 415/2/6 412/2/6 416/2/6
f 413/2/6 409/2/6 417/2/6
f 415/2/6 416/2/6 418/2/6
f 416/2/6 417/2/6 418/2/6
f 417/2/6 409/2/6 418/2/6
f 414/2/6 415/2/6 418/2/6
f 418/2/6 409/2/6 419/2/6
f 414/2/6 418/2/6 420/2/6
f 419/2/6 409/2/6 421/2/6
f 414/2/6 420/2/6 422/2/6
f 420/2/6 421/2/6 422/2/6
f 422/2/6 421/2/6 423/2/6
f 414/2/6 422/2/6 424/2/6
f 423/2/6 421/2/6 425/2/6
f 421/2/6 409/2/6 426/2/6
f 424/2/6 425/2/6 426/2/6
f 425/2/6 421/2/6 426/2/6
f 426/2/6 409/2/6 427/2/6
f 372/2/6 414/2/6 428/2/6
f 414/2/6 424/2/6 428/2/6
f 424/2/6 426/2/6 428/2/6
f 428/2/6 426/2/6 429/2/6
f 427/2/6 409/2/6 430/2/6
f 401/2/6 375/2/6 431/2/6
f 430/2/6 409/2/6 431/2/6
f 409/2/6 401/2/6 431/2/6
f 432/3/6 433/3/6 434/3/6
f 434/3/6 433/3/6 435/3/6
f 436/3/6 437/3/6 440/3/6
f 440/3/6 437/3/6 441/3/6
f 438/3/6 439/3/6 442/3/6
f 442/3/6 439/3/6 443/3/6
f 444/3/6 445/3/6 446/3/6
f 446/3/6 445/3/6 447/3/6
f 448/3/6 449/3/6 450/3/6
f 450/3/6 449/3/6 451/3/6
f 452/3/6 453/3/6 456/3/6
f 456/3/6 453/3/6 457/3/6
f 454/3/6 455/3/6 458/3/6
f 458/3/6 455/3/6 459/3/6
f 460/3/6 461/3/6 462/3/6
f 462/3/6 461/3/6 463/3/6
f 464/3/6 465/3/6 466/3/6
f 466/3/6 465/3/6 467/3/6
f 468/3/6 469/3/6 472/3/6
f 472/3/6 469/3/6 473/3/6
f 470/3/6 471/3/6 474/3/6
f 474/3/6 471/3/6 475/3/6
f 476/3/6 477/3/6 478/3/6
f 478/3/6 477/3/6 479/3/6
f 480/3/6 481/3/6 482/3/6
f 482/3/6 481/3/6 483/3/6
f 484/3/6 485/3/6 486/3/6
f 486/3/6 485/3/6 487/3/6
