# MagicaVoxel @ Ephtracy

# material
mtllib 003_001_01.mtl
usemtl palette

# normals
vn -1 0 0
vn 1 0 0
vn 0 0 1
vn 0 0 -1
vn 0 -1 0
vn 0 1 0

# texcoords
vt 0.0253906 0.5
vt 0.0292969 0.5
vt 0.970703 0.5

# verts
v -16 0 16
v -16 0 -16
v -16 3 16
v -16 3 -16
v -7 3 7
v -7 3 -7
v -7 4 -1
v -7 4 -2
v -7 5 5
v -7 5 -1
v -7 5 -2
v -7 5 -4
v -7 6 5
v -7 6 3
v -7 6 2
v -7 6 -3
v -7 7 3
v -7 7 2
v -7 8 5
v -7 8 -2
v -7 9 4
v -7 9 -0
v -7 9 -1
v -7 9 -2
v -7 10 3
v -7 10 2
v -7 12 -4
v -7 12 -5
v -7 13 2
v -7 13 1
v -7 13 -4
v -7 13 -5
v -7 14 6
v -7 14 5
v -7 14 2
v -7 14 1
v -7 15 6
v -7 15 5
v -7 19 2
v -7 19 -0
v -7 19 -1
v -7 19 -2
v -7 19 -4
v -7 19 -5
v -7 20 3
v -7 20 -2
v -7 20 -4
v -7 20 -5
v -7 22 2
v -7 22 1
v -7 23 4
v -7 23 2
v -7 23 1
v -7 23 -3
v -7 23 -4
v -7 23 -5
v -7 24 5
v -7 24 -0
v -7 24 -1
v -7 24 -5
v -7 25 -0
v -7 25 -1
v -7 27 7
v -7 27 -7
v 7 3 7
v 7 3 -7
v 7 5 6
v 7 5 -6
v 7 6 6
v 7 6 5
v 7 6 4
v 7 6 -6
v 7 7 3
v 7 7 -3
v 7 7 -4
v 7 7 -5
v 7 8 2
v 7 8 -2
v 7 9 6
v 7 9 5
v 7 10 6
v 7 10 5
v 7 11 -5
v 7 11 -6
v 7 12 -0
v 7 12 -1
v 7 12 -5
v 7 12 -6
v 7 14 1
v 7 14 -0
v 7 14 -1
v 7 14 -2
v 7 15 1
v 7 15 -3
v 7 17 6
v 7 17 5
v 7 17 -5
v 7 17 -6
v 7 18 6
v 7 18 5
v 7 18 2
v 7 18 -4
v 7 18 -5
v 7 18 -6
v 7 19 3
v 7 19 -0
v 7 19 -1
v 7 19 -4
v 7 21 4
v 7 21 1
v 7 21 -0
v 7 21 -1
v 7 22 4
v 7 22 1
v 7 23 4
v 7 23 -4
v 7 23 -5
v 7 23 -6
v 7 24 5
v 7 24 -2
v 7 24 -3
v 7 24 -6
v 7 25 -2
v 7 25 -3
v 7 27 7
v 7 27 -7
v 16 0 16
v 16 0 -16
v 16 3 16
v 16 3 -16
v -16 0 16
v -16 3 16
v -9 2 16
v -9 3 16
v -8 2 16
v -8 3 16
v 2 2 16
v 2 3 16
v 3 2 16
v 3 3 16
v 7 2 16
v 7 3 16
v 8 2 16
v 8 3 16
v 16 0 16
v 16 3 16
v -7 3 7
v -7 27 7
v -5 7 7
v -5 8 7
v -5 16 7
v -5 17 7
v -5 23 7
v -5 24 7
v -4 5 7
v -4 7 7
v -4 8 7
v -4 16 7
v -4 17 7
v -4 23 7
v -3 6 7
v -3 23 7
v -2 9 7
v -2 10 7
v -2 20 7
v -2 21 7
v -2 24 7
v -2 25 7
v -1 10 7
v -1 20 7
v -1 24 7
v -1 25 7
v 0 10 7
v 0 15 7
v 0 16 7
v 0 20 7
v 2 4 7
v 2 5 7
v 2 7 7
v 2 9 7
v 2 10 7
v 2 13 7
v 2 15 7
v 2 16 7
v 3 4 7
v 3 5 7
v 3 7 7
v 3 13 7
v 4 6 7
v 4 20 7
v 4 22 7
v 4 23 7
v 5 5 7
v 5 6 7
v 5 7 7
v 5 16 7
v 5 17 7
v 5 21 7
v 5 22 7
v 5 24 7
v 6 6 7
v 6 7 7
v 6 16 7
v 6 17 7
v 7 3 7
v 7 27 7
v -7 3 -7
v -7 27 -7
v -6 22 -7
v -6 23 -7
v -5 4 -7
v -5 6 -7
v -5 8 -7
v -5 22 -7
v -5 23 -7
v -5 24 -7
v -4 4 -7
v -4 5 -7
v -4 9 -7
v -4 16 -7
v -4 17 -7
v -4 23 -7
v -3 13 -7
v -3 14 -7
v -3 16 -7
v -3 17 -7
v -3 20 -7
v -3 21 -7
v -2 9 -7
v -2 11 -7
v -2 14 -7
v -2 20 -7
v -1 9 -7
v -1 11 -7
v -1 14 -7
v -1 20 -7
v -1 24 -7
v -1 25 -7
v 0 4 -7
v 0 5 -7
v 0 18 -7
v 0 19 -7
v 0 24 -7
v 0 25 -7
v 1 4 -7
v 1 5 -7
v 1 9 -7
v 1 13 -7
v 1 14 -7
v 1 18 -7
v 2 8 -7
v 2 19 -7
v 2 20 -7
v 2 21 -7
v 3 15 -7
v 3 16 -7
v 4 6 -7
v 4 15 -7
v 4 16 -7
v 4 23 -7
v 5 5 -7
v 5 10 -7
v 5 11 -7
v 5 23 -7
v 6 10 -7
v 6 11 -7
v 6 23 -7
v 6 24 -7
v 7 3 -7
v 7 27 -7
v -16 0 -16
v -16 3 -16
v 16 0 -16
v 16 3 -16
v -16 0 16
v 16 0 16
v -16 0 -16
v 16 0 -16
v -16 3 16
v -9 3 16
v -8 3 16
v 2 3 16
v 3 3 16
v 7 3 16
v 8 3 16
v 16 3 16
v -5 3 15
v -4 3 15
v -5 3 14
v -4 3 14
v 14 3 14
v 15 3 14
v 2 3 13
v 3 3 13
v 14 3 13
v 15 3 13
v -11 3 12
v -9 3 12
v -8 3 12
v 6 3 12
v 8 3 12
v 12 3 12
v -11 3 11
v -1 3 11
v 0 3 11
v 6 3 11
v -15 3 10
v -9 3 10
v 8 3 10
v 12 3 10
v -15 3 9
v -9 3 9
v 7 3 9
v 8 3 9
v -1 3 8
v 0 3 8
v -14 3 7
v -13 3 7
v -7 3 7
v 7 3 7
v 12 3 7
v 13 3 7
v -11 3 2
v -10 3 2
v 8 3 1
v 12 3 1
v -14 3 -0
v -13 3 -0
v 8 3 -0
v 12 3 -0
v 12 3 -3
v 13 3 -3
v -11 3 -6
v -10 3 -6
v 13 3 -6
v 14 3 -6
v -15 3 -7
v -10 3 -7
v -7 3 -7
v 7 3 -7
v 13 3 -7
v 14 3 -7
v 10 3 -8
v 11 3 -8
v -15 3 -9
v -10 3 -9
v 7 3 -9
v 8 3 -9
v -13 3 -10
v -12 3 -10
v -4 3 -10
v -3 3 -10
v -1 3 -10
v 0 3 -10
v 7 3 -10
v 8 3 -10
v -8 3 -11
v -7 3 -11
v 8 3 -11
v 10 3 -11
v 11 3 -11
v 13 3 -11
v -8 3 -12
v -7 3 -12
v -3 3 -12
v -1 3 -12
v 0 3 -12
v 4 3 -12
v 8 3 -12
v 10 3 -12
v 11 3 -12
v 13 3 -12
v -3 3 -13
v -1 3 -13
v 0 3 -13
v 4 3 -13
v 10 3 -13
v 11 3 -13
v -13 3 -14
v -12 3 -14
v -4 3 -15
v -3 3 -15
v -1 3 -15
v 0 3 -15
v -16 3 -16
v 16 3 -16
v -7 27 7
v 7 27 7
v -6 27 6
v 6 27 6
v -6 27 5
v 0 27 5
v 1 27 5
v 4 27 5
v 5 27 5
v 6 27 5
v -5 27 3
v -4 27 3
v -4 27 1
v 0 27 1
v 1 27 1
v 3 27 1
v -4 27 -0
v -2 27 -0
v -1 27 -0
v 3 27 -0
v -2 27 -2
v -1 27 -2
v 1 27 -2
v 4 27 -2
v 1 27 -3
v 4 27 -3
v -4 27 -4
v 3 27 -4
v -4 27 -5
v 3 27 -5
v 4 27 -5
v 5 27 -5
v -5 27 -6
v -4 27 -6
v -7 27 -7
v 7 27 -7

# faces
f 3/3/1 2/3/1 1/3/1
f 4/3/1 2/3/1 3/3/1
f 7/3/1 6/3/1 5/3/1
f 8/3/1 6/3/1 7/3/1
f 9/3/1 7/3/1 5/3/1
f 10/2/1 8/2/1 7/2/1
f 10/3/1 7/3/1 9/3/1
f 11/3/1 6/3/1 8/3/1
f 11/2/1 8/2/1 10/2/1
f 12/3/1 6/3/1 11/3/1
f 13/2/1 10/2/1 9/2/1
f 13/3/1 9/3/1 5/3/1
f 13/2/1 12/2/1 11/2/1
f 13/2/1 11/2/1 10/2/1
f 14/2/1 12/2/1 13/2/1
f 15/2/1 12/2/1 14/2/1
f 16/2/1 12/2/1 15/2/1
f 17/3/1 14/3/1 13/3/1
f 17/2/1 15/2/1 14/2/1
f 18/3/1 16/3/1 15/3/1
f 18/2/1 15/2/1 17/2/1
f 19/3/1 13/3/1 5/3/1
f 19/3/1 17/3/1 13/3/1
f 19/3/1 18/3/1 17/3/1
f 20/3/1 16/3/1 18/3/1
f 20/3/1 18/3/1 19/3/1
f 21/2/1 20/2/1 19/2/1
f 22/2/1 20/2/1 21/2/1
f 23/2/1 20/2/1 22/2/1
f 24/3/1 16/3/1 20/3/1
f 24/2/1 20/2/1 23/2/1
f 25/3/1 22/3/1 21/3/1
f 26/3/1 22/3/1 25/3/1
f 27/3/1 6/3/1 12/3/1
f 27/2/1 12/2/1 16/2/1
f 28/3/1 6/3/1 27/3/1
f 29/3/1 22/3/1 26/3/1
f 29/2/1 26/2/1 25/2/1
f 30/3/1 22/3/1 29/3/1
f 31/2/1 28/2/1 27/2/1
f 31/2/1 27/2/1 16/2/1
f 32/3/1 6/3/1 28/3/1
f 32/2/1 28/2/1 31/2/1
f 33/3/1 19/3/1 5/3/1
f 34/2/1 21/2/1 19/2/1
f 34/3/1 19/3/1 33/3/1
f 35/2/1 30/2/1 29/2/1
f 35/2/1 29/2/1 25/2/1
f 36/3/1 22/3/1 30/3/1
f 36/2/1 30/2/1 35/2/1
f 37/3/1 33/3/1 5/3/1
f 37/2/1 34/2/1 33/2/1
f 38/2/1 21/2/1 34/2/1
f 38/2/1 34/2/1 37/2/1
f 39/2/1 35/2/1 25/2/1
f 39/3/1 36/3/1 35/3/1
f 40/2/1 23/2/1 22/2/1
f 40/3/1 36/3/1 39/3/1
f 40/3/1 22/3/1 36/3/1
f 41/3/1 24/3/1 23/3/1
f 41/2/1 23/2/1 40/2/1
f 42/3/1 16/3/1 24/3/1
f 42/3/1 24/3/1 41/3/1
f 43/2/1 31/2/1 16/2/1
f 43/3/1 32/3/1 31/3/1
f 44/3/1 6/3/1 32/3/1
f 44/3/1 32/3/1 43/3/1
f 45/2/1 39/2/1 25/2/1
f 45/2/1 42/2/1 41/2/1
f 45/2/1 41/2/1 40/2/1
f 45/2/1 40/2/1 39/2/1
f 45/3/1 25/3/1 21/3/1
f 46/3/1 16/3/1 42/3/1
f 46/2/1 42/2/1 45/2/1
f 47/2/1 43/2/1 16/2/1
f 47/2/1 44/2/1 43/2/1
f 48/3/1 6/3/1 44/3/1
f 48/2/1 44/2/1 47/2/1
f 49/3/1 46/3/1 45/3/1
f 50/3/1 46/3/1 49/3/1
f 51/3/1 45/3/1 21/3/1
f 51/2/1 21/2/1 38/2/1
f 51/3/1 49/3/1 45/3/1
f 52/2/1 50/2/1 49/2/1
f 52/3/1 49/3/1 51/3/1
f 53/3/1 46/3/1 50/3/1
f 53/2/1 50/2/1 52/2/1
f 54/3/1 16/3/1 46/3/1
f 54/3/1 46/3/1 53/3/1
f 54/2/1 47/2/1 16/2/1
f 55/3/1 48/3/1 47/3/1
f 55/2/1 47/2/1 54/2/1
f 56/3/1 6/3/1 48/3/1
f 56/3/1 48/3/1 55/3/1
f 57/2/1 52/2/1 51/2/1
f 57/2/1 53/2/1 52/2/1
f 57/2/1 56/2/1 55/2/1
f 57/2/1 51/2/1 38/2/1
f 57/3/1 38/3/1 37/3/1
f 57/2/1 55/2/1 54/2/1
f 57/2/1 54/2/1 53/2/1
f 58/2/1 56/2/1 57/2/1
f 59/2/1 56/2/1 58/2/1
f 60/3/1 6/3/1 56/3/1
f 60/2/1 56/2/1 59/2/1
f 61/2/1 59/2/1 58/2/1
f 61/3/1 58/3/1 57/3/1
f 62/3/1 60/3/1 59/3/1
f 62/2/1 59/2/1 61/2/1
f 63/3/1 37/3/1 5/3/1
f 63/3/1 57/3/1 37/3/1
f 63/3/1 62/3/1 61/3/1
f 63/3/1 61/3/1 57/3/1
f 64/3/1 6/3/1 60/3/1
f 64/3/1 62/3/1 63/3/1
f 64/3/1 60/3/1 62/3/1
f 65/3/2 66/3/2 67/3/2
f 67/3/2 66/3/2 68/3/2
f 65/3/2 67/3/2 69/3/2
f 67/2/2 68/2/2 69/2/2
f 69/2/2 68/2/2 70/2/2
f 70/2/2 68/2/2 71/2/2
f 68/3/2 66/3/2 72/3/2
f 71/2/2 68/2/2 72/2/2
f 71/3/2 72/3/2 73/3/2
f 73/3/2 72/3/2 74/3/2
f 74/3/2 72/3/2 75/3/2
f 75/3/2 72/3/2 76/3/2
f 73/2/2 74/2/2 77/2/2
f 77/2/2 74/2/2 78/2/2
f 65/3/2 69/3/2 79/3/2
f 69/3/2 70/3/2 79/3/2
f 70/2/2 71/2/2 80/2/2
f 79/3/2 70/3/2 80/3/2
f 65/3/2 79/3/2 81/3/2
f 79/2/2 80/2/2 81/2/2
f 80/2/2 71/2/2 82/2/2
f 81/2/2 80/2/2 82/2/2
f 76/3/2 72/3/2 83/3/2
f 75/2/2 76/2/2 83/2/2
f 72/3/2 66/3/2 84/3/2
f 83/3/2 72/3/2 84/3/2
f 77/3/2 78/3/2 85/3/2
f 85/3/2 78/3/2 86/3/2
f 75/2/2 83/2/2 87/2/2
f 83/2/2 84/2/2 87/2/2
f 84/3/2 66/3/2 88/3/2
f 87/2/2 84/2/2 88/2/2
f 77/3/2 85/3/2 89/3/2
f 85/2/2 86/2/2 90/2/2
f 89/3/2 85/3/2 90/3/2
f 86/3/2 78/3/2 91/3/2
f 90/2/2 86/2/2 91/2/2
f 78/2/2 74/2/2 92/2/2
f 91/3/2 78/3/2 92/3/2
f 90/2/2 91/2/2 93/2/2
f 89/2/2 90/2/2 93/2/2
f 91/2/2 92/2/2 93/2/2
f 77/3/2 89/3/2 93/3/2
f 92/2/2 74/2/2 94/2/2
f 93/2/2 92/2/2 94/2/2
f 74/3/2 75/3/2 94/3/2
f 65/3/2 81/3/2 95/3/2
f 81/3/2 82/3/2 95/3/2
f 82/2/2 71/2/2 96/2/2
f 95/3/2 82/3/2 96/3/2
f 75/2/2 87/2/2 97/2/2
f 87/3/2 88/3/2 97/3/2
f 88/3/2 66/3/2 98/3/2
f 97/3/2 88/3/2 98/3/2
f 95/2/2 96/2/2 99/2/2
f 65/3/2 95/3/2 99/3/2
f 96/2/2 71/2/2 100/2/2
f 99/2/2 96/2/2 100/2/2
f 77/3/2 93/3/2 101/3/2
f 93/3/2 94/3/2 101/3/2
f 73/2/2 77/2/2 101/2/2
f 94/3/2 75/3/2 102/3/2
f 101/3/2 94/3/2 102/3/2
f 97/2/2 98/2/2 102/2/2
f 75/2/2 97/2/2 102/2/2
f 102/2/2 98/2/2 103/2/2
f 98/3/2 66/3/2 104/3/2
f 103/2/2 98/2/2 104/2/2
f 73/2/2 101/2/2 105/2/2
f 102/2/2 103/2/2 105/2/2
f 71/3/2 73/3/2 105/3/2
f 101/2/2 102/2/2 105/2/2
f 105/2/2 103/2/2 106/2/2
f 106/2/2 103/2/2 107/2/2
f 107/2/2 103/2/2 108/2/2
f 100/2/2 71/2/2 109/2/2
f 71/3/2 105/3/2 109/3/2
f 105/3/2 106/3/2 109/3/2
f 109/3/2 106/3/2 110/3/2
f 106/2/2 107/2/2 111/2/2
f 110/3/2 106/3/2 111/3/2
f 107/3/2 108/3/2 112/3/2
f 111/2/2 107/2/2 112/2/2
f 109/2/2 110/2/2 113/2/2
f 100/2/2 109/2/2 113/2/2
f 110/3/2 111/3/2 114/3/2
f 113/2/2 110/2/2 114/2/2
f 111/3/2 112/3/2 114/3/2
f 100/2/2 113/2/2 115/2/2
f 113/3/2 114/3/2 115/3/2
f 108/2/2 103/2/2 116/2/2
f 115/3/2 114/3/2 116/3/2
f 114/3/2 112/3/2 116/3/2
f 112/3/2 108/3/2 116/3/2
f 103/3/2 104/3/2 117/3/2
f 116/2/2 103/2/2 117/2/2
f 104/3/2 66/3/2 118/3/2
f 117/3/2 104/3/2 118/3/2
f 116/2/2 117/2/2 119/2/2
f 100/2/2 115/2/2 119/2/2
f 117/2/2 118/2/2 119/2/2
f 99/3/2 100/3/2 119/3/2
f 115/2/2 116/2/2 119/2/2
f 119/2/2 118/2/2 120/2/2
f 120/2/2 118/2/2 121/2/2
f 118/3/2 66/3/2 122/3/2
f 121/2/2 118/2/2 122/2/2
f 120/2/2 121/2/2 123/2/2
f 119/3/2 120/3/2 123/3/2
f 121/3/2 122/3/2 124/3/2
f 123/2/2 121/2/2 124/2/2
f 65/3/2 99/3/2 125/3/2
f 99/3/2 119/3/2 125/3/2
f 123/3/2 124/3/2 125/3/2
f 119/3/2 123/3/2 125/3/2
f 122/3/2 66/3/2 126/3/2
f 125/3/2 124/3/2 126/3/2
f 124/3/2 122/3/2 126/3/2
f 127/3/2 128/3/2 129/3/2
f 129/3/2 128/3/2 130/3/2
f 133/3/3 132/3/3 131/3/3
f 134/3/3 132/3/3 133/3/3
f 135/3/3 133/3/3 131/3/3
f 135/1/3 134/1/3 133/1/3
f 136/1/3 134/1/3 135/1/3
f 137/3/3 135/3/3 131/3/3
f 137/3/3 136/3/3 135/3/3
f 138/3/3 136/3/3 137/3/3
f 139/3/3 137/3/3 131/3/3
f 139/1/3 138/1/3 137/1/3
f 140/1/3 138/1/3 139/1/3
f 141/3/3 139/3/3 131/3/3
f 141/3/3 140/3/3 139/3/3
f 142/3/3 140/3/3 141/3/3
f 143/3/3 141/3/3 131/3/3
f 143/1/3 142/1/3 141/1/3
f 144/1/3 142/1/3 143/1/3
f 145/3/3 143/3/3 131/3/3
f 145/3/3 144/3/3 143/3/3
f 146/3/3 144/3/3 145/3/3
f 149/3/3 148/3/3 147/3/3
f 150/3/3 148/3/3 149/3/3
f 151/3/3 148/3/3 150/3/3
f 152/3/3 148/3/3 151/3/3
f 153/3/3 148/3/3 152/3/3
f 154/3/3 148/3/3 153/3/3
f 155/3/3 149/3/3 147/3/3
f 156/2/3 150/2/3 149/2/3
f 156/3/3 149/3/3 155/3/3
f 157/3/3 151/3/3 150/3/3
f 157/2/3 150/2/3 156/2/3
f 158/2/3 152/2/3 151/2/3
f 158/3/3 151/3/3 157/3/3
f 159/3/3 153/3/3 152/3/3
f 159/2/3 152/2/3 158/2/3
f 160/2/3 154/2/3 153/2/3
f 160/3/3 153/3/3 159/3/3
f 161/2/3 156/2/3 155/2/3
f 161/2/3 157/2/3 156/2/3
f 161/2/3 160/2/3 159/2/3
f 161/2/3 159/2/3 158/2/3
f 161/2/3 158/2/3 157/2/3
f 162/2/3 154/2/3 160/2/3
f 162/2/3 160/2/3 161/2/3
f 163/3/3 162/3/3 161/3/3
f 164/3/3 162/3/3 163/3/3
f 165/3/3 162/3/3 164/3/3
f 166/3/3 162/3/3 165/3/3
f 167/3/3 148/3/3 154/3/3
f 167/2/3 154/2/3 162/2/3
f 168/3/3 148/3/3 167/3/3
f 169/2/3 164/2/3 163/2/3
f 169/3/3 165/3/3 164/3/3
f 170/2/3 166/2/3 165/2/3
f 170/3/3 165/3/3 169/3/3
f 171/2/3 168/2/3 167/2/3
f 171/2/3 167/2/3 162/2/3
f 172/3/3 148/3/3 168/3/3
f 172/2/3 168/2/3 171/2/3
f 173/2/3 169/2/3 163/2/3
f 173/2/3 170/2/3 169/2/3
f 174/2/3 170/2/3 173/2/3
f 175/2/3 170/2/3 174/2/3
f 176/2/3 166/2/3 170/2/3
f 176/2/3 170/2/3 175/2/3
f 177/3/3 155/3/3 147/3/3
f 178/2/3 161/2/3 155/2/3
f 178/3/3 155/3/3 177/3/3
f 179/3/3 163/3/3 161/3/3
f 180/2/3 173/2/3 163/2/3
f 180/3/3 163/3/3 179/3/3
f 181/3/3 174/3/3 173/3/3
f 181/2/3 173/2/3 180/2/3
f 182/3/3 174/3/3 181/3/3
f 183/2/3 175/2/3 174/2/3
f 183/3/3 174/3/3 182/3/3
f 184/3/3 176/3/3 175/3/3
f 184/2/3 175/2/3 183/2/3
f 185/3/3 177/3/3 147/3/3
f 185/2/3 178/2/3 177/2/3
f 186/2/3 161/2/3 178/2/3
f 186/2/3 178/2/3 185/2/3
f 187/2/3 182/2/3 181/2/3
f 187/3/3 179/3/3 161/3/3
f 187/2/3 180/2/3 179/2/3
f 187/2/3 181/2/3 180/2/3
f 188/3/3 184/3/3 183/3/3
f 188/2/3 182/2/3 187/2/3
f 188/3/3 183/3/3 182/3/3
f 189/2/3 161/2/3 186/2/3
f 189/3/3 187/3/3 161/3/3
f 189/3/3 188/3/3 187/3/3
f 190/2/3 166/2/3 176/2/3
f 190/3/3 188/3/3 189/3/3
f 190/3/3 176/3/3 184/3/3
f 190/3/3 184/3/3 188/3/3
f 191/3/3 162/3/3 166/3/3
f 192/2/3 171/2/3 162/2/3
f 192/3/3 162/3/3 191/3/3
f 193/2/3 189/2/3 186/2/3
f 193/3/3 186/3/3 185/3/3
f 193/2/3 190/2/3 189/2/3
f 194/2/3 190/2/3 193/2/3
f 195/2/3 190/2/3 194/2/3
f 196/2/3 190/2/3 195/2/3
f 197/2/3 190/2/3 196/2/3
f 198/2/3 166/2/3 190/2/3
f 198/2/3 190/2/3 197/2/3
f 198/3/3 191/3/3 166/3/3
f 199/2/3 192/2/3 191/2/3
f 199/3/3 191/3/3 198/3/3
f 200/2/3 171/2/3 192/2/3
f 200/2/3 192/2/3 199/2/3
f 200/3/3 172/3/3 171/3/3
f 201/2/3 195/2/3 194/2/3
f 201/3/3 194/3/3 193/3/3
f 202/3/3 196/3/3 195/3/3
f 202/2/3 195/2/3 201/2/3
f 203/2/3 197/2/3 196/2/3
f 203/3/3 196/3/3 202/3/3
f 204/3/3 199/3/3 198/3/3
f 204/2/3 197/2/3 203/2/3
f 204/3/3 198/3/3 197/3/3
f 204/3/3 200/3/3 199/3/3
f 205/3/3 202/3/3 201/3/3
f 205/3/3 203/3/3 202/3/3
f 205/3/3 204/3/3 203/3/3
f 205/3/3 193/3/3 185/3/3
f 205/3/3 201/3/3 193/3/3
f 205/3/3 185/3/3 147/3/3
f 206/3/3 200/3/3 204/3/3
f 206/3/3 204/3/3 205/3/3
f 206/3/3 172/3/3 200/3/3
f 206/3/3 148/3/3 172/3/3
f 207/3/4 208/3/4 209/3/4
f 209/3/4 208/3/4 210/3/4
f 207/3/4 209/3/4 211/3/4
f 211/3/4 209/3/4 212/3/4
f 212/3/4 209/3/4 213/3/4
f 209/2/4 210/2/4 214/2/4
f 213/3/4 209/3/4 214/3/4
f 210/3/4 208/3/4 215/3/4
f 214/2/4 210/2/4 215/2/4
f 215/3/4 208/3/4 216/3/4
f 207/3/4 211/3/4 217/3/4
f 211/2/4 212/2/4 217/2/4
f 217/2/4 212/2/4 218/2/4
f 213/2/4 214/2/4 219/2/4
f 215/2/4 216/2/4 219/2/4
f 214/2/4 215/2/4 219/2/4
f 219/2/4 216/2/4 220/2/4
f 220/2/4 216/2/4 221/2/4
f 221/2/4 216/2/4 222/2/4
f 219/3/4 220/3/4 223/3/4
f 223/3/4 220/3/4 224/3/4
f 220/2/4 221/2/4 225/2/4
f 224/3/4 220/3/4 225/3/4
f 221/3/4 222/3/4 226/3/4
f 225/2/4 221/2/4 226/2/4
f 226/3/4 222/3/4 227/3/4
f 227/3/4 222/3/4 228/3/4
f 213/2/4 219/2/4 229/2/4
f 219/3/4 223/3/4 229/3/4
f 229/3/4 223/3/4 230/3/4
f 223/2/4 224/2/4 231/2/4
f 224/3/4 225/3/4 231/3/4
f 225/3/4 226/3/4 231/3/4
f 226/3/4 227/3/4 231/3/4
f 227/2/4 228/2/4 232/2/4
f 231/3/4 227/3/4 232/3/4
f 229/2/4 230/2/4 233/2/4
f 213/2/4 229/2/4 233/2/4
f 230/3/4 223/3/4 234/3/4
f 233/2/4 230/2/4 234/2/4
f 223/2/4 231/2/4 235/2/4
f 231/2/4 232/2/4 235/2/4
f 232/2/4 228/2/4 236/2/4
f 235/2/4 232/2/4 236/2/4
f 216/3/4 208/3/4 237/3/4
f 222/2/4 216/2/4 237/2/4
f 237/3/4 208/3/4 238/3/4
f 217/3/4 218/3/4 239/3/4
f 207/3/4 217/3/4 239/3/4
f 218/2/4 212/2/4 240/2/4
f 239/3/4 218/3/4 240/3/4
f 235/3/4 236/3/4 241/3/4
f 241/3/4 236/3/4 242/3/4
f 237/2/4 238/2/4 243/2/4
f 222/2/4 237/2/4 243/2/4
f 238/3/4 208/3/4 244/3/4
f 243/2/4 238/2/4 244/2/4
f 207/3/4 239/3/4 245/3/4
f 239/2/4 240/2/4 245/2/4
f 240/2/4 212/2/4 246/2/4
f 245/2/4 240/2/4 246/2/4
f 213/2/4 233/2/4 247/2/4
f 233/3/4 234/3/4 247/3/4
f 223/2/4 235/2/4 248/2/4
f 247/3/4 234/3/4 248/3/4
f 234/3/4 223/3/4 248/3/4
f 235/3/4 241/3/4 249/3/4
f 248/2/4 235/2/4 249/2/4
f 241/2/4 242/2/4 250/2/4
f 249/3/4 241/3/4 250/3/4
f 212/3/4 213/3/4 251/3/4
f 213/2/4 247/2/4 251/2/4
f 249/2/4 250/2/4 251/2/4
f 247/2/4 248/2/4 251/2/4
f 248/2/4 249/2/4 251/2/4
f 250/2/4 242/2/4 252/2/4
f 251/2/4 250/2/4 252/2/4
f 242/3/4 236/3/4 252/3/4
f 236/2/4 228/2/4 253/2/4
f 252/3/4 236/3/4 253/3/4
f 228/3/4 222/3/4 254/3/4
f 253/2/4 228/2/4 254/2/4
f 251/3/4 252/3/4 255/3/4
f 252/3/4 253/3/4 255/3/4
f 253/3/4 254/3/4 255/3/4
f 255/3/4 254/3/4 256/3/4
f 212/3/4 251/3/4 257/3/4
f 246/2/4 212/2/4 257/2/4
f 251/3/4 255/3/4 257/3/4
f 255/2/4 256/2/4 258/2/4
f 257/3/4 255/3/4 258/3/4
f 256/3/4 254/3/4 259/3/4
f 258/2/4 256/2/4 259/2/4
f 254/3/4 222/3/4 260/3/4
f 259/3/4 254/3/4 260/3/4
f 222/2/4 243/2/4 260/2/4
f 257/2/4 258/2/4 261/2/4
f 258/2/4 259/2/4 261/2/4
f 259/2/4 260/2/4 261/2/4
f 246/2/4 257/2/4 261/2/4
f 245/3/4 246/3/4 261/3/4
f 261/2/4 260/2/4 262/2/4
f 262/2/4 260/2/4 263/2/4
f 260/2/4 243/2/4 264/2/4
f 263/2/4 260/2/4 264/2/4
f 262/2/4 263/2/4 265/2/4
f 261/3/4 262/3/4 265/3/4
f 263/3/4 264/3/4 266/3/4
f 265/2/4 263/2/4 266/2/4
f 264/2/4 243/2/4 267/2/4
f 266/3/4 264/3/4 267/3/4
f 243/3/4 244/3/4 268/3/4
f 267/2/4 243/2/4 268/2/4
f 265/3/4 266/3/4 269/3/4
f 207/3/4 245/3/4 269/3/4
f 267/3/4 268/3/4 269/3/4
f 261/3/4 265/3/4 269/3/4
f 245/3/4 261/3/4 269/3/4
f 266/3/4 267/3/4 269/3/4
f 244/3/4 208/3/4 270/3/4
f 269/3/4 268/3/4 270/3/4
f 268/3/4 244/3/4 270/3/4
f 271/3/4 272/3/4 273/3/4
f 273/3/4 272/3/4 274/3/4
f 277/3/5 276/3/5 275/3/5
f 278/3/5 276/3/5 277/3/5
f 281/3/6 282/3/6 287/3/6
f 287/3/6 282/3/6 288/3/6
f 281/3/6 287/3/6 289/3/6
f 287/1/6 288/1/6 289/1/6
f 288/3/6 282/3/6 290/3/6
f 289/1/6 288/1/6 290/1/6
f 285/3/6 286/3/6 291/3/6
f 291/3/6 286/3/6 292/3/6
f 290/3/6 282/3/6 293/3/6
f 282/1/6 283/1/6 293/1/6
f 289/3/6 290/3/6 293/3/6
f 283/3/6 284/3/6 294/3/6
f 293/1/6 283/1/6 294/1/6
f 291/1/6 292/1/6 295/1/6
f 285/3/6 291/3/6 295/3/6
f 292/3/6 286/3/6 296/3/6
f 295/1/6 292/1/6 296/1/6
f 279/3/6 280/3/6 297/3/6
f 280/1/6 281/1/6 298/1/6
f 297/3/6 280/3/6 298/3/6
f 289/3/6 293/3/6 299/3/6
f 298/1/6 281/1/6 299/1/6
f 281/3/6 289/3/6 299/3/6
f 293/3/6 294/3/6 299/3/6
f 294/3/6 284/3/6 300/3/6
f 299/3/6 294/3/6 300/3/6
f 285/3/6 295/3/6 301/3/6
f 284/1/6 285/1/6 301/1/6
f 295/3/6 296/3/6 301/3/6
f 301/3/6 296/3/6 302/3/6
f 279/3/6 297/3/6 303/3/6
f 298/1/6 299/1/6 303/1/6
f 297/1/6 298/1/6 303/1/6
f 299/1/6 300/1/6 303/1/6
f 303/1/6 300/1/6 304/1/6
f 304/1/6 300/1/6 305/1/6
f 300/3/6 284/3/6 306/3/6
f 305/1/6 300/1/6 306/1/6
f 279/3/6 303/3/6 307/3/6
f 303/3/6 304/3/6 307/3/6
f 307/3/6 304/3/6 308/3/6
f 301/1/6 302/1/6 309/1/6
f 284/1/6 301/1/6 309/1/6
f 302/3/6 296/3/6 310/3/6
f 309/1/6 302/1/6 310/1/6
f 307/1/6 308/1/6 311/1/6
f 279/3/6 307/3/6 311/3/6
f 308/3/6 304/3/6 312/3/6
f 311/1/6 308/1/6 312/1/6
f 284/1/6 309/1/6 313/1/6
f 306/3/6 284/3/6 313/3/6
f 305/3/6 306/3/6 313/3/6
f 309/3/6 310/3/6 314/3/6
f 313/1/6 309/1/6 314/1/6
f 312/3/6 304/3/6 315/3/6
f 304/1/6 305/1/6 315/1/6
f 311/3/6 312/3/6 315/3/6
f 313/3/6 314/3/6 316/3/6
f 315/1/6 305/1/6 316/1/6
f 305/3/6 313/3/6 316/3/6
f 311/3/6 315/3/6 317/3/6
f 315/3/6 316/3/6 317/3/6
f 317/3/6 316/3/6 318/3/6
f 318/3/6 316/3/6 319/3/6
f 316/3/6 314/3/6 320/3/6
f 319/3/6 316/3/6 320/3/6
f 314/3/6 310/3/6 321/3/6
f 320/3/6 314/3/6 321/3/6
f 310/3/6 296/3/6 321/3/6
f 321/3/6 296/3/6 322/3/6
f 318/3/6 319/3/6 323/3/6
f 323/3/6 319/3/6 324/3/6
f 320/3/6 321/3/6 325/3/6
f 321/1/6 322/1/6 326/1/6
f 325/3/6 321/3/6 326/3/6
f 317/1/6 318/1/6 327/1/6
f 311/3/6 317/3/6 327/3/6
f 318/3/6 323/3/6 328/3/6
f 327/1/6 318/1/6 328/1/6
f 320/3/6 325/3/6 329/3/6
f 325/1/6 326/1/6 329/1/6
f 326/1/6 322/1/6 330/1/6
f 329/1/6 326/1/6 330/1/6
f 329/3/6 330/3/6 331/3/6
f 330/1/6 322/1/6 331/1/6
f 322/3/6 296/3/6 332/3/6
f 331/1/6 322/1/6 332/1/6
f 328/3/6 323/3/6 333/3/6
f 327/3/6 328/3/6 333/3/6
f 323/1/6 324/1/6 333/1/6
f 324/3/6 319/3/6 334/3/6
f 333/1/6 324/1/6 334/1/6
f 332/3/6 296/3/6 335/3/6
f 331/3/6 332/3/6 335/3/6
f 335/3/6 296/3/6 336/3/6
f 279/3/6 311/3/6 337/3/6
f 333/3/6 334/3/6 337/3/6
f 327/3/6 333/3/6 337/3/6
f 311/3/6 327/3/6 337/3/6
f 334/3/6 319/3/6 338/3/6
f 337/3/6 334/3/6 338/3/6
f 338/3/6 319/3/6 339/3/6
f 329/3/6 331/3/6 340/3/6
f 320/3/6 329/3/6 340/3/6
f 331/3/6 335/3/6 340/3/6
f 335/1/6 336/1/6 341/1/6
f 340/3/6 335/3/6 341/3/6
f 336/3/6 296/3/6 342/3/6
f 341/1/6 336/1/6 342/1/6
f 338/3/6 339/3/6 343/3/6
f 340/3/6 341/3/6 343/3/6
f 341/3/6 342/3/6 343/3/6
f 339/3/6 340/3/6 343/3/6
f 343/3/6 342/3/6 344/3/6
f 279/3/6 337/3/6 345/3/6
f 337/1/6 338/1/6 345/1/6
f 338/3/6 343/3/6 346/3/6
f 345/1/6 338/1/6 346/1/6
f 346/3/6 343/3/6 347/3/6
f 347/3/6 343/3/6 348/3/6
f 345/3/6 346/3/6 349/3/6
f 346/3/6 347/3/6 349/3/6
f 349/3/6 347/3/6 350/3/6
f 350/3/6 347/3/6 351/3/6
f 351/3/6 347/3/6 352/3/6
f 352/3/6 347/3/6 353/3/6
f 353/3/6 347/3/6 354/3/6
f 347/1/6 348/1/6 355/1/6
f 354/3/6 347/3/6 355/3/6
f 348/3/6 343/3/6 356/3/6
f 355/1/6 348/1/6 356/1/6
f 350/3/6 351/3/6 357/3/6
f 357/3/6 351/3/6 358/3/6
f 354/3/6 355/3/6 359/3/6
f 356/3/6 343/3/6 359/3/6
f 355/3/6 356/3/6 359/3/6
f 343/1/6 344/1/6 360/1/6
f 359/3/6 343/3/6 360/3/6
f 344/3/6 342/3/6 361/3/6
f 360/1/6 344/1/6 361/1/6
f 361/3/6 342/3/6 362/3/6
f 357/1/6 358/1/6 363/1/6
f 350/3/6 357/3/6 363/3/6
f 358/3/6 351/3/6 364/3/6
f 363/1/6 358/1/6 364/1/6
f 351/1/6 352/1/6 365/1/6
f 352/3/6 353/3/6 365/3/6
f 353/1/6 354/1/6 366/1/6
f 365/3/6 353/3/6 366/3/6
f 354/3/6 359/3/6 367/3/6
f 366/1/6 354/1/6 367/1/6
f 367/3/6 359/3/6 368/3/6
f 359/1/6 360/1/6 369/1/6
f 368/3/6 359/3/6 369/3/6
f 361/1/6 362/1/6 369/1/6
f 360/1/6 361/1/6 369/1/6
f 369/1/6 362/1/6 370/1/6
f 370/1/6 362/1/6 371/1/6
f 362/3/6 342/3/6 372/3/6
f 371/1/6 362/1/6 372/1/6
f 367/1/6 368/1/6 373/1/6
f 365/1/6 366/1/6 373/1/6
f 351/1/6 365/1/6 373/1/6
f 366/1/6 367/1/6 373/1/6
f 373/1/6 368/1/6 374/1/6
f 374/1/6 368/1/6 375/1/6
f 369/3/6 370/3/6 376/3/6
f 375/1/6 368/1/6 376/1/6
f 368/3/6 369/3/6 376/3/6
f 370/1/6 371/1/6 377/1/6
f 376/3/6 370/3/6 377/3/6
f 371/3/6 372/3/6 378/3/6
f 377/1/6 371/1/6 378/1/6
f 345/3/6 349/3/6 379/3/6
f 349/1/6 350/1/6 379/1/6
f 350/3/6 363/3/6 380/3/6
f 379/1/6 350/1/6 380/1/6
f 363/3/6 364/3/6 380/3/6
f 364/3/6 351/3/6 381/3/6
f 380/3/6 364/3/6 381/3/6
f 379/3/6 380/3/6 381/3/6
f 351/1/6 373/1/6 381/1/6
f 373/3/6 374/3/6 382/3/6
f 381/1/6 373/1/6 382/1/6
f 374/1/6 375/1/6 383/1/6
f 382/3/6 374/3/6 383/3/6
f 376/3/6 377/3/6 384/3/6
f 383/1/6 375/1/6 384/1/6
f 377/3/6 378/3/6 384/3/6
f 375/3/6 376/3/6 384/3/6
f 382/3/6 383/3/6 385/3/6
f 279/3/6 345/3/6 385/3/6
f 383/3/6 384/3/6 385/3/6
f 379/3/6 381/3/6 385/3/6
f 345/3/6 379/3/6 385/3/6
f 381/3/6 382/3/6 385/3/6
f 296/3/6 286/3/6 386/3/6
f 385/3/6 384/3/6 386/3/6
f 342/3/6 296/3/6 386/3/6
f 378/3/6 372/3/6 386/3/6
f 384/3/6 378/3/6 386/3/6
f 372/3/6 342/3/6 386/3/6
f 387/3/6 388/3/6 389/3/6
f 389/3/6 388/3/6 390/3/6
f 387/3/6 389/3/6 391/3/6
f 389/2/6 390/2/6 391/2/6
f 391/2/6 390/2/6 392/2/6
f 392/2/6 390/2/6 393/2/6
f 393/2/6 390/2/6 394/2/6
f 394/2/6 390/2/6 395/2/6
f 390/3/6 388/3/6 396/3/6
f 395/2/6 390/2/6 396/2/6
f 391/3/6 392/3/6 397/3/6
f 397/3/6 392/3/6 398/3/6
f 397/2/6 398/2/6 399/2/6
f 398/3/6 392/3/6 399/3/6
f 392/2/6 393/2/6 400/2/6
f 399/3/6 392/3/6 400/3/6
f 393/3/6 394/3/6 401/3/6
f 400/2/6 393/2/6 401/2/6
f 401/3/6 394/3/6 402/3/6
f 397/2/6 399/2/6 403/2/6
f 399/2/6 400/2/6 403/2/6
f 401/2/6 402/2/6 403/2/6
f 400/2/6 401/2/6 403/2/6
f 403/2/6 402/2/6 404/2/6
f 404/2/6 402/2/6 405/2/6
f 402/3/6 394/3/6 406/3/6
f 405/2/6 402/2/6 406/2/6
f 404/2/6 405/2/6 407/2/6
f 403/3/6 404/3/6 407/3/6
f 405/3/6 406/3/6 408/3/6
f 407/2/6 405/2/6 408/2/6
f 408/3/6 406/3/6 409/3/6
f 394/2/6 395/2/6 410/2/6
f 409/3/6 406/3/6 410/3/6
f 406/3/6 394/3/6 410/3/6
f 408/3/6 409/3/6 411/3/6
f 407/3/6 408/3/6 411/3/6
f 409/2/6 410/2/6 411/2/6
f 410/2/6 395/2/6 412/2/6
f 411/2/6 410/2/6 412/2/6
f 407/3/6 411/3/6 413/3/6
f 403/3/6 407/3/6 413/3/6
f 411/3/6 412/3/6 413/3/6
f 397/2/6 403/2/6 413/2/6
f 413/3/6 412/3/6 414/3/6
f 397/2/6 413/2/6 415/2/6
f 413/2/6 414/2/6 415/2/6
f 414/3/6 412/3/6 416/3/6
f 415/2/6 414/2/6 416/2/6
f 412/2/6 395/2/6 417/2/6
f 416/3/6 412/3/6 417/3/6
f 395/3/6 396/3/6 418/3/6
f 417/2/6 395/2/6 418/2/6
f 391/3/6 397/3/6 419/3/6
f 397/2/6 415/2/6 419/2/6
f 415/3/6 416/3/6 420/3/6
f 419/2/6 415/2/6 420/2/6
f 416/3/6 417/3/6 420/3/6
f 417/3/6 418/3/6 420/3/6
f 391/3/6 419/3/6 421/3/6
f 387/3/6 391/3/6 421/3/6
f 419/3/6 420/3/6 421/3/6
f 420/3/6 418/3/6 422/3/6
f 421/3/6 420/3/6 422/3/6
f 418/3/6 396/3/6 422/3/6
f 396/3/6 388/3/6 422/3/6
