# MagicaVoxel @ Ephtracy

# group
g 002_005_03

# material
mtllib 002_005_03.mtl
usemtl palette

# normals
vn -1 0 0
vn 1 0 0
vn 0 0 1
vn 0 0 -1
vn 0 -1 0
vn 0 1 0

# texcoords
vt 0.970703 0.5
vt 0.974609 0.5
vt 0.978516 0.5

# verts
v -16 0 16
v -16 0 -16
v -16 3 16
v -16 3 -6
v -16 3 -7
v -16 3 -16
v -16 4 -6
v -16 4 -7
v -13 3 13
v -13 3 12
v -13 4 13
v -13 4 12
v -12 3 -12
v -12 3 -13
v -12 4 -12
v -12 4 -13
v -9 3 5
v -9 3 4
v -9 4 5
v -9 4 4
v -8 3 4
v -8 3 3
v -8 4 4
v -8 4 3
v -7 3 16
v -7 3 15
v -7 4 16
v -7 4 15
v -6 3 8
v -6 3 7
v -6 3 -5
v -6 3 -7
v -6 4 8
v -6 4 7
v -6 4 -5
v -6 4 -7
v 0 3 10
v 0 3 9
v 0 3 -12
v 0 3 -13
v 0 4 10
v 0 4 9
v 0 4 -12
v 0 4 -13
v 2 3 3
v 2 3 2
v 2 4 3
v 2 4 2
v 4 3 -5
v 4 3 -6
v 4 4 -5
v 4 4 -6
v 8 3 4
v 8 3 2
v 8 4 4
v 8 4 2
v 9 3 10
v 9 3 9
v 9 3 -2
v 9 3 -3
v 9 4 10
v 9 4 9
v 9 4 -2
v 9 4 -3
v 10 3 -10
v 10 3 -11
v 10 4 -10
v 10 4 -11
v 12 3 15
v 12 3 14
v 12 4 15
v 12 4 14
v 14 3 -1
v 14 3 -3
v 14 4 -1
v 14 4 -3
v 15 3 -13
v 15 3 -14
v 15 4 -13
v 15 4 -14
v -15 3 -6
v -15 3 -7
v -15 4 -6
v -15 4 -7
v -12 3 13
v -12 3 12
v -12 4 13
v -12 4 12
v -11 3 -12
v -11 3 -13
v -11 4 -12
v -11 4 -13
v -8 3 5
v -8 3 4
v -8 4 5
v -8 4 4
v -7 3 4
v -7 3 3
v -7 4 4
v -7 4 3
v -6 3 16
v -6 3 15
v -6 4 16
v -6 4 15
v -5 3 8
v -5 3 7
v -5 3 -5
v -5 3 -7
v -5 4 8
v -5 4 7
v -5 4 -5
v -5 4 -7
v 1 3 10
v 1 3 9
v 1 3 -12
v 1 3 -13
v 1 4 10
v 1 4 9
v 1 4 -12
v 1 4 -13
v 3 3 3
v 3 3 2
v 3 4 3
v 3 4 2
v 5 3 -5
v 5 3 -6
v 5 4 -5
v 5 4 -6
v 9 3 4
v 9 3 2
v 9 4 4
v 9 4 2
v 10 3 10
v 10 3 9
v 10 3 -2
v 10 3 -3
v 10 4 10
v 10 4 9
v 10 4 -2
v 10 4 -3
v 11 3 -10
v 11 3 -11
v 11 4 -10
v 11 4 -11
v 13 3 15
v 13 3 14
v 13 4 15
v 13 4 14
v 15 3 -2
v 15 3 -3
v 15 4 -2
v 15 4 -3
v 16 0 16
v 16 0 -16
v 16 3 16
v 16 3 -1
v 16 3 -2
v 16 3 -13
v 16 3 -14
v 16 3 -16
v 16 4 -1
v 16 4 -2
v 16 4 -13
v 16 4 -14
v -16 0 16
v -16 3 16
v -7 3 16
v -7 4 16
v -6 3 16
v -6 4 16
v 16 0 16
v 16 3 16
v 12 3 15
v 12 4 15
v 13 3 15
v 13 4 15
v -13 3 13
v -13 4 13
v -12 3 13
v -12 4 13
v 0 3 10
v 0 4 10
v 1 3 10
v 1 4 10
v 9 3 10
v 9 4 10
v 10 3 10
v 10 4 10
v -6 3 8
v -6 4 8
v -5 3 8
v -5 4 8
v -9 3 5
v -9 4 5
v -8 3 5
v -8 4 5
v -8 3 4
v -8 4 4
v -7 3 4
v -7 4 4
v 8 3 4
v 8 4 4
v 9 3 4
v 9 4 4
v 2 3 3
v 2 4 3
v 3 3 3
v 3 4 3
v 14 3 -1
v 14 4 -1
v 16 3 -1
v 16 4 -1
v 9 3 -2
v 9 4 -2
v 10 3 -2
v 10 4 -2
v -6 3 -5
v -6 4 -5
v -5 3 -5
v -5 4 -5
v 4 3 -5
v 4 4 -5
v 5 3 -5
v 5 4 -5
v -16 3 -6
v -16 4 -6
v -15 3 -6
v -15 4 -6
v 10 3 -10
v 10 4 -10
v 11 3 -10
v 11 4 -10
v -12 3 -12
v -12 4 -12
v -11 3 -12
v -11 4 -12
v 0 3 -12
v 0 4 -12
v 1 3 -12
v 1 4 -12
v 15 3 -13
v 15 4 -13
v 16 3 -13
v 16 4 -13
v -7 3 15
v -7 4 15
v -6 3 15
v -6 4 15
v 12 3 14
v 12 4 14
v 13 3 14
v 13 4 14
v -13 3 12
v -13 4 12
v -12 3 12
v -12 4 12
v 0 3 9
v 0 4 9
v 1 3 9
v 1 4 9
v 9 3 9
v 9 4 9
v 10 3 9
v 10 4 9
v -6 3 7
v -6 4 7
v -5 3 7
v -5 4 7
v -9 3 4
v -9 4 4
v -8 3 4
v -8 4 4
v -8 3 3
v -8 4 3
v -7 3 3
v -7 4 3
v 2 3 2
v 2 4 2
v 3 3 2
v 3 4 2
v 8 3 2
v 8 4 2
v 9 3 2
v 9 4 2
v 15 3 -2
v 15 4 -2
v 16 3 -2
v 16 4 -2
v 9 3 -3
v 9 4 -3
v 10 3 -3
v 10 4 -3
v 14 3 -3
v 14 4 -3
v 15 3 -3
v 15 4 -3
v 4 3 -6
v 4 4 -6
v 5 3 -6
v 5 4 -6
v -16 3 -7
v -16 4 -7
v -15 3 -7
v -15 4 -7
v -6 3 -7
v -6 4 -7
v -5 3 -7
v -5 4 -7
v 10 3 -11
v 10 4 -11
v 11 3 -11
v 11 4 -11
v -12 3 -13
v -12 4 -13
v -11 3 -13
v -11 4 -13
v 0 3 -13
v 0 4 -13
v 1 3 -13
v 1 4 -13
v 15 3 -14
v 15 4 -14
v 16 3 -14
v 16 4 -14
v -16 0 -16
v -16 3 -16
v 16 0 -16
v 16 3 -16
v -16 0 16
v 16 0 16
v -16 0 -16
v 16 0 -16
v -16 3 16
v -7 3 16
v -6 3 16
v 16 3 16
v -7 3 15
v -6 3 15
v 12 3 15
v 13 3 15
v 12 3 14
v 13 3 14
v -13 3 13
v -12 3 13
v -13 3 12
v -12 3 12
v 0 3 10
v 1 3 10
v 9 3 10
v 10 3 10
v 0 3 9
v 1 3 9
v 3 3 9
v 4 3 9
v 9 3 9
v 10 3 9
v -6 3 8
v -5 3 8
v 3 3 8
v 4 3 8
v -6 3 7
v -5 3 7
v 14 3 7
v 15 3 7
v 14 3 6
v 15 3 6
v -9 3 5
v -8 3 5
v -9 3 4
v -8 3 4
v -7 3 4
v 8 3 4
v 9 3 4
v -8 3 3
v -7 3 3
v -1 3 3
v 0 3 3
v 2 3 3
v 3 3 3
v -1 3 2
v 0 3 2
v 2 3 2
v 3 3 2
v 8 3 2
v 9 3 2
v -12 3 -1
v -11 3 -1
v 14 3 -1
v 16 3 -1
v -12 3 -2
v -11 3 -2
v -3 3 -2
v -2 3 -2
v 9 3 -2
v 10 3 -2
v 15 3 -2
v 16 3 -2
v -3 3 -3
v -2 3 -3
v 9 3 -3
v 10 3 -3
v 14 3 -3
v 15 3 -3
v -6 3 -5
v -5 3 -5
v 4 3 -5
v 5 3 -5
v -16 3 -6
v -15 3 -6
v 4 3 -6
v 5 3 -6
v -16 3 -7
v -15 3 -7
v -6 3 -7
v -5 3 -7
v 13 3 -7
v 14 3 -7
v 0 3 -8
v 1 3 -8
v 13 3 -8
v 14 3 -8
v 0 3 -9
v 1 3 -9
v 10 3 -10
v 11 3 -10
v -6 3 -11
v -5 3 -11
v 10 3 -11
v 11 3 -11
v -12 3 -12
v -11 3 -12
v -6 3 -12
v -5 3 -12
v 0 3 -12
v 1 3 -12
v -12 3 -13
v -11 3 -13
v 0 3 -13
v 1 3 -13
v 15 3 -13
v 16 3 -13
v 15 3 -14
v 16 3 -14
v -16 3 -16
v 16 3 -16
v -7 4 16
v -6 4 16
v -7 4 15
v -6 4 15
v 12 4 15
v 13 4 15
v 12 4 14
v 13 4 14
v -13 4 13
v -12 4 13
v -13 4 12
v -12 4 12
v 0 4 10
v 1 4 10
v 9 4 10
v 10 4 10
v 0 4 9
v 1 4 9
v 9 4 9
v 10 4 9
v -6 4 8
v -5 4 8
v -6 4 7
v -5 4 7
v -9 4 5
v -8 4 5
v -9 4 4
v -8 4 4
v -7 4 4
v 8 4 4
v 9 4 4
v -8 4 3
v -7 4 3
v 2 4 3
v 3 4 3
v 2 4 2
v 3 4 2
v 8 4 2
v 9 4 2
v 14 4 -1
v 16 4 -1
v 9 4 -2
v 10 4 -2
v 15 4 -2
v 16 4 -2
v 9 4 -3
v 10 4 -3
v 14 4 -3
v 15 4 -3
v -6 4 -5
v -5 4 -5
v 4 4 -5
v 5 4 -5
v -16 4 -6
v -15 4 -6
v 4 4 -6
v 5 4 -6
v -16 4 -7
v -15 4 -7
v -6 4 -7
v -5 4 -7
v 10 4 -10
v 11 4 -10
v 10 4 -11
v 11 4 -11
v -12 4 -12
v -11 4 -12
v 0 4 -12
v 1 4 -12
v -12 4 -13
v -11 4 -13
v 0 4 -13
v 1 4 -13
v 15 4 -13
v 16 4 -13
v 15 4 -14
v 16 4 -14

# faces
f 3/1/1 2/1/1 1/1/1
f 4/1/1 2/1/1 3/1/1
f 5/1/1 2/1/1 4/1/1
f 6/1/1 2/1/1 5/1/1
f 7/2/1 5/2/1 4/2/1
f 8/2/1 5/2/1 7/2/1
f 11/2/1 10/2/1 9/2/1
f 12/2/1 10/2/1 11/2/1
f 15/2/1 14/2/1 13/2/1
f 16/2/1 14/2/1 15/2/1
f 19/2/1 18/2/1 17/2/1
f 20/2/1 18/2/1 19/2/1
f 23/2/1 22/2/1 21/2/1
f 24/2/1 22/2/1 23/2/1
f 27/2/1 26/2/1 25/2/1
f 28/2/1 26/2/1 27/2/1
f 33/2/1 30/2/1 29/2/1
f 34/2/1 30/2/1 33/2/1
f 35/2/1 32/2/1 31/2/1
f 36/2/1 32/2/1 35/2/1
f 41/2/1 38/2/1 37/2/1
f 42/2/1 38/2/1 41/2/1
f 43/2/1 40/2/1 39/2/1
f 44/2/1 40/2/1 43/2/1
f 47/2/1 46/2/1 45/2/1
f 48/2/1 46/2/1 47/2/1
f 51/2/1 50/2/1 49/2/1
f 52/2/1 50/2/1 51/2/1
f 55/2/1 54/2/1 53/2/1
f 56/2/1 54/2/1 55/2/1
f 61/2/1 58/2/1 57/2/1
f 62/2/1 58/2/1 61/2/1
f 63/2/1 60/2/1 59/2/1
f 64/2/1 60/2/1 63/2/1
f 67/2/1 66/2/1 65/2/1
f 68/2/1 66/2/1 67/2/1
f 71/2/1 70/2/1 69/2/1
f 72/2/1 70/2/1 71/2/1
f 75/2/1 74/2/1 73/2/1
f 76/2/1 74/2/1 75/2/1
f 79/2/1 78/2/1 77/2/1
f 80/2/1 78/2/1 79/2/1
f 81/2/2 82/2/2 83/2/2
f 83/2/2 82/2/2 84/2/2
f 85/2/2 86/2/2 87/2/2
f 87/2/2 86/2/2 88/2/2
f 89/2/2 90/2/2 91/2/2
f 91/2/2 90/2/2 92/2/2
f 93/2/2 94/2/2 95/2/2
f 95/2/2 94/2/2 96/2/2
f 97/2/2 98/2/2 99/2/2
f 99/2/2 98/2/2 100/2/2
f 101/2/2 102/2/2 103/2/2
f 103/2/2 102/2/2 104/2/2
f 105/2/2 106/2/2 109/2/2
f 109/2/2 106/2/2 110/2/2
f 107/2/2 108/2/2 111/2/2
f 111/2/2 108/2/2 112/2/2
f 113/2/2 114/2/2 117/2/2
f 117/2/2 114/2/2 118/2/2
f 115/2/2 116/2/2 119/2/2
f 119/2/2 116/2/2 120/2/2
f 121/2/2 122/2/2 123/2/2
f 123/2/2 122/2/2 124/2/2
f 125/2/2 126/2/2 127/2/2
f 127/2/2 126/2/2 128/2/2
f 129/2/2 130/2/2 131/2/2
f 131/2/2 130/2/2 132/2/2
f 133/2/2 134/2/2 137/2/2
f 137/2/2 134/2/2 138/2/2
f 135/2/2 136/2/2 139/2/2
f 139/2/2 136/2/2 140/2/2
f 141/2/2 142/2/2 143/2/2
f 143/2/2 142/2/2 144/2/2
f 145/2/2 146/2/2 147/2/2
f 147/2/2 146/2/2 148/2/2
f 149/2/2 150/2/2 151/2/2
f 151/2/2 150/2/2 152/2/2
f 153/1/2 154/1/2 155/1/2
f 155/1/2 154/1/2 156/1/2
f 156/1/2 154/1/2 157/1/2
f 157/1/2 154/1/2 158/1/2
f 158/1/2 154/1/2 159/1/2
f 159/1/2 154/1/2 160/1/2
f 156/2/2 157/2/2 161/2/2
f 161/2/2 157/2/2 162/2/2
f 158/2/2 159/2/2 163/2/2
f 163/2/2 159/2/2 164/2/2
f 167/1/3 166/1/3 165/1/3
f 169/1/3 167/1/3 165/1/3
f 169/2/3 168/2/3 167/2/3
f 170/2/3 168/2/3 169/2/3
f 171/1/3 169/1/3 165/1/3
f 172/1/3 169/1/3 171/1/3
f 175/2/3 174/2/3 173/2/3
f 176/2/3 174/2/3 175/2/3
f 179/2/3 178/2/3 177/2/3
f 180/2/3 178/2/3 179/2/3
f 183/2/3 182/2/3 181/2/3
f 184/2/3 182/2/3 183/2/3
f 187/2/3 186/2/3 185/2/3
f 188/2/3 186/2/3 187/2/3
f 191/2/3 190/2/3 189/2/3
f 192/2/3 190/2/3 191/2/3
f 195/2/3 194/2/3 193/2/3
f 196/2/3 194/2/3 195/2/3
f 199/2/3 198/2/3 197/2/3
f 200/2/3 198/2/3 199/2/3
f 203/2/3 202/2/3 201/2/3
f 204/2/3 202/2/3 203/2/3
f 207/2/3 206/2/3 205/2/3
f 208/2/3 206/2/3 207/2/3
f 211/2/3 210/2/3 209/2/3
f 212/2/3 210/2/3 211/2/3
f 215/2/3 214/2/3 213/2/3
f 216/2/3 214/2/3 215/2/3
f 219/2/3 218/2/3 217/2/3
f 220/2/3 218/2/3 219/2/3
f 223/2/3 222/2/3 221/2/3
f 224/2/3 222/2/3 223/2/3
f 227/2/3 226/2/3 225/2/3
f 228/2/3 226/2/3 227/2/3
f 231/2/3 230/2/3 229/2/3
f 232/2/3 230/2/3 231/2/3
f 235/2/3 234/2/3 233/2/3
f 236/2/3 234/2/3 235/2/3
f 239/2/3 238/2/3 237/2/3
f 240/2/3 238/2/3 239/2/3
f 243/2/3 242/2/3 241/2/3
f 244/2/3 242/2/3 243/2/3
f 245/2/4 246/2/4 247/2/4
f 247/2/4 246/2/4 248/2/4
f 249/2/4 250/2/4 251/2/4
f 251/2/4 250/2/4 252/2/4
f 253/2/4 254/2/4 255/2/4
f 255/2/4 254/2/4 256/2/4
f 257/2/4 258/2/4 259/2/4
f 259/2/4 258/2/4 260/2/4
f 261/2/4 262/2/4 263/2/4
f 263/2/4 262/2/4 264/2/4
f 265/2/4 266/2/4 267/2/4
f 267/2/4 266/2/4 268/2/4
f 269/2/4 270/2/4 271/2/4
f 271/2/4 270/2/4 272/2/4
f 273/2/4 274/2/4 275/2/4
f 275/2/4 274/2/4 276/2/4
f 277/2/4 278/2/4 279/2/4
f 279/2/4 278/2/4 280/2/4
f 281/2/4 282/2/4 283/2/4
f 283/2/4 282/2/4 284/2/4
f 285/2/4 286/2/4 287/2/4
f 287/2/4 286/2/4 288/2/4
f 289/2/4 290/2/4 291/2/4
f 291/2/4 290/2/4 292/2/4
f 293/2/4 294/2/4 295/2/4
f 295/2/4 294/2/4 296/2/4
f 297/2/4 298/2/4 299/2/4
f 299/2/4 298/2/4 300/2/4
f 301/2/4 302/2/4 303/2/4
f 303/2/4 302/2/4 304/2/4
f 305/2/4 306/2/4 307/2/4
f 307/2/4 306/2/4 308/2/4
f 309/2/4 310/2/4 311/2/4
f 311/2/4 310/2/4 312/2/4
f 313/2/4 314/2/4 315/2/4
f 315/2/4 314/2/4 316/2/4
f 317/2/4 318/2/4 319/2/4
f 319/2/4 318/2/4 320/2/4
f 321/2/4 322/2/4 323/2/4
f 323/2/4 322/2/4 324/2/4
f 325/1/4 326/1/4 327/1/4
f 327/1/4 326/1/4 328/1/4
f 331/1/5 330/1/5 329/1/5
f 332/1/5 330/1/5 331/1/5
f 333/1/6 334/1/6 337/1/6
f 335/1/6 336/1/6 338/1/6
f 338/1/6 336/1/6 339/1/6
f 339/1/6 336/1/6 340/1/6
f 337/1/6 338/1/6 341/1/6
f 338/1/6 339/1/6 341/1/6
f 340/1/6 336/1/6 342/1/6
f 333/1/6 337/1/6 343/1/6
f 341/1/6 342/1/6 343/1/6
f 337/1/6 341/1/6 343/1/6
f 343/1/6 342/1/6 344/1/6
f 333/1/6 343/1/6 345/1/6
f 344/1/6 342/1/6 346/1/6
f 346/1/6 342/1/6 347/1/6
f 345/1/6 346/1/6 347/1/6
f 347/1/6 342/1/6 348/1/6
f 348/1/6 342/1/6 349/1/6
f 349/1/6 342/1/6 350/1/6
f 345/1/6 347/1/6 351/1/6
f 348/1/6 349/1/6 352/1/6
f 352/1/6 349/1/6 353/1/6
f 353/1/6 349/1/6 354/1/6
f 354/1/6 349/1/6 355/1/6
f 350/1/6 342/1/6 356/1/6
f 345/1/6 351/1/6 357/1/6
f 351/1/6 352/1/6 357/1/6
f 352/1/6 353/1/6 357/1/6
f 357/1/6 353/1/6 358/1/6
f 353/3/6 354/3/6 359/3/6
f 358/1/6 353/1/6 359/1/6
f 354/1/6 355/1/6 360/1/6
f 359/3/6 354/3/6 360/3/6
f 355/1/6 356/1/6 360/1/6
f 345/1/6 357/1/6 361/1/6
f 358/1/6 359/1/6 362/1/6
f 359/1/6 360/1/6 362/1/6
f 342/1/6 336/1/6 363/1/6
f 360/1/6 356/1/6 363/1/6
f 362/1/6 360/1/6 363/1/6
f 356/1/6 342/1/6 363/1/6
f 363/1/6 336/1/6 364/1/6
f 361/1/6 362/1/6 365/1/6
f 362/1/6 363/1/6 365/1/6
f 363/3/6 364/3/6 365/3/6
f 364/1/6 336/1/6 366/1/6
f 365/3/6 364/3/6 366/3/6
f 361/1/6 365/1/6 367/1/6
f 345/1/6 361/1/6 367/1/6
f 365/1/6 366/1/6 367/1/6
f 367/1/6 366/1/6 368/1/6
f 345/1/6 367/1/6 369/1/6
f 368/1/6 366/1/6 370/1/6
f 370/1/6 366/1/6 371/1/6
f 371/1/6 366/1/6 372/1/6
f 372/1/6 366/1/6 373/1/6
f 369/1/6 370/1/6 374/1/6
f 371/1/6 372/1/6 375/1/6
f 375/1/6 372/1/6 376/1/6
f 376/1/6 372/1/6 377/1/6
f 377/1/6 372/1/6 378/1/6
f 378/1/6 372/1/6 379/1/6
f 374/1/6 375/1/6 380/1/6
f 375/1/6 376/1/6 380/1/6
f 376/3/6 377/3/6 380/3/6
f 377/1/6 378/1/6 381/1/6
f 380/3/6 377/3/6 381/3/6
f 381/1/6 378/1/6 382/1/6
f 379/1/6 372/1/6 383/1/6
f 383/1/6 372/1/6 384/1/6
f 373/1/6 366/1/6 385/1/6
f 345/1/6 369/1/6 386/1/6
f 384/1/6 385/1/6 386/1/6
f 383/1/6 384/1/6 386/1/6
f 369/1/6 374/1/6 386/1/6
f 382/1/6 383/1/6 386/1/6
f 381/1/6 382/1/6 386/1/6
f 380/1/6 381/1/6 386/1/6
f 374/1/6 380/1/6 386/1/6
f 386/1/6 385/1/6 387/1/6
f 385/1/6 366/1/6 388/1/6
f 387/1/6 385/1/6 388/1/6
f 366/1/6 336/1/6 389/1/6
f 388/1/6 366/1/6 389/1/6
f 386/3/6 387/3/6 390/3/6
f 345/1/6 386/1/6 390/1/6
f 387/1/6 388/1/6 391/1/6
f 390/3/6 387/3/6 391/3/6
f 391/1/6 388/1/6 392/1/6
f 392/1/6 388/1/6 393/1/6
f 393/1/6 388/1/6 394/1/6
f 394/1/6 388/1/6 395/1/6
f 390/1/6 391/1/6 398/1/6
f 391/1/6 392/1/6 398/1/6
f 392/3/6 393/3/6 398/3/6
f 393/1/6 394/1/6 399/1/6
f 398/3/6 393/3/6 399/3/6
f 399/1/6 394/1/6 400/1/6
f 395/1/6 388/1/6 401/1/6
f 401/1/6 388/1/6 402/1/6
f 396/1/6 397/1/6 403/1/6
f 401/1/6 402/1/6 404/1/6
f 402/1/6 403/1/6 404/1/6
f 399/1/6 400/1/6 404/1/6
f 390/1/6 398/1/6 404/1/6
f 400/1/6 401/1/6 404/1/6
f 398/1/6 399/1/6 404/1/6
f 404/1/6 403/1/6 405/1/6
f 405/1/6 403/1/6 406/1/6
f 406/1/6 403/1/6 407/1/6
f 345/1/6 390/1/6 408/1/6
f 333/1/6 345/1/6 408/1/6
f 390/1/6 404/1/6 408/1/6
f 408/1/6 404/1/6 409/1/6
f 405/1/6 406/1/6 410/1/6
f 407/1/6 403/1/6 411/1/6
f 409/1/6 404/1/6 413/1/6
f 413/1/6 404/1/6 414/1/6
f 405/1/6 410/1/6 415/1/6
f 410/1/6 411/1/6 415/1/6
f 411/1/6 403/1/6 416/1/6
f 415/1/6 411/1/6 416/1/6
f 416/1/6 403/1/6 417/1/6
f 413/1/6 414/1/6 418/1/6
f 414/1/6 415/1/6 418/1/6
f 412/1/6 413/1/6 418/1/6
f 415/1/6 416/1/6 418/1/6
f 418/1/6 416/1/6 419/1/6
f 416/3/6 417/3/6 420/3/6
f 419/1/6 416/1/6 420/1/6
f 417/1/6 403/1/6 421/1/6
f 420/3/6 417/3/6 421/3/6
f 418/3/6 419/3/6 422/3/6
f 412/1/6 418/1/6 422/1/6
f 419/1/6 420/1/6 423/1/6
f 422/3/6 419/3/6 423/3/6
f 420/1/6 421/1/6 423/1/6
f 422/1/6 423/1/6 424/1/6
f 423/1/6 421/1/6 424/1/6
f 424/1/6 421/1/6 425/1/6
f 412/1/6 422/1/6 426/1/6
f 422/1/6 424/1/6 426/1/6
f 426/1/6 424/1/6 427/1/6
f 427/1/6 424/1/6 428/1/6
f 425/1/6 421/1/6 429/1/6
f 412/1/6 426/1/6 430/1/6
f 430/1/6 426/1/6 431/1/6
f 426/3/6 427/3/6 432/3/6
f 431/1/6 426/1/6 432/1/6
f 427/1/6 428/1/6 433/1/6
f 432/3/6 427/3/6 433/3/6
f 428/1/6 429/1/6 433/1/6
f 433/1/6 429/1/6 434/1/6
f 434/1/6 429/1/6 435/1/6
f 412/1/6 430/1/6 436/1/6
f 431/1/6 432/1/6 437/1/6
f 433/1/6 434/1/6 437/1/6
f 432/1/6 433/1/6 437/1/6
f 437/1/6 434/1/6 438/1/6
f 435/1/6 429/1/6 439/1/6
f 421/1/6 403/1/6 440/1/6
f 403/1/6 397/1/6 440/1/6
f 439/1/6 429/1/6 440/1/6
f 429/1/6 421/1/6 440/1/6
f 440/1/6 397/1/6 441/1/6
f 438/1/6 439/1/6 442/1/6
f 437/1/6 438/1/6 442/1/6
f 439/1/6 440/1/6 442/1/6
f 436/1/6 437/1/6 442/1/6
f 412/1/6 436/1/6 444/1/6
f 442/1/6 443/1/6 444/1/6
f 436/1/6 442/1/6 444/1/6
f 444/1/6 443/1/6 445/1/6
f 446/2/6 447/2/6 448/2/6
f 448/2/6 447/2/6 449/2/6
f 450/2/6 451/2/6 452/2/6
f 452/2/6 451/2/6 453/2/6
f 454/2/6 455/2/6 456/2/6
f 456/2/6 455/2/6 457/2/6
f 458/2/6 459/2/6 462/2/6
f 462/2/6 459/2/6 463/2/6
f 460/2/6 461/2/6 464/2/6
f 464/2/6 461/2/6 465/2/6
f 466/2/6 467/2/6 468/2/6
f 468/2/6 467/2/6 469/2/6
f 470/2/6 471/2/6 472/2/6
f 472/2/6 471/2/6 473/2/6
f 473/2/6 474/2/6 477/2/6
f 477/2/6 474/2/6 478/2/6
f 479/2/6 480/2/6 481/2/6
f 481/2/6 480/2/6 482/2/6
f 475/2/6 476/2/6 483/2/6
f 483/2/6 476/2/6 484/2/6
f 485/2/6 486/2/6 489/2/6
f 489/2/6 486/2/6 490/2/6
f 487/2/6 488/2/6 491/2/6
f 491/2/6 488/2/6 492/2/6
f 485/2/6 489/2/6 493/2/6
f 493/2/6 489/2/6 494/2/6
f 497/2/6 498/2/6 501/2/6
f 501/2/6 498/2/6 502/2/6
f 499/2/6 500/2/6 503/2/6
f 503/2/6 500/2/6 504/2/6
f 495/2/6 496/2/6 505/2/6
f 505/2/6 496/2/6 506/2/6
f 507/2/6 508/2/6 509/2/6
f 509/2/6 508/2/6 510/2/6
f 511/2/6 512/2/6 515/2/6
f 515/2/6 512/2/6 516/2/6
f 513/2/6 514/2/6 517/2/6
f 517/2/6 514/2/6 518/2/6
f 519/2/6 520/2/6 521/2/6
f 521/2/6 520/2/6 522/2/6
