# MagicaVoxel @ Ephtracy

# group
g 002_005_03

# material
mtllib 002_005_03.mtl
usemtl palette

# normals
vn -1 0 0
vn 1 0 0
vn 0 0 1
vn 0 0 -1
vn 0 -1 0
vn 0 1 0

# texcoords
vt 0.876953 0.5
vt 0.908203 0.5
vt 0.939453 0.5
vt 0.970703 0.5
vt 0.974609 0.5
vt 0.978516 0.5

# verts
v -16 0 16
v -16 0 -16
v -16 3 16
v -16 3 -2
v -16 3 -4
v -16 3 -16
v -16 4 -2
v -16 4 -4
v -16 5 -10
v -16 5 -11
v -16 6 16
v -16 6 -10
v -16 6 -11
v -16 6 -16
v -15 6 8
v -15 6 7
v -15 7 8
v -15 7 7
v -11 6 16
v -11 6 15
v -11 6 -15
v -11 6 -16
v -11 7 16
v -11 7 15
v -11 7 -15
v -11 7 -16
v -10 6 11
v -10 6 10
v -10 6 -9
v -10 6 -10
v -10 7 11
v -10 7 10
v -10 7 3
v -10 7 2
v -10 7 -9
v -10 7 -10
v -10 8 3
v -10 8 2
v -9 6 3
v -9 6 2
v -9 7 4
v -9 7 3
v -9 7 2
v -9 7 1
v -9 8 4
v -9 8 3
v -9 8 2
v -9 8 1
v -9 9 3
v -9 9 2
v -7 6 -4
v -7 6 -5
v -7 7 -4
v -7 7 -5
v -5 6 12
v -5 6 10
v -5 7 12
v -5 7 10
v -4 6 -0
v -4 6 -1
v -4 7 -0
v -4 7 -1
v -3 6 7
v -3 6 6
v -3 7 7
v -3 7 6
v 0 6 -6
v 0 6 -7
v 0 7 -6
v 0 7 -7
v 1 6 1
v 1 6 -0
v 1 7 1
v 1 7 -0
v 4 6 -14
v 4 6 -15
v 4 7 -14
v 4 7 -15
v 4 8 -14
v 4 8 -15
v 4 9 -14
v 4 9 -15
v 5 6 -15
v 5 6 -16
v 5 7 -14
v 5 7 -15
v 5 7 -16
v 5 8 -13
v 5 8 -14
v 5 8 -15
v 5 8 -16
v 5 9 -13
v 5 9 -14
v 5 9 -15
v 5 9 -16
v 5 10 -14
v 5 10 -15
v 6 6 -3
v 6 6 -4
v 6 7 -3
v 6 7 -4
v 7 6 8
v 7 6 6
v 7 6 -11
v 7 6 -12
v 7 7 8
v 7 7 6
v 7 7 -11
v 7 7 -12
v 13 6 1
v 13 6 -0
v 13 6 -9
v 13 6 -10
v 13 7 1
v 13 7 -0
v 13 7 -9
v 13 7 -10
v 15 6 16
v 15 6 15
v 15 7 16
v 15 7 15
v -14 6 8
v -14 6 7
v -14 7 8
v -14 7 7
v -10 6 16
v -10 6 15
v -10 6 -15
v -10 6 -16
v -10 7 16
v -10 7 15
v -10 7 -15
v -10 7 -16
v -9 6 11
v -9 6 10
v -9 6 -9
v -9 6 -10
v -9 7 11
v -9 7 10
v -9 7 -9
v -9 7 -10
v -8 6 3
v -8 6 2
v -8 7 4
v -8 7 3
v -8 7 2
v -8 7 1
v -8 8 4
v -8 8 3
v -8 8 2
v -8 8 1
v -8 9 3
v -8 9 2
v -7 7 3
v -7 7 2
v -7 8 3
v -7 8 2
v -6 6 -4
v -6 6 -5
v -6 7 -4
v -6 7 -5
v -4 6 11
v -4 6 10
v -4 7 11
v -4 7 10
v -3 6 12
v -3 6 11
v -3 6 -0
v -3 6 -1
v -3 7 12
v -3 7 11
v -3 7 -0
v -3 7 -1
v -2 6 7
v -2 6 6
v -2 7 7
v -2 7 6
v 1 6 -6
v 1 6 -7
v 1 7 -6
v 1 7 -7
v 2 6 1
v 2 6 -0
v 2 7 1
v 2 7 -0
v 6 6 -14
v 6 6 -16
v 6 7 -15
v 6 7 -16
v 6 8 -13
v 6 8 -14
v 6 8 -15
v 6 8 -16
v 6 9 -13
v 6 9 -14
v 6 9 -15
v 6 9 -16
v 6 10 -14
v 6 10 -15
v 7 6 -3
v 7 6 -4
v 7 7 -3
v 7 7 -4
v 7 8 -14
v 7 8 -15
v 7 9 -14
v 7 9 -15
v 8 6 8
v 8 6 6
v 8 6 -11
v 8 6 -12
v 8 7 8
v 8 7 6
v 8 7 -11
v 8 7 -12
v 14 6 1
v 14 6 -0
v 14 6 -9
v 14 6 -10
v 14 7 1
v 14 7 -0
v 14 7 -9
v 14 7 -10
v 16 0 16
v 16 0 -16
v 16 3 16
v 16 3 -2
v 16 3 -4
v 16 3 -16
v 16 4 -2
v 16 4 -4
v 16 6 16
v 16 6 15
v 16 6 -16
v 16 7 16
v 16 7 15
v -16 0 16
v -16 3 16
v -16 6 16
v -11 6 16
v -11 7 16
v -10 6 16
v -10 7 16
v -4 2 16
v -4 3 16
v -3 2 16
v -3 4 16
v -2 3 16
v -2 4 16
v 12 5 16
v 12 6 16
v 13 5 16
v 13 6 16
v 15 6 16
v 15 7 16
v 16 0 16
v 16 3 16
v 16 6 16
v 16 7 16
v -5 6 12
v -5 7 12
v -3 6 12
v -3 7 12
v -10 6 11
v -10 7 11
v -9 6 11
v -9 7 11
v -15 6 8
v -15 7 8
v -14 6 8
v -14 7 8
v 7 6 8
v 7 7 8
v 8 6 8
v 8 7 8
v -3 6 7
v -3 7 7
v -2 6 7
v -2 7 7
v -9 7 4
v -9 8 4
v -8 7 4
v -8 8 4
v -10 7 3
v -10 8 3
v -9 6 3
v -9 7 3
v -9 8 3
v -9 9 3
v -8 6 3
v -8 7 3
v -8 8 3
v -8 9 3
v -7 7 3
v -7 8 3
v 1 6 1
v 1 7 1
v 2 6 1
v 2 7 1
v 13 6 1
v 13 7 1
v 14 6 1
v 14 7 1
v -4 6 -0
v -4 7 -0
v -3 6 -0
v -3 7 -0
v 6 6 -3
v 6 7 -3
v 7 6 -3
v 7 7 -3
v -7 6 -4
v -7 7 -4
v -6 6 -4
v -6 7 -4
v 0 6 -6
v 0 7 -6
v 1 6 -6
v 1 7 -6
v -10 6 -9
v -10 7 -9
v -9 6 -9
v -9 7 -9
v 13 6 -9
v 13 7 -9
v 14 6 -9
v 14 7 -9
v 7 6 -11
v 7 7 -11
v 8 6 -11
v 8 7 -11
v 5 8 -13
v 5 9 -13
v 6 8 -13
v 6 9 -13
v 4 6 -14
v 4 7 -14
v 4 8 -14
v 4 9 -14
v 5 7 -14
v 5 8 -14
v 5 9 -14
v 5 10 -14
v 6 6 -14
v 6 8 -14
v 6 9 -14
v 6 10 -14
v 7 8 -14
v 7 9 -14
v -11 6 -15
v -11 7 -15
v -10 6 -15
v -10 7 -15
v -11 6 15
v -11 7 15
v -10 6 15
v -10 7 15
v 15 6 15
v 15 7 15
v 16 6 15
v 16 7 15
v -4 6 11
v -4 7 11
v -3 6 11
v -3 7 11
v -10 6 10
v -10 7 10
v -9 6 10
v -9 7 10
v -5 6 10
v -5 7 10
v -4 6 10
v -4 7 10
v -15 6 7
v -15 7 7
v -14 6 7
v -14 7 7
v -3 6 6
v -3 7 6
v -2 6 6
v -2 7 6
v 7 6 6
v 7 7 6
v 8 6 6
v 8 7 6
v -10 7 2
v -10 8 2
v -9 6 2
v -9 7 2
v -9 8 2
v -9 9 2
v -8 6 2
v -8 7 2
v -8 8 2
v -8 9 2
v -7 7 2
v -7 8 2
v -9 7 1
v -9 8 1
v -8 7 1
v -8 8 1
v 1 6 -0
v 1 7 -0
v 2 6 -0
v 2 7 -0
v 13 6 -0
v 13 7 -0
v 14 6 -0
v 14 7 -0
v -4 6 -1
v -4 7 -1
v -3 6 -1
v -3 7 -1
v 6 6 -4
v 6 7 -4
v 7 6 -4
v 7 7 -4
v -7 6 -5
v -7 7 -5
v -6 6 -5
v -6 7 -5
v 0 6 -7
v 0 7 -7
v 1 6 -7
v 1 7 -7
v -10 6 -10
v -10 7 -10
v -9 6 -10
v -9 7 -10
v 13 6 -10
v 13 7 -10
v 14 6 -10
v 14 7 -10
v 7 6 -12
v 7 7 -12
v 8 6 -12
v 8 7 -12
v 4 6 -15
v 4 7 -15
v 4 8 -15
v 4 9 -15
v 5 6 -15
v 5 7 -15
v 5 8 -15
v 5 9 -15
v 5 10 -15
v 6 7 -15
v 6 8 -15
v 6 9 -15
v 6 10 -15
v 7 8 -15
v 7 9 -15
v -16 0 -16
v -16 3 -16
v -16 6 -16
v -11 6 -16
v -11 7 -16
v -10 6 -16
v -10 7 -16
v -3 3 -16
v -3 4 -16
v -2 3 -16
v -2 4 -16
v 5 6 -16
v 5 7 -16
v 5 8 -16
v 5 9 -16
v 6 6 -16
v 6 7 -16
v 6 8 -16
v 6 9 -16
v 16 0 -16
v 16 3 -16
v 16 6 -16
v -16 0 16
v 16 0 16
v -6 0 -3
v -5 0 -3
v -6 0 -4
v -5 0 -4
v -3 0 -6
v -2 0 -6
v -3 0 -7
v -2 0 -7
v -16 0 -16
v 16 0 -16
v -9 7 4
v -8 7 4
v -10 7 3
v -9 7 3
v -8 7 3
v -7 7 3
v -10 7 2
v -9 7 2
v -8 7 2
v -7 7 2
v -9 7 1
v -8 7 1
v 5 8 -13
v 6 8 -13
v 4 8 -14
v 5 8 -14
v 6 8 -14
v 7 8 -14
v 4 8 -15
v 5 8 -15
v 6 8 -15
v 7 8 -15
v 5 8 -16
v 6 8 -16
v -16 6 16
v -11 6 16
v -10 6 16
v 12 6 16
v 13 6 16
v 15 6 16
v -11 6 15
v -10 6 15
v 12 6 15
v 13 6 15
v 15 6 15
v 16 6 15
v -5 6 12
v -3 6 12
v 1 6 12
v 2 6 12
v -10 6 11
v -9 6 11
v -4 6 11
v -3 6 11
v 1 6 11
v 2 6 11
v 10 6 11
v 11 6 11
v -10 6 10
v -9 6 10
v -5 6 10
v -4 6 10
v 10 6 10
v 11 6 10
v -15 6 8
v -14 6 8
v 7 6 8
v 8 6 8
v -15 6 7
v -14 6 7
v -3 6 7
v -2 6 7
v -6 6 6
v -5 6 6
v -3 6 6
v -2 6 6
v 7 6 6
v 8 6 6
v -6 6 5
v -5 6 5
v 13 6 5
v 14 6 5
v 13 6 4
v 14 6 4
v -9 6 3
v -8 6 3
v -9 6 2
v -8 6 2
v 7 6 2
v 8 6 2
v 1 6 1
v 2 6 1
v 7 6 1
v 8 6 1
v 13 6 1
v 14 6 1
v -4 6 -0
v -3 6 -0
v 1 6 -0
v 2 6 -0
v 13 6 -0
v 14 6 -0
v -4 6 -1
v -3 6 -1
v 6 6 -3
v 7 6 -3
v -7 6 -4
v -6 6 -4
v 6 6 -4
v 7 6 -4
v -7 6 -5
v -6 6 -5
v 0 6 -6
v 1 6 -6
v 0 6 -7
v 1 6 -7
v -10 6 -9
v -9 6 -9
v 13 6 -9
v 14 6 -9
v -16 6 -10
v -15 6 -10
v -10 6 -10
v -9 6 -10
v 13 6 -10
v 14 6 -10
v -16 6 -11
v -15 6 -11
v 7 6 -11
v 8 6 -11
v -5 6 -12
v -4 6 -12
v 7 6 -12
v 8 6 -12
v -5 6 -13
v -4 6 -13
v 4 6 -14
v 6 6 -14
v -11 6 -15
v -10 6 -15
v 4 6 -15
v 5 6 -15
v -16 6 -16
v -11 6 -16
v -10 6 -16
v 5 6 -16
v 6 6 -16
v 16 6 -16
v -11 7 16
v -10 7 16
v 15 7 16
v 16 7 16
v -11 7 15
v -10 7 15
v 15 7 15
v 16 7 15
v -5 7 12
v -3 7 12
v -10 7 11
v -9 7 11
v -4 7 11
v -3 7 11
v -10 7 10
v -9 7 10
v -5 7 10
v -4 7 10
v -15 7 8
v -14 7 8
v 7 7 8
v 8 7 8
v -15 7 7
v -14 7 7
v -3 7 7
v -2 7 7
v -3 7 6
v -2 7 6
v 7 7 6
v 8 7 6
v 1 7 1
v 2 7 1
v 13 7 1
v 14 7 1
v -4 7 -0
v -3 7 -0
v 1 7 -0
v 2 7 -0
v 13 7 -0
v 14 7 -0
v -4 7 -1
v -3 7 -1
v 6 7 -3
v 7 7 -3
v -7 7 -4
v -6 7 -4
v 6 7 -4
v 7 7 -4
v -7 7 -5
v -6 7 -5
v 0 7 -6
v 1 7 -6
v 0 7 -7
v 1 7 -7
v -10 7 -9
v -9 7 -9
v 13 7 -9
v 14 7 -9
v -10 7 -10
v -9 7 -10
v 13 7 -10
v 14 7 -10
v 7 7 -11
v 8 7 -11
v 7 7 -12
v 8 7 -12
v 4 7 -14
v 5 7 -14
v -11 7 -15
v -10 7 -15
v 4 7 -15
v 5 7 -15
v 6 7 -15
v -11 7 -16
v -10 7 -16
v 5 7 -16
v 6 7 -16
v -9 8 4
v -8 8 4
v -10 8 3
v -9 8 3
v -8 8 3
v -7 8 3
v -10 8 2
v -9 8 2
v -8 8 2
v -7 8 2
v -9 8 1
v -8 8 1
v -9 9 3
v -8 9 3
v -9 9 2
v -8 9 2
v 5 9 -13
v 6 9 -13
v 4 9 -14
v 5 9 -14
v 6 9 -14
v 7 9 -14
v 4 9 -15
v 5 9 -15
v 6 9 -15
v 7 9 -15
v 5 9 -16
v 6 9 -16
v 5 10 -14
v 6 10 -14
v 5 10 -15
v 6 10 -15

# faces
f 3/3/1 2/3/1 1/3/1
f 4/3/1 2/3/1 3/3/1
f 5/3/1 2/3/1 4/3/1
f 6/3/1 2/3/1 5/3/1
f 7/4/1 4/4/1 3/4/1
f 7/3/1 5/3/1 4/3/1
f 8/4/1 6/4/1 5/4/1
f 8/3/1 5/3/1 7/3/1
f 9/4/1 8/4/1 7/4/1
f 9/4/1 6/4/1 8/4/1
f 10/4/1 6/4/1 9/4/1
f 11/4/1 7/4/1 3/4/1
f 11/4/1 9/4/1 7/4/1
f 12/6/1 10/6/1 9/6/1
f 12/4/1 9/4/1 11/4/1
f 13/4/1 6/4/1 10/4/1
f 13/6/1 10/6/1 12/6/1
f 14/4/1 6/4/1 13/4/1
f 17/5/1 16/5/1 15/5/1
f 18/5/1 16/5/1 17/5/1
f 23/5/1 20/5/1 19/5/1
f 24/5/1 20/5/1 23/5/1
f 25/5/1 22/5/1 21/5/1
f 26/5/1 22/5/1 25/5/1
f 31/5/1 28/5/1 27/5/1
f 32/5/1 28/5/1 31/5/1
f 35/5/1 30/5/1 29/5/1
f 36/5/1 30/5/1 35/5/1
f 37/2/1 34/2/1 33/2/1
f 38/2/1 34/2/1 37/2/1
f 42/5/1 40/5/1 39/5/1
f 43/5/1 40/5/1 42/5/1
f 45/2/1 42/2/1 41/2/1
f 46/2/1 42/2/1 45/2/1
f 47/2/1 44/2/1 43/2/1
f 48/2/1 44/2/1 47/2/1
f 49/2/1 47/2/1 46/2/1
f 50/2/1 47/2/1 49/2/1
f 53/5/1 52/5/1 51/5/1
f 54/5/1 52/5/1 53/5/1
f 57/5/1 56/5/1 55/5/1
f 58/5/1 56/5/1 57/5/1
f 61/5/1 60/5/1 59/5/1
f 62/5/1 60/5/1 61/5/1
f 65/5/1 64/5/1 63/5/1
f 66/5/1 64/5/1 65/5/1
f 69/5/1 68/5/1 67/5/1
f 70/5/1 68/5/1 69/5/1
f 73/5/1 72/5/1 71/5/1
f 74/5/1 72/5/1 73/5/1
f 77/5/1 76/5/1 75/5/1
f 78/5/1 76/5/1 77/5/1
f 81/1/1 80/1/1 79/1/1
f 82/1/1 80/1/1 81/1/1
f 86/5/1 84/5/1 83/5/1
f 87/5/1 84/5/1 86/5/1
f 89/5/1 86/5/1 85/5/1
f 90/5/1 86/5/1 89/5/1
f 92/1/1 89/1/1 88/1/1
f 93/1/1 89/1/1 92/1/1
f 94/1/1 91/1/1 90/1/1
f 95/1/1 91/1/1 94/1/1
f 96/1/1 94/1/1 93/1/1
f 97/1/1 94/1/1 96/1/1
f 100/5/1 99/5/1 98/5/1
f 101/5/1 99/5/1 100/5/1
f 106/5/1 103/5/1 102/5/1
f 107/5/1 103/5/1 106/5/1
f 108/5/1 105/5/1 104/5/1
f 109/5/1 105/5/1 108/5/1
f 114/5/1 111/5/1 110/5/1
f 115/5/1 111/5/1 114/5/1
f 116/5/1 113/5/1 112/5/1
f 117/5/1 113/5/1 116/5/1
f 120/5/1 119/5/1 118/5/1
f 121/5/1 119/5/1 120/5/1
f 122/5/2 123/5/2 124/5/2
f 124/5/2 123/5/2 125/5/2
f 126/5/2 127/5/2 130/5/2
f 130/5/2 127/5/2 131/5/2
f 128/5/2 129/5/2 132/5/2
f 132/5/2 129/5/2 133/5/2
f 134/5/2 135/5/2 138/5/2
f 138/5/2 135/5/2 139/5/2
f 136/5/2 137/5/2 140/5/2
f 140/5/2 137/5/2 141/5/2
f 142/5/2 143/5/2 145/5/2
f 145/5/2 143/5/2 146/5/2
f 144/2/2 145/2/2 148/2/2
f 148/2/2 145/2/2 149/2/2
f 146/2/2 147/2/2 150/2/2
f 150/2/2 147/2/2 151/2/2
f 149/2/2 150/2/2 152/2/2
f 152/2/2 150/2/2 153/2/2
f 154/2/2 155/2/2 156/2/2
f 156/2/2 155/2/2 157/2/2
f 158/5/2 159/5/2 160/5/2
f 160/5/2 159/5/2 161/5/2
f 162/5/2 163/5/2 164/5/2
f 164/5/2 163/5/2 165/5/2
f 166/5/2 167/5/2 170/5/2
f 170/5/2 167/5/2 171/5/2
f 168/5/2 169/5/2 172/5/2
f 172/5/2 169/5/2 173/5/2
f 174/5/2 175/5/2 176/5/2
f 176/5/2 175/5/2 177/5/2
f 178/5/2 179/5/2 180/5/2
f 180/5/2 179/5/2 181/5/2
f 182/5/2 183/5/2 184/5/2
f 184/5/2 183/5/2 185/5/2
f 186/5/2 187/5/2 188/5/2
f 188/5/2 187/5/2 189/5/2
f 186/5/2 188/5/2 191/5/2
f 191/5/2 188/5/2 192/5/2
f 190/1/2 191/1/2 194/1/2
f 194/1/2 191/1/2 195/1/2
f 192/1/2 193/1/2 196/1/2
f 196/1/2 193/1/2 197/1/2
f 195/1/2 196/1/2 198/1/2
f 198/1/2 196/1/2 199/1/2
f 200/5/2 201/5/2 202/5/2
f 202/5/2 201/5/2 203/5/2
f 204/1/2 205/1/2 206/1/2
f 206/1/2 205/1/2 207/1/2
f 208/5/2 209/5/2 212/5/2
f 212/5/2 209/5/2 213/5/2
f 210/5/2 211/5/2 214/5/2
f 214/5/2 211/5/2 215/5/2
f 216/5/2 217/5/2 220/5/2
f 220/5/2 217/5/2 221/5/2
f 218/5/2 219/5/2 222/5/2
f 222/5/2 219/5/2 223/5/2
f 224/3/2 225/3/2 226/3/2
f 226/3/2 225/3/2 227/3/2
f 227/3/2 225/3/2 228/3/2
f 228/3/2 225/3/2 229/3/2
f 226/4/2 227/4/2 230/4/2
f 227/3/2 228/3/2 230/3/2
f 228/4/2 229/4/2 231/4/2
f 230/3/2 228/3/2 231/3/2
f 226/4/2 230/4/2 232/4/2
f 230/4/2 231/4/2 232/4/2
f 232/4/2 231/4/2 233/4/2
f 231/4/2 229/4/2 234/4/2
f 233/4/2 231/4/2 234/4/2
f 232/5/2 233/5/2 235/5/2
f 235/5/2 233/5/2 236/5/2
f 240/4/3 239/4/3 238/4/3
f 242/4/3 240/4/3 238/4/3
f 242/5/3 241/5/3 240/5/3
f 243/5/3 241/5/3 242/5/3
f 244/3/3 238/3/3 237/3/3
f 245/4/3 242/4/3 238/4/3
f 245/3/3 238/3/3 244/3/3
f 246/3/3 244/3/3 237/3/3
f 246/4/3 245/4/3 244/4/3
f 247/4/3 242/4/3 245/4/3
f 247/4/3 245/4/3 246/4/3
f 248/3/3 247/3/3 246/3/3
f 249/4/3 242/4/3 247/4/3
f 249/3/3 247/3/3 248/3/3
f 250/4/3 249/4/3 248/4/3
f 250/4/3 242/4/3 249/4/3
f 251/4/3 242/4/3 250/4/3
f 252/4/3 250/4/3 248/4/3
f 252/6/3 251/6/3 250/6/3
f 253/6/3 251/6/3 252/6/3
f 254/4/3 253/4/3 252/4/3
f 256/3/3 246/3/3 237/3/3
f 256/3/3 248/3/3 246/3/3
f 257/4/3 252/4/3 248/4/3
f 257/3/3 248/3/3 256/3/3
f 257/4/3 254/4/3 252/4/3
f 258/5/3 255/5/3 254/5/3
f 258/4/3 254/4/3 257/4/3
f 259/5/3 255/5/3 258/5/3
f 262/5/3 261/5/3 260/5/3
f 263/5/3 261/5/3 262/5/3
f 266/5/3 265/5/3 264/5/3
f 267/5/3 265/5/3 266/5/3
f 270/5/3 269/5/3 268/5/3
f 271/5/3 269/5/3 270/5/3
f 274/5/3 273/5/3 272/5/3
f 275/5/3 273/5/3 274/5/3
f 278/5/3 277/5/3 276/5/3
f 279/5/3 277/5/3 278/5/3
f 282/2/3 281/2/3 280/2/3
f 283/2/3 281/2/3 282/2/3
f 287/2/3 285/2/3 284/2/3
f 288/2/3 285/2/3 287/2/3
f 290/5/3 287/5/3 286/5/3
f 291/5/3 287/5/3 290/5/3
f 292/2/3 289/2/3 288/2/3
f 293/2/3 289/2/3 292/2/3
f 294/2/3 292/2/3 291/2/3
f 295/2/3 292/2/3 294/2/3
f 298/5/3 297/5/3 296/5/3
f 299/5/3 297/5/3 298/5/3
f 302/5/3 301/5/3 300/5/3
f 303/5/3 301/5/3 302/5/3
f 306/5/3 305/5/3 304/5/3
f 307/5/3 305/5/3 306/5/3
f 310/5/3 309/5/3 308/5/3
f 311/5/3 309/5/3 310/5/3
f 314/5/3 313/5/3 312/5/3
f 315/5/3 313/5/3 314/5/3
f 318/5/3 317/5/3 316/5/3
f 319/5/3 317/5/3 318/5/3
f 322/5/3 321/5/3 320/5/3
f 323/5/3 321/5/3 322/5/3
f 326/5/3 325/5/3 324/5/3
f 327/5/3 325/5/3 326/5/3
f 330/5/3 329/5/3 328/5/3
f 331/5/3 329/5/3 330/5/3
f 334/1/3 333/1/3 332/1/3
f 335/1/3 333/1/3 334/1/3
f 340/5/3 337/5/3 336/5/3
f 341/1/3 339/1/3 338/1/3
f 342/1/3 339/1/3 341/1/3
f 344/5/3 340/5/3 336/5/3
f 344/5/3 341/5/3 340/5/3
f 345/5/3 341/5/3 344/5/3
f 346/1/3 343/1/3 342/1/3
f 347/1/3 343/1/3 346/1/3
f 348/1/3 346/1/3 345/1/3
f 349/1/3 346/1/3 348/1/3
f 352/5/3 351/5/3 350/5/3
f 353/5/3 351/5/3 352/5/3
f 354/5/4 355/5/4 356/5/4
f 356/5/4 355/5/4 357/5/4
f 358/5/4 359/5/4 360/5/4
f 360/5/4 359/5/4 361/5/4
f 362/5/4 363/5/4 364/5/4
f 364/5/4 363/5/4 365/5/4
f 366/5/4 367/5/4 368/5/4
f 368/5/4 367/5/4 369/5/4
f 370/5/4 371/5/4 372/5/4
f 372/5/4 371/5/4 373/5/4
f 374/5/4 375/5/4 376/5/4
f 376/5/4 375/5/4 377/5/4
f 378/5/4 379/5/4 380/5/4
f 380/5/4 379/5/4 381/5/4
f 382/5/4 383/5/4 384/5/4
f 384/5/4 383/5/4 385/5/4
f 386/2/4 387/2/4 389/2/4
f 389/2/4 387/2/4 390/2/4
f 388/5/4 389/5/4 392/5/4
f 392/5/4 389/5/4 393/5/4
f 390/2/4 391/2/4 394/2/4
f 394/2/4 391/2/4 395/2/4
f 393/2/4 394/2/4 396/2/4
f 396/2/4 394/2/4 397/2/4
f 398/2/4 399/2/4 400/2/4
f 400/2/4 399/2/4 401/2/4
f 402/5/4 403/5/4 404/5/4
f 404/5/4 403/5/4 405/5/4
f 406/5/4 407/5/4 408/5/4
f 408/5/4 407/5/4 409/5/4
f 410/5/4 411/5/4 412/5/4
f 412/5/4 411/5/4 413/5/4
f 414/5/4 415/5/4 416/5/4
f 416/5/4 415/5/4 417/5/4
f 418/5/4 419/5/4 420/5/4
f 420/5/4 419/5/4 421/5/4
f 422/5/4 423/5/4 424/5/4
f 424/5/4 423/5/4 425/5/4
f 426/5/4 427/5/4 428/5/4
f 428/5/4 427/5/4 429/5/4
f 430/5/4 431/5/4 432/5/4
f 432/5/4 431/5/4 433/5/4
f 434/5/4 435/5/4 436/5/4
f 436/5/4 435/5/4 437/5/4
f 438/5/4 439/5/4 442/5/4
f 442/5/4 439/5/4 443/5/4
f 440/1/4 441/1/4 444/1/4
f 444/1/4 441/1/4 445/1/4
f 443/5/4 444/5/4 447/5/4
f 447/5/4 444/5/4 448/5/4
f 445/1/4 446/1/4 449/1/4
f 449/1/4 446/1/4 450/1/4
f 448/1/4 449/1/4 451/1/4
f 451/1/4 449/1/4 452/1/4
f 454/4/4 455/4/4 456/4/4
f 454/4/4 456/4/4 458/4/4
f 456/5/4 457/5/4 458/5/4
f 458/5/4 457/5/4 459/5/4
f 453/3/4 454/3/4 460/3/4
f 454/4/4 458/4/4 460/4/4
f 460/4/4 458/4/4 461/4/4
f 453/3/4 460/3/4 462/3/4
f 460/3/4 461/3/4 462/3/4
f 461/4/4 458/4/4 463/4/4
f 462/3/4 461/3/4 463/3/4
f 462/4/4 463/4/4 464/4/4
f 463/4/4 458/4/4 464/4/4
f 464/5/4 465/5/4 468/5/4
f 462/4/4 464/4/4 468/4/4
f 468/5/4 465/5/4 469/5/4
f 466/1/4 467/1/4 470/1/4
f 470/1/4 467/1/4 471/1/4
f 453/3/4 462/3/4 472/3/4
f 462/4/4 468/4/4 473/4/4
f 472/3/4 462/3/4 473/3/4
f 473/4/4 468/4/4 474/4/4
f 477/3/5 476/3/5 475/3/5
f 478/3/5 476/3/5 477/3/5
f 479/3/5 477/3/5 475/3/5
f 479/4/5 478/4/5 477/4/5
f 480/3/5 476/3/5 478/3/5
f 480/4/5 478/4/5 479/4/5
f 481/3/5 480/3/5 479/3/5
f 481/3/5 476/3/5 480/3/5
f 482/3/5 476/3/5 481/3/5
f 483/3/5 481/3/5 479/3/5
f 483/4/5 482/4/5 481/4/5
f 484/3/5 476/3/5 482/3/5
f 484/4/5 482/4/5 483/4/5
f 485/3/5 479/3/5 475/3/5
f 485/3/5 483/3/5 479/3/5
f 485/3/5 484/3/5 483/3/5
f 486/3/5 476/3/5 484/3/5
f 486/3/5 484/3/5 485/3/5
f 490/2/5 488/2/5 487/2/5
f 491/2/5 488/2/5 490/2/5
f 493/2/5 490/2/5 489/2/5
f 494/2/5 490/2/5 493/2/5
f 495/2/5 492/2/5 491/2/5
f 496/2/5 492/2/5 495/2/5
f 497/2/5 495/2/5 494/2/5
f 498/2/5 495/2/5 497/2/5
f 502/1/5 500/1/5 499/1/5
f 503/1/5 500/1/5 502/1/5
f 505/1/5 502/1/5 501/1/5
f 506/1/5 502/1/5 505/1/5
f 507/1/5 504/1/5 503/1/5
f 508/1/5 504/1/5 507/1/5
f 509/1/5 507/1/5 506/1/5
f 510/1/5 507/1/5 509/1/5
f 511/4/6 512/4/6 517/4/6
f 513/4/6 514/4/6 518/4/6
f 514/6/6 515/6/6 519/6/6
f 518/4/6 514/4/6 519/4/6
f 515/4/6 516/4/6 520/4/6
f 519/6/6 515/6/6 520/6/6
f 520/4/6 516/4/6 521/4/6
f 518/4/6 519/4/6 523/4/6
f 521/4/6 522/4/6 523/4/6
f 520/4/6 521/4/6 523/4/6
f 519/4/6 520/4/6 523/4/6
f 517/4/6 518/4/6 523/4/6
f 523/4/6 522/4/6 524/4/6
f 524/4/6 522/4/6 525/4/6
f 525/4/6 522/4/6 526/4/6
f 517/4/6 523/4/6 527/4/6
f 527/4/6 523/4/6 528/4/6
f 524/4/6 525/4/6 530/4/6
f 525/6/6 526/6/6 531/6/6
f 530/4/6 525/4/6 531/4/6
f 526/4/6 522/4/6 532/4/6
f 531/6/6 526/6/6 532/6/6
f 532/4/6 522/4/6 533/4/6
f 533/4/6 522/4/6 534/4/6
f 517/4/6 527/4/6 535/4/6
f 528/4/6 523/4/6 536/4/6
f 536/4/6 523/4/6 537/4/6
f 530/4/6 531/4/6 538/4/6
f 529/4/6 530/4/6 538/4/6
f 531/4/6 532/4/6 538/4/6
f 532/4/6 533/4/6 538/4/6
f 533/6/6 534/6/6 539/6/6
f 538/4/6 533/4/6 539/4/6
f 534/4/6 522/4/6 540/4/6
f 539/6/6 534/6/6 540/6/6
f 511/4/6 517/4/6 541/4/6
f 536/4/6 537/4/6 541/4/6
f 539/4/6 540/4/6 541/4/6
f 535/4/6 536/4/6 541/4/6
f 517/4/6 535/4/6 541/4/6
f 538/4/6 539/4/6 541/4/6
f 537/4/6 538/4/6 541/4/6
f 541/4/6 540/4/6 542/4/6
f 542/4/6 540/4/6 543/4/6
f 543/4/6 540/4/6 544/4/6
f 511/4/6 541/4/6 545/4/6
f 542/4/6 543/4/6 546/4/6
f 546/4/6 543/4/6 547/4/6
f 547/4/6 543/4/6 548/4/6
f 545/4/6 546/4/6 549/4/6
f 546/4/6 547/4/6 549/4/6
f 549/4/6 547/4/6 550/4/6
f 550/4/6 547/4/6 551/4/6
f 548/4/6 543/4/6 552/4/6
f 552/4/6 543/4/6 553/4/6
f 544/4/6 540/4/6 554/4/6
f 545/4/6 549/4/6 555/4/6
f 549/6/6 550/6/6 555/6/6
f 552/4/6 553/4/6 556/4/6
f 555/6/6 550/6/6 556/6/6
f 550/4/6 551/4/6 556/4/6
f 553/4/6 554/4/6 556/4/6
f 551/4/6 552/4/6 556/4/6
f 540/4/6 522/4/6 557/4/6
f 556/4/6 554/4/6 557/4/6
f 554/4/6 540/4/6 557/4/6
f 557/4/6 522/4/6 558/4/6
f 555/4/6 556/4/6 559/4/6
f 556/4/6 557/4/6 559/4/6
f 557/6/6 558/6/6 559/6/6
f 558/4/6 522/4/6 560/4/6
f 559/6/6 558/6/6 560/6/6
f 555/4/6 559/4/6 561/4/6
f 545/4/6 555/4/6 561/4/6
f 559/4/6 560/4/6 561/4/6
f 561/4/6 560/4/6 562/4/6
f 545/4/6 561/4/6 563/4/6
f 562/4/6 560/4/6 564/4/6
f 564/4/6 560/4/6 565/4/6
f 565/4/6 560/4/6 566/4/6
f 563/4/6 564/4/6 567/4/6
f 564/4/6 565/4/6 567/4/6
f 567/4/6 565/4/6 568/4/6
f 565/6/6 566/6/6 569/6/6
f 568/4/6 565/4/6 569/4/6
f 566/4/6 560/4/6 570/4/6
f 569/6/6 566/6/6 570/6/6
f 570/4/6 560/4/6 571/4/6
f 560/4/6 522/4/6 572/4/6
f 571/4/6 560/4/6 572/4/6
f 563/4/6 567/4/6 573/4/6
f 573/4/6 567/4/6 574/4/6
f 574/4/6 567/4/6 575/4/6
f 570/4/6 571/4/6 576/4/6
f 568/4/6 569/4/6 576/4/6
f 569/4/6 570/4/6 576/4/6
f 576/4/6 571/4/6 577/4/6
f 572/4/6 522/4/6 578/4/6
f 563/4/6 573/4/6 579/4/6
f 574/4/6 575/4/6 580/4/6
f 577/4/6 578/4/6 580/4/6
f 576/4/6 577/4/6 580/4/6
f 575/4/6 576/4/6 580/4/6
f 580/4/6 578/4/6 581/4/6
f 579/4/6 580/4/6 581/4/6
f 581/4/6 578/4/6 582/4/6
f 563/4/6 579/4/6 583/4/6
f 579/4/6 581/4/6 583/4/6
f 583/4/6 581/4/6 584/4/6
f 584/4/6 581/4/6 585/4/6
f 582/4/6 578/4/6 586/4/6
f 563/4/6 583/4/6 587/4/6
f 584/4/6 585/4/6 588/4/6
f 585/4/6 586/4/6 588/4/6
f 588/4/6 586/4/6 589/4/6
f 587/4/6 588/4/6 589/4/6
f 589/4/6 586/4/6 590/4/6
f 587/4/6 589/4/6 591/4/6
f 590/4/6 586/4/6 592/4/6
f 563/4/6 587/4/6 593/4/6
f 591/4/6 592/4/6 593/4/6
f 545/4/6 563/4/6 593/4/6
f 587/4/6 591/4/6 593/4/6
f 593/4/6 592/4/6 594/4/6
f 592/4/6 586/4/6 595/4/6
f 594/4/6 592/4/6 595/4/6
f 586/4/6 578/4/6 595/4/6
f 578/4/6 522/4/6 596/4/6
f 595/4/6 578/4/6 596/4/6
f 511/4/6 545/4/6 597/4/6
f 545/4/6 593/4/6 597/4/6
f 597/4/6 593/4/6 598/4/6
f 598/4/6 593/4/6 599/4/6
f 594/4/6 595/4/6 600/4/6
f 600/4/6 595/4/6 601/4/6
f 596/4/6 522/4/6 602/4/6
f 597/6/6 598/6/6 603/6/6
f 600/4/6 601/4/6 604/4/6
f 603/6/6 598/6/6 604/6/6
f 598/4/6 599/4/6 604/4/6
f 601/4/6 602/4/6 604/4/6
f 599/4/6 600/4/6 604/4/6
f 604/4/6 602/4/6 605/4/6
f 605/4/6 602/4/6 606/4/6
f 603/4/6 604/4/6 607/4/6
f 604/4/6 605/4/6 607/4/6
f 607/4/6 605/4/6 608/4/6
f 608/4/6 605/4/6 609/4/6
f 606/4/6 602/4/6 610/4/6
f 603/4/6 607/4/6 611/4/6
f 607/6/6 608/6/6 611/6/6
f 608/4/6 609/4/6 612/4/6
f 611/6/6 608/6/6 612/6/6
f 609/4/6 610/4/6 612/4/6
f 611/4/6 612/4/6 613/4/6
f 612/4/6 610/4/6 613/4/6
f 613/4/6 610/4/6 614/4/6
f 603/4/6 611/4/6 615/4/6
f 611/4/6 613/4/6 615/4/6
f 615/4/6 613/4/6 616/4/6
f 616/4/6 613/4/6 617/4/6
f 603/4/6 615/4/6 619/4/6
f 619/4/6 615/4/6 620/4/6
f 617/4/6 618/4/6 621/4/6
f 616/4/6 617/4/6 621/4/6
f 621/4/6 618/4/6 622/4/6
f 614/4/6 610/4/6 623/4/6
f 602/4/6 522/4/6 624/4/6
f 623/4/6 610/4/6 624/4/6
f 610/4/6 602/4/6 624/4/6
f 625/5/6 626/5/6 629/5/6
f 629/5/6 626/5/6 630/5/6
f 627/5/6 628/5/6 631/5/6
f 631/5/6 628/5/6 632/5/6
f 633/5/6 634/5/6 637/5/6
f 637/5/6 634/5/6 638/5/6
f 635/5/6 636/5/6 639/5/6
f 639/5/6 636/5/6 640/5/6
f 633/5/6 637/5/6 641/5/6
f 641/5/6 637/5/6 642/5/6
f 643/5/6 644/5/6 647/5/6
f 647/5/6 644/5/6 648/5/6
f 649/5/6 650/5/6 651/5/6
f 651/5/6 650/5/6 652/5/6
f 645/5/6 646/5/6 653/5/6
f 653/5/6 646/5/6 654/5/6
f 655/5/6 656/5/6 661/5/6
f 661/5/6 656/5/6 662/5/6
f 657/5/6 658/5/6 663/5/6
f 663/5/6 658/5/6 664/5/6
f 659/5/6 660/5/6 665/5/6
f 665/5/6 660/5/6 666/5/6
f 667/5/6 668/5/6 671/5/6
f 671/5/6 668/5/6 672/5/6
f 669/5/6 670/5/6 673/5/6
f 673/5/6 670/5/6 674/5/6
f 675/5/6 676/5/6 677/5/6
f 677/5/6 676/5/6 678/5/6
f 679/5/6 680/5/6 683/5/6
f 683/5/6 680/5/6 684/5/6
f 681/5/6 682/5/6 685/5/6
f 685/5/6 682/5/6 686/5/6
f 687/5/6 688/5/6 689/5/6
f 689/5/6 688/5/6 690/5/6
f 691/5/6 692/5/6 695/5/6
f 695/5/6 692/5/6 696/5/6
f 693/5/6 694/5/6 698/5/6
f 698/5/6 694/5/6 699/5/6
f 696/5/6 697/5/6 700/5/6
f 700/5/6 697/5/6 701/5/6
f 702/2/6 703/2/6 705/2/6
f 705/2/6 703/2/6 706/2/6
f 704/2/6 705/2/6 708/2/6
f 708/2/6 705/2/6 709/2/6
f 706/2/6 707/2/6 710/2/6
f 710/2/6 707/2/6 711/2/6
f 709/2/6 710/2/6 712/2/6
f 712/2/6 710/2/6 713/2/6
f 714/2/6 715/2/6 716/2/6
f 716/2/6 715/2/6 717/2/6
f 718/1/6 719/1/6 721/1/6
f 721/1/6 719/1/6 722/1/6
f 720/1/6 721/1/6 724/1/6
f 724/1/6 721/1/6 725/1/6
f 722/1/6 723/1/6 726/1/6
f 726/1/6 723/1/6 727/1/6
f 725/1/6 726/1/6 728/1/6
f 728/1/6 726/1/6 729/1/6
f 730/1/6 731/1/6 732/1/6
f 732/1/6 731/1/6 733/1/6
