# MagicaVoxel @ Ephtracy

# group
g 002_005_02

# material
mtllib 002_005_02.mtl
usemtl palette

# normals
vn -1 0 0
vn 1 0 0
vn 0 0 1
vn 0 0 -1
vn 0 -1 0
vn 0 1 0

# texcoords
vt 0.876953 0.5
vt 0.908203 0.5
vt 0.939453 0.5
vt 0.970703 0.5
vt 0.974609 0.5
vt 0.978516 0.5

# verts
v -16 0 16
v -16 0 -16
v -16 3 15
v -16 3 -15
v -16 4 16
v -16 4 15
v -16 4 -15
v -16 4 -16
v -16 5 9
v -16 5 8
v -16 6 16
v -16 6 9
v -16 6 8
v -16 6 -16
v -15 6 -5
v -15 6 -6
v -15 7 -5
v -15 7 -6
v -11 6 4
v -11 6 2
v -11 7 4
v -11 7 2
v -10 6 10
v -10 6 9
v -10 6 -2
v -10 6 -3
v -10 7 10
v -10 7 9
v -10 7 -2
v -10 7 -3
v -9 6 -10
v -9 6 -11
v -9 7 -10
v -9 7 -11
v -7 6 15
v -7 6 14
v -7 7 15
v -7 7 14
v -5 6 -1
v -5 6 -3
v -5 7 -1
v -5 7 -3
v -4 6 -13
v -4 6 -14
v -4 7 -13
v -4 7 -14
v -3 6 -6
v -3 6 -7
v -3 7 -6
v -3 7 -7
v 0 6 13
v 0 6 12
v 0 7 13
v 0 7 12
v 1 6 -12
v 1 6 -13
v 1 7 -12
v 1 7 -13
v 4 6 5
v 4 6 4
v 4 7 5
v 4 7 4
v 4 8 5
v 4 8 4
v 4 9 5
v 4 9 4
v 5 6 4
v 5 6 3
v 5 7 5
v 5 7 4
v 5 7 3
v 5 8 6
v 5 8 5
v 5 8 4
v 5 8 3
v 5 9 6
v 5 9 5
v 5 9 4
v 5 9 3
v 5 10 5
v 5 10 4
v 6 6 16
v 6 6 15
v 6 7 16
v 6 7 15
v 7 6 8
v 7 6 7
v 7 6 -5
v 7 6 -7
v 7 7 8
v 7 7 7
v 7 7 -5
v 7 7 -7
v 13 6 10
v 13 6 9
v 13 6 -12
v 13 6 -13
v 13 7 10
v 13 7 9
v 13 7 -12
v 13 7 -13
v 15 6 3
v 15 6 2
v 15 7 3
v 15 7 2
v -14 6 -5
v -14 6 -6
v -14 7 -5
v -14 7 -6
v -10 6 4
v -10 6 2
v -10 7 4
v -10 7 2
v -9 6 10
v -9 6 9
v -9 6 -2
v -9 6 -3
v -9 7 10
v -9 7 9
v -9 7 -2
v -9 7 -3
v -8 6 -10
v -8 6 -11
v -8 7 -10
v -8 7 -11
v -6 6 15
v -6 6 14
v -6 7 15
v -6 7 14
v -4 6 -2
v -4 6 -3
v -4 7 -2
v -4 7 -3
v -3 6 -1
v -3 6 -2
v -3 6 -13
v -3 6 -14
v -3 7 -1
v -3 7 -2
v -3 7 -13
v -3 7 -14
v -2 6 -6
v -2 6 -7
v -2 7 -6
v -2 7 -7
v 1 6 13
v 1 6 12
v 1 7 13
v 1 7 12
v 2 6 -12
v 2 6 -13
v 2 7 -12
v 2 7 -13
v 6 6 5
v 6 6 3
v 6 7 4
v 6 7 3
v 6 8 6
v 6 8 5
v 6 8 4
v 6 8 3
v 6 9 6
v 6 9 5
v 6 9 4
v 6 9 3
v 6 10 5
v 6 10 4
v 7 6 16
v 7 6 15
v 7 7 16
v 7 7 15
v 7 8 5
v 7 8 4
v 7 9 5
v 7 9 4
v 8 6 8
v 8 6 7
v 8 6 -5
v 8 6 -7
v 8 7 8
v 8 7 7
v 8 7 -5
v 8 7 -7
v 14 6 10
v 14 6 9
v 14 6 -12
v 14 6 -13
v 14 7 10
v 14 7 9
v 14 7 -12
v 14 7 -13
v 16 0 16
v 16 0 -16
v 16 3 15
v 16 3 -15
v 16 4 16
v 16 4 15
v 16 4 -15
v 16 4 -16
v 16 6 16
v 16 6 3
v 16 6 2
v 16 6 -16
v 16 7 3
v 16 7 2
v -16 0 16
v -16 4 16
v -16 6 16
v -12 3 16
v -12 4 16
v -11 2 16
v -11 3 16
v -10 2 16
v -10 4 16
v -6 0 16
v -6 1 16
v -5 0 16
v -5 1 16
v 2 3 16
v 2 4 16
v 3 3 16
v 3 4 16
v 4 2 16
v 4 4 16
v 5 2 16
v 5 3 16
v 6 6 16
v 6 7 16
v 7 3 16
v 7 4 16
v 7 6 16
v 7 7 16
v 8 1 16
v 8 2 16
v 9 1 16
v 9 2 16
v 14 3 16
v 14 4 16
v 15 3 16
v 15 4 16
v 16 0 16
v 16 4 16
v 16 6 16
v -7 6 15
v -7 7 15
v -6 6 15
v -6 7 15
v 0 6 13
v 0 7 13
v 1 6 13
v 1 7 13
v -10 6 10
v -10 7 10
v -9 6 10
v -9 7 10
v 13 6 10
v 13 7 10
v 14 6 10
v 14 7 10
v 7 6 8
v 7 7 8
v 8 6 8
v 8 7 8
v 5 8 6
v 5 9 6
v 6 8 6
v 6 9 6
v 4 6 5
v 4 7 5
v 4 8 5
v 4 9 5
v 5 7 5
v 5 8 5
v 5 9 5
v 5 10 5
v 6 6 5
v 6 8 5
v 6 9 5
v 6 10 5
v 7 8 5
v 7 9 5
v -11 6 4
v -11 7 4
v -10 6 4
v -10 7 4
v 15 6 3
v 15 7 3
v 16 6 3
v 16 7 3
v -5 6 -1
v -5 7 -1
v -3 6 -1
v -3 7 -1
v -10 6 -2
v -10 7 -2
v -9 6 -2
v -9 7 -2
v -15 6 -5
v -15 7 -5
v -14 6 -5
v -14 7 -5
v 7 6 -5
v 7 7 -5
v 8 6 -5
v 8 7 -5
v -3 6 -6
v -3 7 -6
v -2 6 -6
v -2 7 -6
v -9 6 -10
v -9 7 -10
v -8 6 -10
v -8 7 -10
v 1 6 -12
v 1 7 -12
v 2 6 -12
v 2 7 -12
v 13 6 -12
v 13 7 -12
v 14 6 -12
v 14 7 -12
v -4 6 -13
v -4 7 -13
v -3 6 -13
v -3 7 -13
v 6 6 15
v 6 7 15
v 7 6 15
v 7 7 15
v -7 6 14
v -7 7 14
v -6 6 14
v -6 7 14
v 0 6 12
v 0 7 12
v 1 6 12
v 1 7 12
v -10 6 9
v -10 7 9
v -9 6 9
v -9 7 9
v 13 6 9
v 13 7 9
v 14 6 9
v 14 7 9
v 7 6 7
v 7 7 7
v 8 6 7
v 8 7 7
v 4 6 4
v 4 7 4
v 4 8 4
v 4 9 4
v 5 6 4
v 5 7 4
v 5 8 4
v 5 9 4
v 5 10 4
v 6 7 4
v 6 8 4
v 6 9 4
v 6 10 4
v 7 8 4
v 7 9 4
v 5 6 3
v 5 7 3
v 5 8 3
v 5 9 3
v 6 6 3
v 6 7 3
v 6 8 3
v 6 9 3
v -11 6 2
v -11 7 2
v -10 6 2
v -10 7 2
v 15 6 2
v 15 7 2
v 16 6 2
v 16 7 2
v -4 6 -2
v -4 7 -2
v -3 6 -2
v -3 7 -2
v -10 6 -3
v -10 7 -3
v -9 6 -3
v -9 7 -3
v -5 6 -3
v -5 7 -3
v -4 6 -3
v -4 7 -3
v -15 6 -6
v -15 7 -6
v -14 6 -6
v -14 7 -6
v -3 6 -7
v -3 7 -7
v -2 6 -7
v -2 7 -7
v 7 6 -7
v 7 7 -7
v 8 6 -7
v 8 7 -7
v -9 6 -11
v -9 7 -11
v -8 6 -11
v -8 7 -11
v 1 6 -13
v 1 7 -13
v 2 6 -13
v 2 7 -13
v 13 6 -13
v 13 7 -13
v 14 6 -13
v 14 7 -13
v -4 6 -14
v -4 7 -14
v -3 6 -14
v -3 7 -14
v -16 0 -16
v -16 4 -16
v -16 6 -16
v -13 2 -16
v -13 3 -16
v -11 2 -16
v -11 3 -16
v -11 4 -16
v -10 3 -16
v -10 4 -16
v -7 2 -16
v -7 4 -16
v -6 2 -16
v -6 3 -16
v -5 3 -16
v -5 4 -16
v 3 2 -16
v 3 3 -16
v 4 2 -16
v 4 3 -16
v 4 4 -16
v 5 3 -16
v 5 4 -16
v 12 2 -16
v 12 3 -16
v 13 3 -16
v 13 4 -16
v 14 2 -16
v 14 4 -16
v 16 0 -16
v 16 4 -16
v 16 6 -16
v -16 0 16
v -6 0 16
v -5 0 16
v 16 0 16
v -6 0 15
v -5 0 15
v -3 0 13
v -2 0 13
v -3 0 12
v -2 0 12
v -16 0 -16
v 16 0 -16
v 5 8 6
v 6 8 6
v 4 8 5
v 5 8 5
v 6 8 5
v 7 8 5
v 4 8 4
v 5 8 4
v 6 8 4
v 7 8 4
v 5 8 3
v 6 8 3
v -16 6 16
v 6 6 16
v 7 6 16
v 16 6 16
v -7 6 15
v -6 6 15
v 6 6 15
v 7 6 15
v -7 6 14
v -6 6 14
v 0 6 13
v 1 6 13
v 0 6 12
v 1 6 12
v -10 6 10
v -9 6 10
v 13 6 10
v 14 6 10
v -16 6 9
v -15 6 9
v -10 6 9
v -9 6 9
v 13 6 9
v 14 6 9
v -16 6 8
v -15 6 8
v 7 6 8
v 8 6 8
v -5 6 7
v -4 6 7
v 7 6 7
v 8 6 7
v -5 6 6
v -4 6 6
v 4 6 5
v 6 6 5
v -11 6 4
v -10 6 4
v 4 6 4
v 5 6 4
v 5 6 3
v 6 6 3
v 12 6 3
v 13 6 3
v 15 6 3
v 16 6 3
v -11 6 2
v -10 6 2
v 12 6 2
v 13 6 2
v 15 6 2
v 16 6 2
v -5 6 -1
v -3 6 -1
v 1 6 -1
v 2 6 -1
v -10 6 -2
v -9 6 -2
v -4 6 -2
v -3 6 -2
v 1 6 -2
v 2 6 -2
v 10 6 -2
v 11 6 -2
v -10 6 -3
v -9 6 -3
v -5 6 -3
v -4 6 -3
v 10 6 -3
v 11 6 -3
v -15 6 -5
v -14 6 -5
v 7 6 -5
v 8 6 -5
v -15 6 -6
v -14 6 -6
v -3 6 -6
v -2 6 -6
v -6 6 -7
v -5 6 -7
v -3 6 -7
v -2 6 -7
v 7 6 -7
v 8 6 -7
v -6 6 -8
v -5 6 -8
v 13 6 -8
v 14 6 -8
v 13 6 -9
v 14 6 -9
v -9 6 -10
v -8 6 -10
v -9 6 -11
v -8 6 -11
v 7 6 -11
v 8 6 -11
v 1 6 -12
v 2 6 -12
v 7 6 -12
v 8 6 -12
v 13 6 -12
v 14 6 -12
v -4 6 -13
v -3 6 -13
v 1 6 -13
v 2 6 -13
v 13 6 -13
v 14 6 -13
v -4 6 -14
v -3 6 -14
v -16 6 -16
v 16 6 -16
v 6 7 16
v 7 7 16
v -7 7 15
v -6 7 15
v 6 7 15
v 7 7 15
v -7 7 14
v -6 7 14
v 0 7 13
v 1 7 13
v 0 7 12
v 1 7 12
v -10 7 10
v -9 7 10
v 13 7 10
v 14 7 10
v -10 7 9
v -9 7 9
v 13 7 9
v 14 7 9
v 7 7 8
v 8 7 8
v 7 7 7
v 8 7 7
v 4 7 5
v 5 7 5
v -11 7 4
v -10 7 4
v 4 7 4
v 5 7 4
v 6 7 4
v 5 7 3
v 6 7 3
v 15 7 3
v 16 7 3
v -11 7 2
v -10 7 2
v 15 7 2
v 16 7 2
v -5 7 -1
v -3 7 -1
v -10 7 -2
v -9 7 -2
v -4 7 -2
v -3 7 -2
v -10 7 -3
v -9 7 -3
v -5 7 -3
v -4 7 -3
v -15 7 -5
v -14 7 -5
v 7 7 -5
v 8 7 -5
v -15 7 -6
v -14 7 -6
v -3 7 -6
v -2 7 -6
v -3 7 -7
v -2 7 -7
v 7 7 -7
v 8 7 -7
v -9 7 -10
v -8 7 -10
v -9 7 -11
v -8 7 -11
v 1 7 -12
v 2 7 -12
v 13 7 -12
v 14 7 -12
v -4 7 -13
v -3 7 -13
v 1 7 -13
v 2 7 -13
v 13 7 -13
v 14 7 -13
v -4 7 -14
v -3 7 -14
v 5 9 6
v 6 9 6
v 4 9 5
v 5 9 5
v 6 9 5
v 7 9 5
v 4 9 4
v 5 9 4
v 6 9 4
v 7 9 4
v 5 9 3
v 6 9 3
v 5 10 5
v 6 10 5
v 5 10 4
v 6 10 4

# faces
f 3/3/1 2/3/1 1/3/1
f 4/3/1 2/3/1 3/3/1
f 5/3/1 3/3/1 1/3/1
f 6/4/1 4/4/1 3/4/1
f 6/3/1 3/3/1 5/3/1
f 7/3/1 2/3/1 4/3/1
f 7/4/1 4/4/1 6/4/1
f 8/3/1 2/3/1 7/3/1
f 9/4/1 6/4/1 5/4/1
f 9/4/1 7/4/1 6/4/1
f 9/4/1 8/4/1 7/4/1
f 10/4/1 8/4/1 9/4/1
f 11/4/1 9/4/1 5/4/1
f 12/6/1 10/6/1 9/6/1
f 12/4/1 9/4/1 11/4/1
f 13/4/1 8/4/1 10/4/1
f 13/6/1 10/6/1 12/6/1
f 14/4/1 8/4/1 13/4/1
f 17/5/1 16/5/1 15/5/1
f 18/5/1 16/5/1 17/5/1
f 21/5/1 20/5/1 19/5/1
f 22/5/1 20/5/1 21/5/1
f 27/5/1 24/5/1 23/5/1
f 28/5/1 24/5/1 27/5/1
f 29/5/1 26/5/1 25/5/1
f 30/5/1 26/5/1 29/5/1
f 33/5/1 32/5/1 31/5/1
f 34/5/1 32/5/1 33/5/1
f 37/5/1 36/5/1 35/5/1
f 38/5/1 36/5/1 37/5/1
f 41/5/1 40/5/1 39/5/1
f 42/5/1 40/5/1 41/5/1
f 45/5/1 44/5/1 43/5/1
f 46/5/1 44/5/1 45/5/1
f 49/5/1 48/5/1 47/5/1
f 50/5/1 48/5/1 49/5/1
f 53/5/1 52/5/1 51/5/1
f 54/5/1 52/5/1 53/5/1
f 57/5/1 56/5/1 55/5/1
f 58/5/1 56/5/1 57/5/1
f 61/5/1 60/5/1 59/5/1
f 62/5/1 60/5/1 61/5/1
f 65/1/1 64/1/1 63/1/1
f 66/1/1 64/1/1 65/1/1
f 70/5/1 68/5/1 67/5/1
f 71/5/1 68/5/1 70/5/1
f 73/5/1 70/5/1 69/5/1
f 74/5/1 70/5/1 73/5/1
f 76/1/1 73/1/1 72/1/1
f 77/1/1 73/1/1 76/1/1
f 78/1/1 75/1/1 74/1/1
f 79/1/1 75/1/1 78/1/1
f 80/1/1 78/1/1 77/1/1
f 81/1/1 78/1/1 80/1/1
f 84/5/1 83/5/1 82/5/1
f 85/5/1 83/5/1 84/5/1
f 90/5/1 87/5/1 86/5/1
f 91/5/1 87/5/1 90/5/1
f 92/5/1 89/5/1 88/5/1
f 93/5/1 89/5/1 92/5/1
f 98/5/1 95/5/1 94/5/1
f 99/5/1 95/5/1 98/5/1
f 100/5/1 97/5/1 96/5/1
f 101/5/1 97/5/1 100/5/1
f 104/5/1 103/5/1 102/5/1
f 105/5/1 103/5/1 104/5/1
f 106/5/2 107/5/2 108/5/2
f 108/5/2 107/5/2 109/5/2
f 110/5/2 111/5/2 112/5/2
f 112/5/2 111/5/2 113/5/2
f 114/5/2 115/5/2 118/5/2
f 118/5/2 115/5/2 119/5/2
f 116/5/2 117/5/2 120/5/2
f 120/5/2 117/5/2 121/5/2
f 122/5/2 123/5/2 124/5/2
f 124/5/2 123/5/2 125/5/2
f 126/5/2 127/5/2 128/5/2
f 128/5/2 127/5/2 129/5/2
f 130/5/2 131/5/2 132/5/2
f 132/5/2 131/5/2 133/5/2
f 134/5/2 135/5/2 138/5/2
f 138/5/2 135/5/2 139/5/2
f 136/5/2 137/5/2 140/5/2
f 140/5/2 137/5/2 141/5/2
f 142/5/2 143/5/2 144/5/2
f 144/5/2 143/5/2 145/5/2
f 146/5/2 147/5/2 148/5/2
f 148/5/2 147/5/2 149/5/2
f 150/5/2 151/5/2 152/5/2
f 152/5/2 151/5/2 153/5/2
f 154/5/2 155/5/2 156/5/2
f 156/5/2 155/5/2 157/5/2
f 154/5/2 156/5/2 159/5/2
f 159/5/2 156/5/2 160/5/2
f 158/1/2 159/1/2 162/1/2
f 162/1/2 159/1/2 163/1/2
f 160/1/2 161/1/2 164/1/2
f 164/1/2 161/1/2 165/1/2
f 163/1/2 164/1/2 166/1/2
f 166/1/2 164/1/2 167/1/2
f 168/5/2 169/5/2 170/5/2
f 170/5/2 169/5/2 171/5/2
f 172/1/2 173/1/2 174/1/2
f 174/1/2 173/1/2 175/1/2
f 176/5/2 177/5/2 180/5/2
f 180/5/2 177/5/2 181/5/2
f 178/5/2 179/5/2 182/5/2
f 182/5/2 179/5/2 183/5/2
f 184/5/2 185/5/2 188/5/2
f 188/5/2 185/5/2 189/5/2
f 186/5/2 187/5/2 190/5/2
f 190/5/2 187/5/2 191/5/2
f 192/3/2 193/3/2 194/3/2
f 194/3/2 193/3/2 195/3/2
f 192/3/2 194/3/2 196/3/2
f 194/4/2 195/4/2 197/4/2
f 196/3/2 194/3/2 197/3/2
f 195/3/2 193/3/2 198/3/2
f 197/4/2 195/4/2 198/4/2
f 198/3/2 193/3/2 199/3/2
f 196/4/2 197/4/2 200/4/2
f 197/4/2 198/4/2 200/4/2
f 198/4/2 199/4/2 200/4/2
f 200/4/2 199/4/2 201/4/2
f 201/4/2 199/4/2 202/4/2
f 202/4/2 199/4/2 203/4/2
f 201/5/2 202/5/2 204/5/2
f 204/5/2 202/5/2 205/5/2
f 209/3/3 207/3/3 206/3/3
f 210/4/3 208/4/3 207/4/3
f 210/3/3 207/3/3 209/3/3
f 211/3/3 209/3/3 206/3/3
f 212/4/3 210/4/3 209/4/3
f 212/3/3 209/3/3 211/3/3
f 213/3/3 211/3/3 206/3/3
f 213/4/3 212/4/3 211/4/3
f 214/4/3 208/4/3 210/4/3
f 214/4/3 212/4/3 213/4/3
f 214/4/3 210/4/3 212/4/3
f 215/3/3 213/3/3 206/3/3
f 215/3/3 214/3/3 213/3/3
f 216/3/3 214/3/3 215/3/3
f 217/4/3 216/4/3 215/4/3
f 218/3/3 214/3/3 216/3/3
f 218/4/3 216/4/3 217/4/3
f 219/3/3 218/3/3 217/3/3
f 219/3/3 214/3/3 218/3/3
f 220/4/3 208/4/3 214/4/3
f 220/3/3 214/3/3 219/3/3
f 221/3/3 219/3/3 217/3/3
f 221/4/3 220/4/3 219/4/3
f 222/4/3 208/4/3 220/4/3
f 222/4/3 220/4/3 221/4/3
f 223/3/3 221/3/3 217/3/3
f 223/3/3 222/3/3 221/3/3
f 224/4/3 208/4/3 222/4/3
f 224/3/3 222/3/3 223/3/3
f 225/3/3 223/3/3 217/3/3
f 225/4/3 224/4/3 223/4/3
f 226/4/3 224/4/3 225/4/3
f 227/4/3 208/4/3 224/4/3
f 227/4/3 224/4/3 226/4/3
f 229/3/3 226/3/3 225/3/3
f 229/4/3 227/4/3 226/4/3
f 230/4/3 227/4/3 229/4/3
f 231/5/3 228/5/3 227/5/3
f 231/4/3 227/4/3 230/4/3
f 232/5/3 228/5/3 231/5/3
f 233/3/3 230/3/3 229/3/3
f 233/3/3 225/3/3 217/3/3
f 233/3/3 229/3/3 225/3/3
f 234/3/3 230/3/3 233/3/3
f 235/3/3 233/3/3 217/3/3
f 235/4/3 234/4/3 233/4/3
f 236/3/3 230/3/3 234/3/3
f 236/4/3 234/4/3 235/4/3
f 237/3/3 236/3/3 235/3/3
f 237/3/3 230/3/3 236/3/3
f 238/4/3 231/4/3 230/4/3
f 238/3/3 230/3/3 237/3/3
f 239/3/3 237/3/3 235/3/3
f 239/4/3 238/4/3 237/4/3
f 240/4/3 231/4/3 238/4/3
f 240/4/3 238/4/3 239/4/3
f 241/3/3 239/3/3 235/3/3
f 241/3/3 235/3/3 217/3/3
f 241/3/3 240/3/3 239/3/3
f 242/4/3 231/4/3 240/4/3
f 242/3/3 240/3/3 241/3/3
f 243/4/3 231/4/3 242/4/3
f 246/5/3 245/5/3 244/5/3
f 247/5/3 245/5/3 246/5/3
f 250/5/3 249/5/3 248/5/3
f 251/5/3 249/5/3 250/5/3
f 254/5/3 253/5/3 252/5/3
f 255/5/3 253/5/3 254/5/3
f 258/5/3 257/5/3 256/5/3
f 259/5/3 257/5/3 258/5/3
f 262/5/3 261/5/3 260/5/3
f 263/5/3 261/5/3 262/5/3
f 266/1/3 265/1/3 264/1/3
f 267/1/3 265/1/3 266/1/3
f 272/5/3 269/5/3 268/5/3
f 273/1/3 271/1/3 270/1/3
f 274/1/3 271/1/3 273/1/3
f 276/5/3 272/5/3 268/5/3
f 276/5/3 273/5/3 272/5/3
f 277/5/3 273/5/3 276/5/3
f 278/1/3 275/1/3 274/1/3
f 279/1/3 275/1/3 278/1/3
f 280/1/3 278/1/3 277/1/3
f 281/1/3 278/1/3 280/1/3
f 284/5/3 283/5/3 282/5/3
f 285/5/3 283/5/3 284/5/3
f 288/5/3 287/5/3 286/5/3
f 289/5/3 287/5/3 288/5/3
f 292/5/3 291/5/3 290/5/3
f 293/5/3 291/5/3 292/5/3
f 296/5/3 295/5/3 294/5/3
f 297/5/3 295/5/3 296/5/3
f 300/5/3 299/5/3 298/5/3
f 301/5/3 299/5/3 300/5/3
f 304/5/3 303/5/3 302/5/3
f 305/5/3 303/5/3 304/5/3
f 308/5/3 307/5/3 306/5/3
f 309/5/3 307/5/3 308/5/3
f 312/5/3 311/5/3 310/5/3
f 313/5/3 311/5/3 312/5/3
f 316/5/3 315/5/3 314/5/3
f 317/5/3 315/5/3 316/5/3
f 320/5/3 319/5/3 318/5/3
f 321/5/3 319/5/3 320/5/3
f 324/5/3 323/5/3 322/5/3
f 325/5/3 323/5/3 324/5/3
f 326/5/4 327/5/4 328/5/4
f 328/5/4 327/5/4 329/5/4
f 330/5/4 331/5/4 332/5/4
f 332/5/4 331/5/4 333/5/4
f 334/5/4 335/5/4 336/5/4
f 336/5/4 335/5/4 337/5/4
f 338/5/4 339/5/4 340/5/4
f 340/5/4 339/5/4 341/5/4
f 342/5/4 343/5/4 344/5/4
f 344/5/4 343/5/4 345/5/4
f 346/5/4 347/5/4 348/5/4
f 348/5/4 347/5/4 349/5/4
f 350/5/4 351/5/4 354/5/4
f 354/5/4 351/5/4 355/5/4
f 352/1/4 353/1/4 356/1/4
f 356/1/4 353/1/4 357/1/4
f 355/5/4 356/5/4 359/5/4
f 359/5/4 356/5/4 360/5/4
f 357/1/4 358/1/4 361/1/4
f 361/1/4 358/1/4 362/1/4
f 360/1/4 361/1/4 363/1/4
f 363/1/4 361/1/4 364/1/4
f 365/5/4 366/5/4 369/5/4
f 369/5/4 366/5/4 370/5/4
f 367/1/4 368/1/4 371/1/4
f 371/1/4 368/1/4 372/1/4
f 373/5/4 374/5/4 375/5/4
f 375/5/4 374/5/4 376/5/4
f 377/5/4 378/5/4 379/5/4
f 379/5/4 378/5/4 380/5/4
f 381/5/4 382/5/4 383/5/4
f 383/5/4 382/5/4 384/5/4
f 385/5/4 386/5/4 387/5/4
f 387/5/4 386/5/4 388/5/4
f 389/5/4 390/5/4 391/5/4
f 391/5/4 390/5/4 392/5/4
f 393/5/4 394/5/4 395/5/4
f 395/5/4 394/5/4 396/5/4
f 397/5/4 398/5/4 399/5/4
f 399/5/4 398/5/4 400/5/4
f 401/5/4 402/5/4 403/5/4
f 403/5/4 402/5/4 404/5/4
f 405/5/4 406/5/4 407/5/4
f 407/5/4 406/5/4 408/5/4
f 409/5/4 410/5/4 411/5/4
f 411/5/4 410/5/4 412/5/4
f 413/5/4 414/5/4 415/5/4
f 415/5/4 414/5/4 416/5/4
f 417/5/4 418/5/4 419/5/4
f 419/5/4 418/5/4 420/5/4
f 421/3/4 422/3/4 424/3/4
f 424/3/4 422/3/4 425/3/4
f 421/3/4 424/3/4 426/3/4
f 424/4/4 425/4/4 426/4/4
f 425/3/4 422/3/4 427/3/4
f 426/4/4 425/4/4 427/4/4
f 422/4/4 423/4/4 428/4/4
f 427/3/4 422/3/4 428/3/4
f 426/3/4 427/3/4 429/3/4
f 427/4/4 428/4/4 429/4/4
f 428/4/4 423/4/4 430/4/4
f 429/4/4 428/4/4 430/4/4
f 426/3/4 429/3/4 431/3/4
f 421/3/4 426/3/4 431/3/4
f 429/3/4 430/3/4 431/3/4
f 430/4/4 423/4/4 432/4/4
f 431/3/4 430/3/4 432/3/4
f 421/3/4 431/3/4 433/3/4
f 431/4/4 432/4/4 433/4/4
f 433/4/4 432/4/4 434/4/4
f 433/3/4 434/3/4 435/3/4
f 434/4/4 432/4/4 435/4/4
f 432/4/4 423/4/4 436/4/4
f 435/4/4 432/4/4 436/4/4
f 433/3/4 435/3/4 437/3/4
f 421/3/4 433/3/4 437/3/4
f 435/3/4 436/3/4 437/3/4
f 437/3/4 436/3/4 438/3/4
f 421/3/4 437/3/4 439/3/4
f 437/4/4 438/4/4 439/4/4
f 438/3/4 436/3/4 440/3/4
f 439/4/4 438/4/4 440/4/4
f 436/4/4 423/4/4 441/4/4
f 440/3/4 436/3/4 441/3/4
f 439/3/4 440/3/4 442/3/4
f 440/4/4 441/4/4 442/4/4
f 441/4/4 423/4/4 443/4/4
f 442/4/4 441/4/4 443/4/4
f 439/3/4 442/3/4 444/3/4
f 421/3/4 439/3/4 444/3/4
f 442/3/4 443/3/4 444/3/4
f 444/3/4 443/3/4 445/3/4
f 444/4/4 445/4/4 446/4/4
f 445/3/4 443/3/4 446/3/4
f 443/4/4 423/4/4 447/4/4
f 446/3/4 443/3/4 447/3/4
f 444/4/4 446/4/4 448/4/4
f 421/3/4 444/3/4 448/3/4
f 446/4/4 447/4/4 448/4/4
f 447/4/4 423/4/4 449/4/4
f 448/4/4 447/4/4 449/4/4
f 421/3/4 448/3/4 450/3/4
f 448/3/4 449/3/4 450/3/4
f 449/4/4 423/4/4 451/4/4
f 450/3/4 449/3/4 451/3/4
f 451/4/4 423/4/4 452/4/4
f 457/3/5 454/3/5 453/3/5
f 457/4/5 455/4/5 454/4/5
f 458/3/5 456/3/5 455/3/5
f 458/4/5 455/4/5 457/4/5
f 459/3/5 458/3/5 457/3/5
f 459/3/5 456/3/5 458/3/5
f 460/3/5 456/3/5 459/3/5
f 461/3/5 459/3/5 457/3/5
f 461/4/5 460/4/5 459/4/5
f 462/3/5 456/3/5 460/3/5
f 462/4/5 460/4/5 461/4/5
f 463/3/5 457/3/5 453/3/5
f 463/3/5 461/3/5 457/3/5
f 463/3/5 462/3/5 461/3/5
f 464/3/5 456/3/5 462/3/5
f 464/3/5 462/3/5 463/3/5
f 468/1/5 466/1/5 465/1/5
f 469/1/5 466/1/5 468/1/5
f 471/1/5 468/1/5 467/1/5
f 472/1/5 468/1/5 471/1/5
f 473/1/5 470/1/5 469/1/5
f 474/1/5 470/1/5 473/1/5
f 475/1/5 473/1/5 472/1/5
f 476/1/5 473/1/5 475/1/5
f 477/4/6 478/4/6 481/4/6
f 481/4/6 478/4/6 482/4/6
f 482/4/6 478/4/6 483/4/6
f 479/4/6 480/4/6 484/4/6
f 477/4/6 481/4/6 485/4/6
f 482/4/6 483/4/6 486/4/6
f 483/4/6 484/4/6 486/4/6
f 486/4/6 484/4/6 487/4/6
f 485/4/6 486/4/6 487/4/6
f 487/4/6 484/4/6 488/4/6
f 485/4/6 487/4/6 489/4/6
f 488/4/6 484/4/6 490/4/6
f 477/4/6 485/4/6 491/4/6
f 489/4/6 490/4/6 491/4/6
f 485/4/6 489/4/6 491/4/6
f 491/4/6 490/4/6 492/4/6
f 490/4/6 484/4/6 493/4/6
f 492/4/6 490/4/6 493/4/6
f 484/4/6 480/4/6 493/4/6
f 493/4/6 480/4/6 494/4/6
f 477/4/6 491/4/6 495/4/6
f 495/4/6 491/4/6 496/4/6
f 496/4/6 491/4/6 497/4/6
f 492/4/6 493/4/6 498/4/6
f 498/4/6 493/4/6 499/4/6
f 494/4/6 480/4/6 500/4/6
f 495/6/6 496/6/6 501/6/6
f 498/4/6 499/4/6 502/4/6
f 501/6/6 496/6/6 502/6/6
f 496/4/6 497/4/6 502/4/6
f 499/4/6 500/4/6 502/4/6
f 497/4/6 498/4/6 502/4/6
f 502/4/6 500/4/6 503/4/6
f 503/4/6 500/4/6 504/4/6
f 501/4/6 502/4/6 505/4/6
f 502/4/6 503/4/6 505/4/6
f 505/4/6 503/4/6 506/4/6
f 506/4/6 503/4/6 507/4/6
f 504/4/6 500/4/6 508/4/6
f 501/4/6 505/4/6 509/4/6
f 505/6/6 506/6/6 509/6/6
f 506/4/6 507/4/6 510/4/6
f 509/6/6 506/6/6 510/6/6
f 507/4/6 508/4/6 510/4/6
f 509/4/6 510/4/6 511/4/6
f 510/4/6 508/4/6 511/4/6
f 511/4/6 508/4/6 512/4/6
f 501/4/6 509/4/6 513/4/6
f 509/4/6 511/4/6 513/4/6
f 513/4/6 511/4/6 514/4/6
f 514/4/6 511/4/6 515/4/6
f 515/4/6 516/4/6 517/4/6
f 514/4/6 515/4/6 517/4/6
f 512/4/6 508/4/6 518/4/6
f 508/4/6 500/4/6 519/4/6
f 518/4/6 508/4/6 519/4/6
f 519/4/6 500/4/6 520/4/6
f 500/4/6 480/4/6 521/4/6
f 520/4/6 500/4/6 521/4/6
f 521/4/6 480/4/6 522/4/6
f 501/4/6 513/4/6 523/4/6
f 514/4/6 517/4/6 524/4/6
f 517/4/6 518/4/6 524/4/6
f 518/4/6 519/4/6 524/4/6
f 519/6/6 520/6/6 525/6/6
f 524/4/6 519/4/6 525/4/6
f 520/4/6 521/4/6 526/4/6
f 525/6/6 520/6/6 526/6/6
f 526/4/6 521/4/6 527/4/6
f 523/4/6 524/4/6 529/4/6
f 527/4/6 528/4/6 529/4/6
f 526/4/6 527/4/6 529/4/6
f 525/4/6 526/4/6 529/4/6
f 524/4/6 525/4/6 529/4/6
f 529/4/6 528/4/6 530/4/6
f 530/4/6 528/4/6 531/4/6
f 531/4/6 528/4/6 532/4/6
f 523/4/6 529/4/6 533/4/6
f 533/4/6 529/4/6 534/4/6
f 530/4/6 531/4/6 536/4/6
f 531/6/6 532/6/6 537/6/6
f 536/4/6 531/4/6 537/4/6
f 532/4/6 528/4/6 538/4/6
f 537/6/6 532/6/6 538/6/6
f 538/4/6 528/4/6 539/4/6
f 539/4/6 528/4/6 540/4/6
f 523/4/6 533/4/6 541/4/6
f 534/4/6 529/4/6 542/4/6
f 542/4/6 529/4/6 543/4/6
f 536/4/6 537/4/6 544/4/6
f 535/4/6 536/4/6 544/4/6
f 537/4/6 538/4/6 544/4/6
f 538/4/6 539/4/6 544/4/6
f 539/6/6 540/6/6 545/6/6
f 544/4/6 539/4/6 545/4/6
f 540/4/6 528/4/6 546/4/6
f 545/6/6 540/6/6 546/6/6
f 501/4/6 523/4/6 547/4/6
f 542/4/6 543/4/6 547/4/6
f 545/4/6 546/4/6 547/4/6
f 541/4/6 542/4/6 547/4/6
f 523/4/6 541/4/6 547/4/6
f 544/4/6 545/4/6 547/4/6
f 543/4/6 544/4/6 547/4/6
f 547/4/6 546/4/6 548/4/6
f 548/4/6 546/4/6 549/4/6
f 549/4/6 546/4/6 550/4/6
f 501/4/6 547/4/6 551/4/6
f 548/4/6 549/4/6 552/4/6
f 552/4/6 549/4/6 553/4/6
f 553/4/6 549/4/6 554/4/6
f 551/4/6 552/4/6 555/4/6
f 552/4/6 553/4/6 555/4/6
f 555/4/6 553/4/6 556/4/6
f 556/4/6 553/4/6 557/4/6
f 554/4/6 549/4/6 558/4/6
f 558/4/6 549/4/6 559/4/6
f 550/4/6 546/4/6 560/4/6
f 551/4/6 555/4/6 561/4/6
f 555/6/6 556/6/6 561/6/6
f 558/4/6 559/4/6 562/4/6
f 561/6/6 556/6/6 562/6/6
f 556/4/6 557/4/6 562/4/6
f 559/4/6 560/4/6 562/4/6
f 557/4/6 558/4/6 562/4/6
f 546/4/6 528/4/6 563/4/6
f 562/4/6 560/4/6 563/4/6
f 560/4/6 546/4/6 563/4/6
f 563/4/6 528/4/6 564/4/6
f 561/4/6 562/4/6 565/4/6
f 562/4/6 563/4/6 565/4/6
f 563/6/6 564/6/6 565/6/6
f 564/4/6 528/4/6 566/4/6
f 565/6/6 564/6/6 566/6/6
f 561/4/6 565/4/6 567/4/6
f 551/4/6 561/4/6 567/4/6
f 565/4/6 566/4/6 567/4/6
f 567/4/6 566/4/6 568/4/6
f 551/4/6 567/4/6 569/4/6
f 568/4/6 566/4/6 570/4/6
f 570/4/6 566/4/6 571/4/6
f 571/4/6 566/4/6 572/4/6
f 569/4/6 570/4/6 573/4/6
f 570/4/6 571/4/6 573/4/6
f 573/4/6 571/4/6 574/4/6
f 571/6/6 572/6/6 575/6/6
f 574/4/6 571/4/6 575/4/6
f 572/4/6 566/4/6 576/4/6
f 575/6/6 572/6/6 576/6/6
f 576/4/6 566/4/6 577/4/6
f 566/4/6 528/4/6 578/4/6
f 577/4/6 566/4/6 578/4/6
f 569/4/6 573/4/6 579/4/6
f 579/4/6 573/4/6 580/4/6
f 580/4/6 573/4/6 581/4/6
f 576/4/6 577/4/6 582/4/6
f 574/4/6 575/4/6 582/4/6
f 575/4/6 576/4/6 582/4/6
f 582/4/6 577/4/6 583/4/6
f 578/4/6 528/4/6 584/4/6
f 569/4/6 579/4/6 585/4/6
f 580/4/6 581/4/6 586/4/6
f 583/4/6 584/4/6 586/4/6
f 582/4/6 583/4/6 586/4/6
f 581/4/6 582/4/6 586/4/6
f 569/4/6 585/4/6 587/4/6
f 585/4/6 586/4/6 587/4/6
f 501/4/6 551/4/6 587/4/6
f 551/4/6 569/4/6 587/4/6
f 586/4/6 584/4/6 588/4/6
f 587/4/6 586/4/6 588/4/6
f 584/4/6 528/4/6 588/4/6
f 589/5/6 590/5/6 593/5/6
f 593/5/6 590/5/6 594/5/6
f 591/5/6 592/5/6 595/5/6
f 595/5/6 592/5/6 596/5/6
f 597/5/6 598/5/6 599/5/6
f 599/5/6 598/5/6 600/5/6
f 601/5/6 602/5/6 605/5/6
f 605/5/6 602/5/6 606/5/6
f 603/5/6 604/5/6 607/5/6
f 607/5/6 604/5/6 608/5/6
f 609/5/6 610/5/6 611/5/6
f 611/5/6 610/5/6 612/5/6
f 613/5/6 614/5/6 617/5/6
f 617/5/6 614/5/6 618/5/6
f 618/5/6 619/5/6 620/5/6
f 620/5/6 619/5/6 621/5/6
f 615/5/6 616/5/6 624/5/6
f 624/5/6 616/5/6 625/5/6
f 622/5/6 623/5/6 626/5/6
f 626/5/6 623/5/6 627/5/6
f 628/5/6 629/5/6 632/5/6
f 632/5/6 629/5/6 633/5/6
f 630/5/6 631/5/6 634/5/6
f 634/5/6 631/5/6 635/5/6
f 628/5/6 632/5/6 636/5/6
f 636/5/6 632/5/6 637/5/6
f 638/5/6 639/5/6 642/5/6
f 642/5/6 639/5/6 643/5/6
f 644/5/6 645/5/6 646/5/6
f 646/5/6 645/5/6 647/5/6
f 640/5/6 641/5/6 648/5/6
f 648/5/6 641/5/6 649/5/6
f 650/5/6 651/5/6 652/5/6
f 652/5/6 651/5/6 653/5/6
f 654/5/6 655/5/6 660/5/6
f 660/5/6 655/5/6 661/5/6
f 656/5/6 657/5/6 662/5/6
f 662/5/6 657/5/6 663/5/6
f 658/5/6 659/5/6 664/5/6
f 664/5/6 659/5/6 665/5/6
f 666/1/6 667/1/6 669/1/6
f 669/1/6 667/1/6 670/1/6
f 668/1/6 669/1/6 672/1/6
f 672/1/6 669/1/6 673/1/6
f 670/1/6 671/1/6 674/1/6
f 674/1/6 671/1/6 675/1/6
f 673/1/6 674/1/6 676/1/6
f 676/1/6 674/1/6 677/1/6
f 678/1/6 679/1/6 680/1/6
f 680/1/6 679/1/6 681/1/6
