# MagicaVoxel @ Ephtracy

# group
g 002_005_01

# material
mtllib 002_005_01.mtl
usemtl palette

# normals
vn -1 0 0
vn 1 0 0
vn 0 0 1
vn 0 0 -1
vn 0 -1 0
vn 0 1 0

# texcoords
vt 0.908203 0.5
vt 0.970703 0.5
vt 0.974609 0.5
vt 0.978516 0.5

# verts
v -16 0 16
v -16 0 -16
v -16 3 16
v -16 3 -6
v -16 3 -7
v -16 3 -16
v -16 4 -6
v -16 4 -7
v -13 3 13
v -13 3 12
v -13 4 13
v -13 4 12
v -12 3 -12
v -12 3 -13
v -12 4 -12
v -12 4 -13
v -9 3 5
v -9 3 4
v -9 4 5
v -9 4 4
v -9 5 5
v -9 5 4
v -9 6 5
v -9 6 4
v -8 3 4
v -8 3 3
v -8 4 5
v -8 4 4
v -8 4 3
v -8 5 6
v -8 5 5
v -8 5 4
v -8 5 3
v -8 6 6
v -8 6 5
v -8 6 4
v -8 6 3
v -8 7 5
v -8 7 4
v -7 3 16
v -7 3 15
v -7 4 16
v -7 4 15
v -6 3 8
v -6 3 7
v -6 3 -5
v -6 3 -7
v -6 4 8
v -6 4 7
v -6 4 -5
v -6 4 -7
v 0 3 10
v 0 3 9
v 0 3 -12
v 0 3 -13
v 0 4 10
v 0 4 9
v 0 4 -12
v 0 4 -13
v 2 3 3
v 2 3 2
v 2 4 3
v 2 4 2
v 4 3 -5
v 4 3 -6
v 4 4 -5
v 4 4 -6
v 8 3 4
v 8 3 2
v 8 4 4
v 8 4 2
v 9 3 10
v 9 3 9
v 9 3 -2
v 9 3 -3
v 9 4 10
v 9 4 9
v 9 4 -2
v 9 4 -3
v 10 3 -10
v 10 3 -11
v 10 4 -10
v 10 4 -11
v 12 3 15
v 12 3 14
v 12 4 15
v 12 4 14
v 14 3 -1
v 14 3 -3
v 14 4 -1
v 14 4 -3
v 15 3 -13
v 15 3 -14
v 15 4 -13
v 15 4 -14
v -15 3 -6
v -15 3 -7
v -15 4 -6
v -15 4 -7
v -12 3 13
v -12 3 12
v -12 4 13
v -12 4 12
v -11 3 -12
v -11 3 -13
v -11 4 -12
v -11 4 -13
v -7 3 5
v -7 3 3
v -7 4 4
v -7 4 3
v -7 5 6
v -7 5 5
v -7 5 4
v -7 5 3
v -7 6 6
v -7 6 5
v -7 6 4
v -7 6 3
v -7 7 5
v -7 7 4
v -6 3 16
v -6 3 15
v -6 4 16
v -6 4 15
v -6 5 5
v -6 5 4
v -6 6 5
v -6 6 4
v -5 3 8
v -5 3 7
v -5 3 -5
v -5 3 -7
v -5 4 8
v -5 4 7
v -5 4 -5
v -5 4 -7
v 1 3 10
v 1 3 9
v 1 3 -12
v 1 3 -13
v 1 4 10
v 1 4 9
v 1 4 -12
v 1 4 -13
v 3 3 3
v 3 3 2
v 3 4 3
v 3 4 2
v 5 3 -5
v 5 3 -6
v 5 4 -5
v 5 4 -6
v 9 3 4
v 9 3 2
v 9 4 4
v 9 4 2
v 10 3 10
v 10 3 9
v 10 3 -2
v 10 3 -3
v 10 4 10
v 10 4 9
v 10 4 -2
v 10 4 -3
v 11 3 -10
v 11 3 -11
v 11 4 -10
v 11 4 -11
v 13 3 15
v 13 3 14
v 13 4 15
v 13 4 14
v 15 3 -2
v 15 3 -3
v 15 4 -2
v 15 4 -3
v 16 0 16
v 16 0 -16
v 16 3 16
v 16 3 -1
v 16 3 -2
v 16 3 -13
v 16 3 -14
v 16 3 -16
v 16 4 -1
v 16 4 -2
v 16 4 -13
v 16 4 -14
v -16 0 16
v -16 3 16
v -7 3 16
v -7 4 16
v -6 3 16
v -6 4 16
v 16 0 16
v 16 3 16
v 12 3 15
v 12 4 15
v 13 3 15
v 13 4 15
v -13 3 13
v -13 4 13
v -12 3 13
v -12 4 13
v 0 3 10
v 0 4 10
v 1 3 10
v 1 4 10
v 9 3 10
v 9 4 10
v 10 3 10
v 10 4 10
v -6 3 8
v -6 4 8
v -5 3 8
v -5 4 8
v -8 5 6
v -8 6 6
v -7 5 6
v -7 6 6
v -9 3 5
v -9 4 5
v -9 5 5
v -9 6 5
v -8 4 5
v -8 5 5
v -8 6 5
v -8 7 5
v -7 3 5
v -7 5 5
v -7 6 5
v -7 7 5
v -6 5 5
v -6 6 5
v 8 3 4
v 8 4 4
v 9 3 4
v 9 4 4
v 2 3 3
v 2 4 3
v 3 3 3
v 3 4 3
v 14 3 -1
v 14 4 -1
v 16 3 -1
v 16 4 -1
v 9 3 -2
v 9 4 -2
v 10 3 -2
v 10 4 -2
v -6 3 -5
v -6 4 -5
v -5 3 -5
v -5 4 -5
v 4 3 -5
v 4 4 -5
v 5 3 -5
v 5 4 -5
v -16 3 -6
v -16 4 -6
v -15 3 -6
v -15 4 -6
v 10 3 -10
v 10 4 -10
v 11 3 -10
v 11 4 -10
v -12 3 -12
v -12 4 -12
v -11 3 -12
v -11 4 -12
v 0 3 -12
v 0 4 -12
v 1 3 -12
v 1 4 -12
v 15 3 -13
v 15 4 -13
v 16 3 -13
v 16 4 -13
v -7 3 15
v -7 4 15
v -6 3 15
v -6 4 15
v 12 3 14
v 12 4 14
v 13 3 14
v 13 4 14
v -13 3 12
v -13 4 12
v -12 3 12
v -12 4 12
v 0 3 9
v 0 4 9
v 1 3 9
v 1 4 9
v 9 3 9
v 9 4 9
v 10 3 9
v 10 4 9
v -6 3 7
v -6 4 7
v -5 3 7
v -5 4 7
v -9 3 4
v -9 4 4
v -9 5 4
v -9 6 4
v -8 3 4
v -8 4 4
v -8 5 4
v -8 6 4
v -8 7 4
v -7 4 4
v -7 5 4
v -7 6 4
v -7 7 4
v -6 5 4
v -6 6 4
v -8 3 3
v -8 4 3
v -8 5 3
v -8 6 3
v -7 3 3
v -7 4 3
v -7 5 3
v -7 6 3
v 2 3 2
v 2 4 2
v 3 3 2
v 3 4 2
v 8 3 2
v 8 4 2
v 9 3 2
v 9 4 2
v 15 3 -2
v 15 4 -2
v 16 3 -2
v 16 4 -2
v 9 3 -3
v 9 4 -3
v 10 3 -3
v 10 4 -3
v 14 3 -3
v 14 4 -3
v 15 3 -3
v 15 4 -3
v 4 3 -6
v 4 4 -6
v 5 3 -6
v 5 4 -6
v -16 3 -7
v -16 4 -7
v -15 3 -7
v -15 4 -7
v -6 3 -7
v -6 4 -7
v -5 3 -7
v -5 4 -7
v 10 3 -11
v 10 4 -11
v 11 3 -11
v 11 4 -11
v -12 3 -13
v -12 4 -13
v -11 3 -13
v -11 4 -13
v 0 3 -13
v 0 4 -13
v 1 3 -13
v 1 4 -13
v 15 3 -14
v 15 4 -14
v 16 3 -14
v 16 4 -14
v -16 0 -16
v -16 3 -16
v 16 0 -16
v 16 3 -16
v -16 0 16
v 16 0 16
v -16 0 -16
v 16 0 -16
v -8 5 6
v -7 5 6
v -9 5 5
v -8 5 5
v -7 5 5
v -6 5 5
v -9 5 4
v -8 5 4
v -7 5 4
v -6 5 4
v -8 5 3
v -7 5 3
v -16 3 16
v -7 3 16
v -6 3 16
v 16 3 16
v -7 3 15
v -6 3 15
v 12 3 15
v 13 3 15
v 12 3 14
v 13 3 14
v -13 3 13
v -12 3 13
v -13 3 12
v -12 3 12
v 0 3 10
v 1 3 10
v 9 3 10
v 10 3 10
v 0 3 9
v 1 3 9
v 3 3 9
v 4 3 9
v 9 3 9
v 10 3 9
v -6 3 8
v -5 3 8
v 3 3 8
v 4 3 8
v -6 3 7
v -5 3 7
v 14 3 7
v 15 3 7
v 14 3 6
v 15 3 6
v -9 3 5
v -7 3 5
v -9 3 4
v -8 3 4
v 8 3 4
v 9 3 4
v -8 3 3
v -7 3 3
v -1 3 3
v 0 3 3
v 2 3 3
v 3 3 3
v -1 3 2
v 0 3 2
v 2 3 2
v 3 3 2
v 8 3 2
v 9 3 2
v -12 3 -1
v -11 3 -1
v 14 3 -1
v 16 3 -1
v -12 3 -2
v -11 3 -2
v -3 3 -2
v -2 3 -2
v 9 3 -2
v 10 3 -2
v 15 3 -2
v 16 3 -2
v -3 3 -3
v -2 3 -3
v 9 3 -3
v 10 3 -3
v 14 3 -3
v 15 3 -3
v -6 3 -5
v -5 3 -5
v 4 3 -5
v 5 3 -5
v -16 3 -6
v -15 3 -6
v 4 3 -6
v 5 3 -6
v -16 3 -7
v -15 3 -7
v -6 3 -7
v -5 3 -7
v 13 3 -7
v 14 3 -7
v 0 3 -8
v 1 3 -8
v 13 3 -8
v 14 3 -8
v 0 3 -9
v 1 3 -9
v 10 3 -10
v 11 3 -10
v -6 3 -11
v -5 3 -11
v 10 3 -11
v 11 3 -11
v -12 3 -12
v -11 3 -12
v -6 3 -12
v -5 3 -12
v 0 3 -12
v 1 3 -12
v -12 3 -13
v -11 3 -13
v 0 3 -13
v 1 3 -13
v 15 3 -13
v 16 3 -13
v 15 3 -14
v 16 3 -14
v -16 3 -16
v 16 3 -16
v -7 4 16
v -6 4 16
v -7 4 15
v -6 4 15
v 12 4 15
v 13 4 15
v 12 4 14
v 13 4 14
v -13 4 13
v -12 4 13
v -13 4 12
v -12 4 12
v 0 4 10
v 1 4 10
v 9 4 10
v 10 4 10
v 0 4 9
v 1 4 9
v 9 4 9
v 10 4 9
v -6 4 8
v -5 4 8
v -6 4 7
v -5 4 7
v -9 4 5
v -8 4 5
v -9 4 4
v -8 4 4
v -7 4 4
v 8 4 4
v 9 4 4
v -8 4 3
v -7 4 3
v 2 4 3
v 3 4 3
v 2 4 2
v 3 4 2
v 8 4 2
v 9 4 2
v 14 4 -1
v 16 4 -1
v 9 4 -2
v 10 4 -2
v 15 4 -2
v 16 4 -2
v 9 4 -3
v 10 4 -3
v 14 4 -3
v 15 4 -3
v -6 4 -5
v -5 4 -5
v 4 4 -5
v 5 4 -5
v -16 4 -6
v -15 4 -6
v 4 4 -6
v 5 4 -6
v -16 4 -7
v -15 4 -7
v -6 4 -7
v -5 4 -7
v 10 4 -10
v 11 4 -10
v 10 4 -11
v 11 4 -11
v -12 4 -12
v -11 4 -12
v 0 4 -12
v 1 4 -12
v -12 4 -13
v -11 4 -13
v 0 4 -13
v 1 4 -13
v 15 4 -13
v 16 4 -13
v 15 4 -14
v 16 4 -14
v -8 6 6
v -7 6 6
v -9 6 5
v -8 6 5
v -7 6 5
v -6 6 5
v -9 6 4
v -8 6 4
v -7 6 4
v -6 6 4
v -8 6 3
v -7 6 3
v -8 7 5
v -7 7 5
v -8 7 4
v -7 7 4

# faces
f 3/2/1 2/2/1 1/2/1
f 4/2/1 2/2/1 3/2/1
f 5/2/1 2/2/1 4/2/1
f 6/2/1 2/2/1 5/2/1
f 7/3/1 5/3/1 4/3/1
f 8/3/1 5/3/1 7/3/1
f 11/3/1 10/3/1 9/3/1
f 12/3/1 10/3/1 11/3/1
f 15/3/1 14/3/1 13/3/1
f 16/3/1 14/3/1 15/3/1
f 19/3/1 18/3/1 17/3/1
f 20/3/1 18/3/1 19/3/1
f 23/1/1 22/1/1 21/1/1
f 24/1/1 22/1/1 23/1/1
f 28/3/1 26/3/1 25/3/1
f 29/3/1 26/3/1 28/3/1
f 31/3/1 28/3/1 27/3/1
f 32/3/1 28/3/1 31/3/1
f 34/1/1 31/1/1 30/1/1
f 35/1/1 31/1/1 34/1/1
f 36/1/1 33/1/1 32/1/1
f 37/1/1 33/1/1 36/1/1
f 38/1/1 36/1/1 35/1/1
f 39/1/1 36/1/1 38/1/1
f 42/3/1 41/3/1 40/3/1
f 43/3/1 41/3/1 42/3/1
f 48/3/1 45/3/1 44/3/1
f 49/3/1 45/3/1 48/3/1
f 50/3/1 47/3/1 46/3/1
f 51/3/1 47/3/1 50/3/1
f 56/3/1 53/3/1 52/3/1
f 57/3/1 53/3/1 56/3/1
f 58/3/1 55/3/1 54/3/1
f 59/3/1 55/3/1 58/3/1
f 62/3/1 61/3/1 60/3/1
f 63/3/1 61/3/1 62/3/1
f 66/3/1 65/3/1 64/3/1
f 67/3/1 65/3/1 66/3/1
f 70/3/1 69/3/1 68/3/1
f 71/3/1 69/3/1 70/3/1
f 76/3/1 73/3/1 72/3/1
f 77/3/1 73/3/1 76/3/1
f 78/3/1 75/3/1 74/3/1
f 79/3/1 75/3/1 78/3/1
f 82/3/1 81/3/1 80/3/1
f 83/3/1 81/3/1 82/3/1
f 86/3/1 85/3/1 84/3/1
f 87/3/1 85/3/1 86/3/1
f 90/3/1 89/3/1 88/3/1
f 91/3/1 89/3/1 90/3/1
f 94/3/1 93/3/1 92/3/1
f 95/3/1 93/3/1 94/3/1
f 96/3/2 97/3/2 98/3/2
f 98/3/2 97/3/2 99/3/2
f 100/3/2 101/3/2 102/3/2
f 102/3/2 101/3/2 103/3/2
f 104/3/2 105/3/2 106/3/2
f 106/3/2 105/3/2 107/3/2
f 108/3/2 109/3/2 110/3/2
f 110/3/2 109/3/2 111/3/2
f 108/3/2 110/3/2 113/3/2
f 113/3/2 110/3/2 114/3/2
f 112/1/2 113/1/2 116/1/2
f 116/1/2 113/1/2 117/1/2
f 114/1/2 115/1/2 118/1/2
f 118/1/2 115/1/2 119/1/2
f 117/1/2 118/1/2 120/1/2
f 120/1/2 118/1/2 121/1/2
f 122/3/2 123/3/2 124/3/2
f 124/3/2 123/3/2 125/3/2
f 126/1/2 127/1/2 128/1/2
f 128/1/2 127/1/2 129/1/2
f 130/3/2 131/3/2 134/3/2
f 134/3/2 131/3/2 135/3/2
f 132/3/2 133/3/2 136/3/2
f 136/3/2 133/3/2 137/3/2
f 138/3/2 139/3/2 142/3/2
f 142/3/2 139/3/2 143/3/2
f 140/3/2 141/3/2 144/3/2
f 144/3/2 141/3/2 145/3/2
f 146/3/2 147/3/2 148/3/2
f 148/3/2 147/3/2 149/3/2
f 150/3/2 151/3/2 152/3/2
f 152/3/2 151/3/2 153/3/2
f 154/3/2 155/3/2 156/3/2
f 156/3/2 155/3/2 157/3/2
f 158/3/2 159/3/2 162/3/2
f 162/3/2 159/3/2 163/3/2
f 160/3/2 161/3/2 164/3/2
f 164/3/2 161/3/2 165/3/2
f 166/3/2 167/3/2 168/3/2
f 168/3/2 167/3/2 169/3/2
f 170/3/2 171/3/2 172/3/2
f 172/3/2 171/3/2 173/3/2
f 174/3/2 175/3/2 176/3/2
f 176/3/2 175/3/2 177/3/2
f 178/2/2 179/2/2 180/2/2
f 180/2/2 179/2/2 181/2/2
f 181/2/2 179/2/2 182/2/2
f 182/2/2 179/2/2 183/2/2
f 183/2/2 179/2/2 184/2/2
f 184/2/2 179/2/2 185/2/2
f 181/3/2 182/3/2 186/3/2
f 186/3/2 182/3/2 187/3/2
f 183/3/2 184/3/2 188/3/2
f 188/3/2 184/3/2 189/3/2
f 192/2/3 191/2/3 190/2/3
f 194/2/3 192/2/3 190/2/3
f 194/3/3 193/3/3 192/3/3
f 195/3/3 193/3/3 194/3/3
f 196/2/3 194/2/3 190/2/3
f 197/2/3 194/2/3 196/2/3
f 200/3/3 199/3/3 198/3/3
f 201/3/3 199/3/3 200/3/3
f 204/3/3 203/3/3 202/3/3
f 205/3/3 203/3/3 204/3/3
f 208/3/3 207/3/3 206/3/3
f 209/3/3 207/3/3 208/3/3
f 212/3/3 211/3/3 210/3/3
f 213/3/3 211/3/3 212/3/3
f 216/3/3 215/3/3 214/3/3
f 217/3/3 215/3/3 216/3/3
f 220/1/3 219/1/3 218/1/3
f 221/1/3 219/1/3 220/1/3
f 226/3/3 223/3/3 222/3/3
f 227/1/3 225/1/3 224/1/3
f 228/1/3 225/1/3 227/1/3
f 230/3/3 226/3/3 222/3/3
f 230/3/3 227/3/3 226/3/3
f 231/3/3 227/3/3 230/3/3
f 232/1/3 229/1/3 228/1/3
f 233/1/3 229/1/3 232/1/3
f 234/1/3 232/1/3 231/1/3
f 235/1/3 232/1/3 234/1/3
f 238/3/3 237/3/3 236/3/3
f 239/3/3 237/3/3 238/3/3
f 242/3/3 241/3/3 240/3/3
f 243/3/3 241/3/3 242/3/3
f 246/3/3 245/3/3 244/3/3
f 247/3/3 245/3/3 246/3/3
f 250/3/3 249/3/3 248/3/3
f 251/3/3 249/3/3 250/3/3
f 254/3/3 253/3/3 252/3/3
f 255/3/3 253/3/3 254/3/3
f 258/3/3 257/3/3 256/3/3
f 259/3/3 257/3/3 258/3/3
f 262/3/3 261/3/3 260/3/3
f 263/3/3 261/3/3 262/3/3
f 266/3/3 265/3/3 264/3/3
f 267/3/3 265/3/3 266/3/3
f 270/3/3 269/3/3 268/3/3
f 271/3/3 269/3/3 270/3/3
f 274/3/3 273/3/3 272/3/3
f 275/3/3 273/3/3 274/3/3
f 278/3/3 277/3/3 276/3/3
f 279/3/3 277/3/3 278/3/3
f 280/3/4 281/3/4 282/3/4
f 282/3/4 281/3/4 283/3/4
f 284/3/4 285/3/4 286/3/4
f 286/3/4 285/3/4 287/3/4
f 288/3/4 289/3/4 290/3/4
f 290/3/4 289/3/4 291/3/4
f 292/3/4 293/3/4 294/3/4
f 294/3/4 293/3/4 295/3/4
f 296/3/4 297/3/4 298/3/4
f 298/3/4 297/3/4 299/3/4
f 300/3/4 301/3/4 302/3/4
f 302/3/4 301/3/4 303/3/4
f 304/3/4 305/3/4 308/3/4
f 308/3/4 305/3/4 309/3/4
f 306/1/4 307/1/4 310/1/4
f 310/1/4 307/1/4 311/1/4
f 309/3/4 310/3/4 313/3/4
f 313/3/4 310/3/4 314/3/4
f 311/1/4 312/1/4 315/1/4
f 315/1/4 312/1/4 316/1/4
f 314/1/4 315/1/4 317/1/4
f 317/1/4 315/1/4 318/1/4
f 319/3/4 320/3/4 323/3/4
f 323/3/4 320/3/4 324/3/4
f 321/1/4 322/1/4 325/1/4
f 325/1/4 322/1/4 326/1/4
f 327/3/4 328/3/4 329/3/4
f 329/3/4 328/3/4 330/3/4
f 331/3/4 332/3/4 333/3/4
f 333/3/4 332/3/4 334/3/4
f 335/3/4 336/3/4 337/3/4
f 337/3/4 336/3/4 338/3/4
f 339/3/4 340/3/4 341/3/4
f 341/3/4 340/3/4 342/3/4
f 343/3/4 344/3/4 345/3/4
f 345/3/4 344/3/4 346/3/4
f 347/3/4 348/3/4 349/3/4
f 349/3/4 348/3/4 350/3/4
f 351/3/4 352/3/4 353/3/4
f 353/3/4 352/3/4 354/3/4
f 355/3/4 356/3/4 357/3/4
f 357/3/4 356/3/4 358/3/4
f 359/3/4 360/3/4 361/3/4
f 361/3/4 360/3/4 362/3/4
f 363/3/4 364/3/4 365/3/4
f 365/3/4 364/3/4 366/3/4
f 367/3/4 368/3/4 369/3/4
f 369/3/4 368/3/4 370/3/4
f 371/3/4 372/3/4 373/3/4
f 373/3/4 372/3/4 374/3/4
f 375/2/4 376/2/4 377/2/4
f 377/2/4 376/2/4 378/2/4
f 381/2/5 380/2/5 379/2/5
f 382/2/5 380/2/5 381/2/5
f 386/1/5 384/1/5 383/1/5
f 387/1/5 384/1/5 386/1/5
f 389/1/5 386/1/5 385/1/5
f 390/1/5 386/1/5 389/1/5
f 391/1/5 388/1/5 387/1/5
f 392/1/5 388/1/5 391/1/5
f 393/1/5 391/1/5 390/1/5
f 394/1/5 391/1/5 393/1/5
f 395/2/6 396/2/6 399/2/6
f 397/2/6 398/2/6 400/2/6
f 400/2/6 398/2/6 401/2/6
f 401/2/6 398/2/6 402/2/6
f 399/2/6 400/2/6 403/2/6
f 400/2/6 401/2/6 403/2/6
f 402/2/6 398/2/6 404/2/6
f 395/2/6 399/2/6 405/2/6
f 403/2/6 404/2/6 405/2/6
f 399/2/6 403/2/6 405/2/6
f 405/2/6 404/2/6 406/2/6
f 395/2/6 405/2/6 407/2/6
f 406/2/6 404/2/6 408/2/6
f 408/2/6 404/2/6 409/2/6
f 407/2/6 408/2/6 409/2/6
f 409/2/6 404/2/6 410/2/6
f 410/2/6 404/2/6 411/2/6
f 411/2/6 404/2/6 412/2/6
f 407/2/6 409/2/6 413/2/6
f 410/2/6 411/2/6 414/2/6
f 414/2/6 411/2/6 415/2/6
f 415/2/6 411/2/6 416/2/6
f 416/2/6 411/2/6 417/2/6
f 412/2/6 404/2/6 418/2/6
f 407/2/6 413/2/6 419/2/6
f 413/2/6 414/2/6 419/2/6
f 414/2/6 415/2/6 419/2/6
f 419/2/6 415/2/6 420/2/6
f 415/4/6 416/4/6 421/4/6
f 420/2/6 415/2/6 421/2/6
f 416/2/6 417/2/6 422/2/6
f 421/4/6 416/4/6 422/4/6
f 417/2/6 418/2/6 422/2/6
f 407/2/6 419/2/6 423/2/6
f 420/2/6 421/2/6 424/2/6
f 421/2/6 422/2/6 424/2/6
f 404/2/6 398/2/6 425/2/6
f 422/2/6 418/2/6 425/2/6
f 424/2/6 422/2/6 425/2/6
f 418/2/6 404/2/6 425/2/6
f 425/2/6 398/2/6 426/2/6
f 423/2/6 424/2/6 427/2/6
f 424/2/6 425/2/6 427/2/6
f 425/4/6 426/4/6 427/4/6
f 426/2/6 398/2/6 428/2/6
f 427/4/6 426/4/6 428/4/6
f 423/2/6 427/2/6 429/2/6
f 407/2/6 423/2/6 429/2/6
f 427/2/6 428/2/6 429/2/6
f 429/2/6 428/2/6 430/2/6
f 407/2/6 429/2/6 431/2/6
f 430/2/6 428/2/6 433/2/6
f 433/2/6 428/2/6 434/2/6
f 431/2/6 432/2/6 435/2/6
f 430/2/6 433/2/6 436/2/6
f 436/2/6 433/2/6 437/2/6
f 437/2/6 433/2/6 438/2/6
f 438/2/6 433/2/6 439/2/6
f 439/2/6 433/2/6 440/2/6
f 435/2/6 436/2/6 441/2/6
f 436/2/6 437/2/6 441/2/6
f 437/4/6 438/4/6 441/4/6
f 438/2/6 439/2/6 442/2/6
f 441/4/6 438/4/6 442/4/6
f 442/2/6 439/2/6 443/2/6
f 440/2/6 433/2/6 444/2/6
f 444/2/6 433/2/6 445/2/6
f 434/2/6 428/2/6 446/2/6
f 444/2/6 445/2/6 447/2/6
f 445/2/6 446/2/6 447/2/6
f 407/2/6 431/2/6 447/2/6
f 431/2/6 435/2/6 447/2/6
f 443/2/6 444/2/6 447/2/6
f 442/2/6 443/2/6 447/2/6
f 441/2/6 442/2/6 447/2/6
f 435/2/6 441/2/6 447/2/6
f 447/2/6 446/2/6 448/2/6
f 446/2/6 428/2/6 449/2/6
f 448/2/6 446/2/6 449/2/6
f 428/2/6 398/2/6 450/2/6
f 449/2/6 428/2/6 450/2/6
f 447/4/6 448/4/6 451/4/6
f 407/2/6 447/2/6 451/2/6
f 448/2/6 449/2/6 452/2/6
f 451/4/6 448/4/6 452/4/6
f 452/2/6 449/2/6 453/2/6
f 453/2/6 449/2/6 454/2/6
f 454/2/6 449/2/6 455/2/6
f 455/2/6 449/2/6 456/2/6
f 451/2/6 452/2/6 459/2/6
f 452/2/6 453/2/6 459/2/6
f 453/4/6 454/4/6 459/4/6
f 454/2/6 455/2/6 460/2/6
f 459/4/6 454/4/6 460/4/6
f 460/2/6 455/2/6 461/2/6
f 456/2/6 449/2/6 462/2/6
f 462/2/6 449/2/6 463/2/6
f 457/2/6 458/2/6 464/2/6
f 462/2/6 463/2/6 465/2/6
f 463/2/6 464/2/6 465/2/6
f 460/2/6 461/2/6 465/2/6
f 451/2/6 459/2/6 465/2/6
f 461/2/6 462/2/6 465/2/6
f 459/2/6 460/2/6 465/2/6
f 465/2/6 464/2/6 466/2/6
f 466/2/6 464/2/6 467/2/6
f 467/2/6 464/2/6 468/2/6
f 407/2/6 451/2/6 469/2/6
f 395/2/6 407/2/6 469/2/6
f 451/2/6 465/2/6 469/2/6
f 469/2/6 465/2/6 470/2/6
f 466/2/6 467/2/6 471/2/6
f 468/2/6 464/2/6 472/2/6
f 470/2/6 465/2/6 474/2/6
f 474/2/6 465/2/6 475/2/6
f 466/2/6 471/2/6 476/2/6
f 471/2/6 472/2/6 476/2/6
f 472/2/6 464/2/6 477/2/6
f 476/2/6 472/2/6 477/2/6
f 477/2/6 464/2/6 478/2/6
f 474/2/6 475/2/6 479/2/6
f 475/2/6 476/2/6 479/2/6
f 473/2/6 474/2/6 479/2/6
f 476/2/6 477/2/6 479/2/6
f 479/2/6 477/2/6 480/2/6
f 477/4/6 478/4/6 481/4/6
f 480/2/6 477/2/6 481/2/6
f 478/2/6 464/2/6 482/2/6
f 481/4/6 478/4/6 482/4/6
f 479/4/6 480/4/6 483/4/6
f 473/2/6 479/2/6 483/2/6
f 480/2/6 481/2/6 484/2/6
f 483/4/6 480/4/6 484/4/6
f 481/2/6 482/2/6 484/2/6
f 483/2/6 484/2/6 485/2/6
f 484/2/6 482/2/6 485/2/6
f 485/2/6 482/2/6 486/2/6
f 473/2/6 483/2/6 487/2/6
f 483/2/6 485/2/6 487/2/6
f 487/2/6 485/2/6 488/2/6
f 488/2/6 485/2/6 489/2/6
f 486/2/6 482/2/6 490/2/6
f 473/2/6 487/2/6 491/2/6
f 491/2/6 487/2/6 492/2/6
f 487/4/6 488/4/6 493/4/6
f 492/2/6 487/2/6 493/2/6
f 488/2/6 489/2/6 494/2/6
f 493/4/6 488/4/6 494/4/6
f 489/2/6 490/2/6 494/2/6
f 494/2/6 490/2/6 495/2/6
f 495/2/6 490/2/6 496/2/6
f 473/2/6 491/2/6 497/2/6
f 492/2/6 493/2/6 498/2/6
f 494/2/6 495/2/6 498/2/6
f 493/2/6 494/2/6 498/2/6
f 498/2/6 495/2/6 499/2/6
f 496/2/6 490/2/6 500/2/6
f 482/2/6 464/2/6 501/2/6
f 464/2/6 458/2/6 501/2/6
f 500/2/6 490/2/6 501/2/6
f 490/2/6 482/2/6 501/2/6
f 501/2/6 458/2/6 502/2/6
f 499/2/6 500/2/6 503/2/6
f 498/2/6 499/2/6 503/2/6
f 500/2/6 501/2/6 503/2/6
f 497/2/6 498/2/6 503/2/6
f 473/2/6 497/2/6 505/2/6
f 503/2/6 504/2/6 505/2/6
f 497/2/6 503/2/6 505/2/6
f 505/2/6 504/2/6 506/2/6
f 507/3/6 508/3/6 509/3/6
f 509/3/6 508/3/6 510/3/6
f 511/3/6 512/3/6 513/3/6
f 513/3/6 512/3/6 514/3/6
f 515/3/6 516/3/6 517/3/6
f 517/3/6 516/3/6 518/3/6
f 519/3/6 520/3/6 523/3/6
f 523/3/6 520/3/6 524/3/6
f 521/3/6 522/3/6 525/3/6
f 525/3/6 522/3/6 526/3/6
f 527/3/6 528/3/6 529/3/6
f 529/3/6 528/3/6 530/3/6
f 531/3/6 532/3/6 533/3/6
f 533/3/6 532/3/6 534/3/6
f 534/3/6 535/3/6 538/3/6
f 538/3/6 535/3/6 539/3/6
f 540/3/6 541/3/6 542/3/6
f 542/3/6 541/3/6 543/3/6
f 536/3/6 537/3/6 544/3/6
f 544/3/6 537/3/6 545/3/6
f 546/3/6 547/3/6 550/3/6
f 550/3/6 547/3/6 551/3/6
f 548/3/6 549/3/6 552/3/6
f 552/3/6 549/3/6 553/3/6
f 546/3/6 550/3/6 554/3/6
f 554/3/6 550/3/6 555/3/6
f 558/3/6 559/3/6 562/3/6
f 562/3/6 559/3/6 563/3/6
f 560/3/6 561/3/6 564/3/6
f 564/3/6 561/3/6 565/3/6
f 556/3/6 557/3/6 566/3/6
f 566/3/6 557/3/6 567/3/6
f 568/3/6 569/3/6 570/3/6
f 570/3/6 569/3/6 571/3/6
f 572/3/6 573/3/6 576/3/6
f 576/3/6 573/3/6 577/3/6
f 574/3/6 575/3/6 578/3/6
f 578/3/6 575/3/6 579/3/6
f 580/3/6 581/3/6 582/3/6
f 582/3/6 581/3/6 583/3/6
f 584/1/6 585/1/6 587/1/6
f 587/1/6 585/1/6 588/1/6
f 586/1/6 587/1/6 590/1/6
f 590/1/6 587/1/6 591/1/6
f 588/1/6 589/1/6 592/1/6
f 592/1/6 589/1/6 593/1/6
f 591/1/6 592/1/6 594/1/6
f 594/1/6 592/1/6 595/1/6
f 596/1/6 597/1/6 598/1/6
f 598/1/6 597/1/6 599/1/6
