# MagicaVoxel @ Ephtracy

# material
mtllib 012.mtl
usemtl palette

# normals
vn -1 0 0
vn 1 0 0
vn 0 0 1
vn 0 0 -1
vn 0 -1 0
vn 0 1 0

# texcoords
vt 0.677734 0.5
vt 0.966797 0.5
vt 0.986328 0.5

# verts
v -16 0 16
v -16 0 -16
v -16 8 16
v -16 8 -16
v -6 8 6
v -6 8 -6
v -6 11 6
v -6 11 -6
v -5 11 5
v -5 11 -5
v -5 14 5
v -5 14 -5
v -4 14 4
v -4 14 -4
v -4 16 4
v -4 16 -4
v -4 23 4
v -4 23 -4
v -4 24 4
v -4 24 -4
v -3 21 3
v -3 21 -3
v -3 23 3
v -3 23 -3
v -1 16 1
v -1 16 -1
v -1 21 1
v -1 21 -1
v 2 22 2
v 2 22 -2
v 2 23 2
v 2 23 -2
v 3 23 3
v 3 23 -3
v 3 24 3
v 3 24 -3
v 12 8 -14
v 12 8 -16
v 12 9 -14
v 12 9 -16
v 12 18 -14
v 12 18 -16
v 12 19 -14
v 12 19 -16
v 12 31 -14
v 12 31 -16
v 12 32 -14
v 12 32 -16
v 13 8 -13
v 13 8 -14
v 13 9 -13
v 13 9 -14
v 13 18 -13
v 13 18 -14
v 13 19 -13
v 13 19 -14
v 13 31 -13
v 13 31 -14
v 13 32 -13
v 13 32 -14
v 14 8 -12
v 14 8 -13
v 14 9 -12
v 14 9 -13
v 14 18 -12
v 14 18 -13
v 14 19 -12
v 14 19 -13
v 14 31 -12
v 14 31 -13
v 14 32 -12
v 14 32 -13
v -3 23 3
v -3 23 -3
v -3 24 3
v -3 24 -3
v -2 22 2
v -2 22 -2
v -2 23 2
v -2 23 -2
v 1 16 1
v 1 16 -1
v 1 21 1
v 1 21 -1
v 3 21 3
v 3 21 -3
v 3 23 3
v 3 23 -3
v 4 14 4
v 4 14 -4
v 4 16 4
v 4 16 -4
v 4 23 4
v 4 23 -4
v 4 24 4
v 4 24 -4
v 5 11 5
v 5 11 -5
v 5 14 5
v 5 14 -5
v 6 8 6
v 6 8 -6
v 6 11 6
v 6 11 -6
v 16 0 16
v 16 0 -16
v 16 8 16
v 16 8 -12
v 16 8 -16
v 16 9 -12
v 16 9 -16
v 16 18 -12
v 16 18 -16
v 16 19 -12
v 16 19 -16
v 16 31 -12
v 16 31 -13
v 16 32 -12
v 16 32 -13
v 16 32 -16
v -16 0 16
v -16 8 16
v 16 0 16
v 16 8 16
v -6 8 6
v -6 11 6
v 6 8 6
v 6 11 6
v -5 11 5
v -5 14 5
v 5 11 5
v 5 14 5
v -4 14 4
v -4 16 4
v -4 23 4
v -4 24 4
v 4 14 4
v 4 16 4
v 4 23 4
v 4 24 4
v -3 21 3
v -3 23 3
v 3 21 3
v 3 23 3
v -1 16 1
v -1 21 1
v 1 16 1
v 1 21 1
v -2 22 -2
v -2 23 -2
v 2 22 -2
v 2 23 -2
v -3 23 -3
v -3 24 -3
v 3 23 -3
v 3 24 -3
v 14 8 -12
v 14 9 -12
v 14 18 -12
v 14 19 -12
v 14 31 -12
v 14 32 -12
v 16 8 -12
v 16 9 -12
v 16 18 -12
v 16 19 -12
v 16 31 -12
v 16 32 -12
v 13 8 -13
v 13 9 -13
v 13 18 -13
v 13 19 -13
v 13 31 -13
v 13 32 -13
v 14 8 -13
v 14 9 -13
v 14 18 -13
v 14 19 -13
v 14 31 -13
v 14 32 -13
v 12 8 -14
v 12 9 -14
v 12 18 -14
v 12 19 -14
v 12 31 -14
v 12 32 -14
v 13 8 -14
v 13 9 -14
v 13 18 -14
v 13 19 -14
v 13 31 -14
v 13 32 -14
v -3 23 3
v -3 24 3
v 3 23 3
v 3 24 3
v -2 22 2
v -2 23 2
v 2 22 2
v 2 23 2
v -1 16 -1
v -1 21 -1
v 1 16 -1
v 1 21 -1
v -3 21 -3
v -3 23 -3
v 3 21 -3
v 3 23 -3
v -4 14 -4
v -4 16 -4
v -4 23 -4
v -4 24 -4
v 4 14 -4
v 4 16 -4
v 4 23 -4
v 4 24 -4
v -5 11 -5
v -5 14 -5
v 5 11 -5
v 5 14 -5
v -6 8 -6
v -6 11 -6
v 6 8 -6
v 6 11 -6
v -16 0 -16
v -16 8 -16
v 12 8 -16
v 12 9 -16
v 12 18 -16
v 12 19 -16
v 12 31 -16
v 12 32 -16
v 13 31 -16
v 13 32 -16
v 16 0 -16
v 16 8 -16
v 16 9 -16
v 16 18 -16
v 16 19 -16
v 16 32 -16
v -16 0 16
v 16 0 16
v -16 0 -16
v 16 0 -16
v -3 21 3
v 3 21 3
v -1 21 1
v 1 21 1
v -1 21 -1
v 1 21 -1
v -3 21 -3
v 3 21 -3
v -4 23 4
v 4 23 4
v -3 23 3
v 3 23 3
v -3 23 -3
v 3 23 -3
v -4 23 -4
v 4 23 -4
v -16 8 16
v 16 8 16
v -6 8 6
v 6 8 6
v -6 8 -6
v 6 8 -6
v 14 8 -12
v 16 8 -12
v 13 8 -13
v 14 8 -13
v 12 8 -14
v 13 8 -14
v -16 8 -16
v 12 8 -16
v -6 11 6
v 6 11 6
v -5 11 5
v 5 11 5
v -5 11 -5
v 5 11 -5
v -6 11 -6
v 6 11 -6
v -5 14 5
v 5 14 5
v -4 14 4
v 4 14 4
v -4 14 -4
v 4 14 -4
v -5 14 -5
v 5 14 -5
v -4 16 4
v 4 16 4
v -1 16 1
v 1 16 1
v -1 16 -1
v 1 16 -1
v -4 16 -4
v 4 16 -4
v -2 22 2
v 2 22 2
v -2 22 -2
v 2 22 -2
v -3 23 3
v 3 23 3
v -2 23 2
v 2 23 2
v -2 23 -2
v 2 23 -2
v -3 23 -3
v 3 23 -3
v -4 24 4
v 4 24 4
v -3 24 3
v 3 24 3
v -3 24 -3
v 3 24 -3
v -4 24 -4
v 4 24 -4
v 14 32 -12
v 16 32 -12
v 13 32 -13
v 14 32 -13
v 15 32 -13
v 16 32 -13
v 12 32 -14
v 13 32 -14
v 14 32 -14
v 15 32 -14
v 13 32 -15
v 14 32 -15
v 12 32 -16
v 13 32 -16
v 16 32 -16

# faces
f 3/1/1 2/1/1 1/1/1
f 4/1/1 2/1/1 3/1/1
f 7/2/1 6/2/1 5/2/1
f 8/2/1 6/2/1 7/2/1
f 11/2/1 10/2/1 9/2/1
f 12/2/1 10/2/1 11/2/1
f 15/2/1 14/2/1 13/2/1
f 16/2/1 14/2/1 15/2/1
f 19/2/1 18/2/1 17/2/1
f 20/2/1 18/2/1 19/2/1
f 23/2/1 22/2/1 21/2/1
f 24/2/1 22/2/1 23/2/1
f 27/2/1 26/2/1 25/2/1
f 28/2/1 26/2/1 27/2/1
f 31/2/1 30/2/1 29/2/1
f 32/2/1 30/2/1 31/2/1
f 35/2/1 34/2/1 33/2/1
f 36/2/1 34/2/1 35/2/1
f 39/3/1 38/3/1 37/3/1
f 40/3/1 38/3/1 39/3/1
f 41/2/1 40/2/1 39/2/1
f 42/2/1 40/2/1 41/2/1
f 43/3/1 42/3/1 41/3/1
f 44/3/1 42/3/1 43/3/1
f 45/2/1 44/2/1 43/2/1
f 46/2/1 44/2/1 45/2/1
f 47/3/1 46/3/1 45/3/1
f 48/3/1 46/3/1 47/3/1
f 51/3/1 50/3/1 49/3/1
f 52/3/1 50/3/1 51/3/1
f 53/2/1 52/2/1 51/2/1
f 54/2/1 52/2/1 53/2/1
f 55/3/1 54/3/1 53/3/1
f 56/3/1 54/3/1 55/3/1
f 57/2/1 56/2/1 55/2/1
f 58/2/1 56/2/1 57/2/1
f 59/3/1 58/3/1 57/3/1
f 60/3/1 58/3/1 59/3/1
f 63/3/1 62/3/1 61/3/1
f 64/3/1 62/3/1 63/3/1
f 65/2/1 64/2/1 63/2/1
f 66/2/1 64/2/1 65/2/1
f 67/3/1 66/3/1 65/3/1
f 68/3/1 66/3/1 67/3/1
f 69/2/1 68/2/1 67/2/1
f 70/2/1 68/2/1 69/2/1
f 71/3/1 70/3/1 69/3/1
f 72/3/1 70/3/1 71/3/1
f 73/2/2 74/2/2 75/2/2
f 75/2/2 74/2/2 76/2/2
f 77/2/2 78/2/2 79/2/2
f 79/2/2 78/2/2 80/2/2
f 81/2/2 82/2/2 83/2/2
f 83/2/2 82/2/2 84/2/2
f 85/2/2 86/2/2 87/2/2
f 87/2/2 86/2/2 88/2/2
f 89/2/2 90/2/2 91/2/2
f 91/2/2 90/2/2 92/2/2
f 93/2/2 94/2/2 95/2/2
f 95/2/2 94/2/2 96/2/2
f 97/2/2 98/2/2 99/2/2
f 99/2/2 98/2/2 100/2/2
f 101/2/2 102/2/2 103/2/2
f 103/2/2 102/2/2 104/2/2
f 105/1/2 106/1/2 107/1/2
f 107/1/2 106/1/2 108/1/2
f 108/1/2 106/1/2 109/1/2
f 108/3/2 109/3/2 110/3/2
f 110/3/2 109/3/2 111/3/2
f 110/2/2 111/2/2 112/2/2
f 112/2/2 111/2/2 113/2/2
f 112/3/2 113/3/2 114/3/2
f 114/3/2 113/3/2 115/3/2
f 114/2/2 115/2/2 116/2/2
f 116/2/2 115/2/2 117/2/2
f 116/3/2 117/3/2 118/3/2
f 117/2/2 115/2/2 119/2/2
f 118/3/2 117/3/2 119/3/2
f 119/2/2 115/2/2 120/2/2
f 123/1/3 122/1/3 121/1/3
f 124/1/3 122/1/3 123/1/3
f 127/2/3 126/2/3 125/2/3
f 128/2/3 126/2/3 127/2/3
f 131/2/3 130/2/3 129/2/3
f 132/2/3 130/2/3 131/2/3
f 137/2/3 134/2/3 133/2/3
f 138/2/3 134/2/3 137/2/3
f 139/2/3 136/2/3 135/2/3
f 140/2/3 136/2/3 139/2/3
f 143/2/3 142/2/3 141/2/3
f 144/2/3 142/2/3 143/2/3
f 147/2/3 146/2/3 145/2/3
f 148/2/3 146/2/3 147/2/3
f 151/2/3 150/2/3 149/2/3
f 152/2/3 150/2/3 151/2/3
f 155/2/3 154/2/3 153/2/3
f 156/2/3 154/2/3 155/2/3
f 163/3/3 158/3/3 157/3/3
f 164/2/3 159/2/3 158/2/3
f 164/3/3 158/3/3 163/3/3
f 165/3/3 160/3/3 159/3/3
f 165/2/3 159/2/3 164/2/3
f 166/2/3 161/2/3 160/2/3
f 166/3/3 160/3/3 165/3/3
f 167/3/3 162/3/3 161/3/3
f 167/2/3 161/2/3 166/2/3
f 168/3/3 162/3/3 167/3/3
f 175/3/3 170/3/3 169/3/3
f 176/2/3 171/2/3 170/2/3
f 176/3/3 170/3/3 175/3/3
f 177/3/3 172/3/3 171/3/3
f 177/2/3 171/2/3 176/2/3
f 178/2/3 173/2/3 172/2/3
f 178/3/3 172/3/3 177/3/3
f 179/3/3 174/3/3 173/3/3
f 179/2/3 173/2/3 178/2/3
f 180/3/3 174/3/3 179/3/3
f 187/3/3 182/3/3 181/3/3
f 188/2/3 183/2/3 182/2/3
f 188/3/3 182/3/3 187/3/3
f 189/3/3 184/3/3 183/3/3
f 189/2/3 183/2/3 188/2/3
f 190/2/3 185/2/3 184/2/3
f 190/3/3 184/3/3 189/3/3
f 191/3/3 186/3/3 185/3/3
f 191/2/3 185/2/3 190/2/3
f 192/3/3 186/3/3 191/3/3
f 193/2/4 194/2/4 195/2/4
f 195/2/4 194/2/4 196/2/4
f 197/2/4 198/2/4 199/2/4
f 199/2/4 198/2/4 200/2/4
f 201/2/4 202/2/4 203/2/4
f 203/2/4 202/2/4 204/2/4
f 205/2/4 206/2/4 207/2/4
f 207/2/4 206/2/4 208/2/4
f 209/2/4 210/2/4 213/2/4
f 213/2/4 210/2/4 214/2/4
f 211/2/4 212/2/4 215/2/4
f 215/2/4 212/2/4 216/2/4
f 217/2/4 218/2/4 219/2/4
f 219/2/4 218/2/4 220/2/4
f 221/2/4 222/2/4 223/2/4
f 223/2/4 222/2/4 224/2/4
f 225/1/4 226/1/4 227/1/4
f 230/2/4 231/2/4 233/2/4
f 231/3/4 232/3/4 233/3/4
f 233/3/4 232/3/4 234/3/4
f 225/1/4 227/1/4 235/1/4
f 227/3/4 228/3/4 236/3/4
f 235/1/4 227/1/4 236/1/4
f 228/2/4 229/2/4 237/2/4
f 236/3/4 228/3/4 237/3/4
f 229/3/4 230/3/4 238/3/4
f 237/2/4 229/2/4 238/2/4
f 230/2/4 233/2/4 239/2/4
f 238/3/4 230/3/4 239/3/4
f 233/2/4 234/2/4 239/2/4
f 239/2/4 234/2/4 240/2/4
f 243/1/5 242/1/5 241/1/5
f 244/1/5 242/1/5 243/1/5
f 247/2/5 246/2/5 245/2/5
f 248/2/5 246/2/5 247/2/5
f 249/2/5 247/2/5 245/2/5
f 250/2/5 246/2/5 248/2/5
f 251/2/5 249/2/5 245/2/5
f 251/2/5 250/2/5 249/2/5
f 252/2/5 246/2/5 250/2/5
f 252/2/5 250/2/5 251/2/5
f 255/2/5 254/2/5 253/2/5
f 256/2/5 254/2/5 255/2/5
f 257/2/5 255/2/5 253/2/5
f 258/2/5 254/2/5 256/2/5
f 259/2/5 257/2/5 253/2/5
f 259/2/5 258/2/5 257/2/5
f 260/2/5 254/2/5 258/2/5
f 260/2/5 258/2/5 259/2/5
f 261/1/6 262/1/6 263/1/6
f 263/1/6 262/1/6 264/1/6
f 261/1/6 263/1/6 265/1/6
f 264/1/6 262/1/6 266/1/6
f 266/1/6 262/1/6 267/1/6
f 265/1/6 266/1/6 267/1/6
f 267/1/6 262/1/6 268/1/6
f 265/1/6 267/1/6 269/1/6
f 269/1/6 267/1/6 270/1/6
f 265/1/6 269/1/6 271/1/6
f 271/1/6 269/1/6 272/1/6
f 261/1/6 265/1/6 273/1/6
f 265/1/6 271/1/6 273/1/6
f 273/1/6 271/1/6 274/1/6
f 275/2/6 276/2/6 277/2/6
f 277/2/6 276/2/6 278/2/6
f 275/2/6 277/2/6 279/2/6
f 278/2/6 276/2/6 280/2/6
f 275/2/6 279/2/6 281/2/6
f 279/2/6 280/2/6 281/2/6
f 280/2/6 276/2/6 282/2/6
f 281/2/6 280/2/6 282/2/6
f 283/2/6 284/2/6 285/2/6
f 285/2/6 284/2/6 286/2/6
f 283/2/6 285/2/6 287/2/6
f 286/2/6 284/2/6 288/2/6
f 283/2/6 287/2/6 289/2/6
f 287/2/6 288/2/6 289/2/6
f 288/2/6 284/2/6 290/2/6
f 289/2/6 288/2/6 290/2/6
f 291/2/6 292/2/6 293/2/6
f 293/2/6 292/2/6 294/2/6
f 291/2/6 293/2/6 295/2/6
f 294/2/6 292/2/6 296/2/6
f 291/2/6 295/2/6 297/2/6
f 295/2/6 296/2/6 297/2/6
f 296/2/6 292/2/6 298/2/6
f 297/2/6 296/2/6 298/2/6
f 299/2/6 300/2/6 301/2/6
f 301/2/6 300/2/6 302/2/6
f 303/2/6 304/2/6 305/2/6
f 305/2/6 304/2/6 306/2/6
f 303/2/6 305/2/6 307/2/6
f 306/2/6 304/2/6 308/2/6
f 303/2/6 307/2/6 309/2/6
f 307/2/6 308/2/6 309/2/6
f 308/2/6 304/2/6 310/2/6
f 309/2/6 308/2/6 310/2/6
f 311/2/6 312/2/6 313/2/6
f 313/2/6 312/2/6 314/2/6
f 311/2/6 313/2/6 315/2/6
f 314/2/6 312/2/6 316/2/6
f 311/2/6 315/2/6 317/2/6
f 315/2/6 316/2/6 317/2/6
f 316/2/6 312/2/6 318/2/6
f 317/2/6 316/2/6 318/2/6
f 319/3/6 320/3/6 322/3/6
f 322/3/6 320/3/6 323/3/6
f 323/3/6 320/3/6 324/3/6
f 321/3/6 322/3/6 326/3/6
f 322/3/6 323/3/6 326/3/6
f 326/3/6 323/3/6 327/3/6
f 323/2/6 324/2/6 328/2/6
f 327/3/6 323/3/6 328/3/6
f 326/3/6 327/3/6 329/3/6
f 325/3/6 326/3/6 329/3/6
f 327/2/6 328/2/6 330/2/6
f 329/3/6 327/3/6 330/3/6
f 325/3/6 329/3/6 331/3/6
f 329/2/6 330/2/6 332/2/6
f 331/3/6 329/3/6 332/3/6
f 328/2/6 324/2/6 333/2/6
f 332/2/6 330/2/6 333/2/6
f 330/2/6 328/2/6 333/2/6
