# MagicaVoxel @ Ephtracy

# material
mtllib 014.mtl
usemtl palette

# normals
vn -1 0 0
vn 1 0 0
vn 0 0 1
vn 0 0 -1
vn 0 -1 0
vn 0 1 0

# texcoords
vt 0.677734 0.5
vt 0.966797 0.5
vt 0.986328 0.5

# verts
v -16 0 16
v -16 0 -15
v -16 0 -16
v -16 7 16
v -16 7 -15
v -16 7 -16
v -16 8 -7
v -16 8 -8
v -16 8 -16
v -16 11 -7
v -16 11 -8
v -16 12 1
v -16 12 -0
v -16 12 -8
v -16 15 1
v -16 15 -0
v -16 16 9
v -16 16 8
v -16 16 -0
v -16 19 9
v -16 19 8
v -16 20 16
v -16 20 8
v 16 0 16
v 16 0 -15
v 16 0 -16
v 16 7 16
v 16 7 -15
v 16 7 -16
v 16 8 -7
v 16 8 -8
v 16 8 -16
v 16 11 -7
v 16 11 -8
v 16 12 1
v 16 12 -0
v 16 12 -8
v 16 15 1
v 16 15 -0
v 16 16 9
v 16 16 8
v 16 16 -0
v 16 19 9
v 16 19 8
v 16 20 16
v 16 20 8
v -16 0 16
v -16 7 16
v -16 20 16
v -15 7 16
v -15 19 16
v 15 7 16
v 15 19 16
v 16 0 16
v 16 7 16
v 16 20 16
v -16 16 8
v -16 19 8
v -16 20 8
v 16 16 8
v 16 19 8
v 16 20 8
v -16 12 -0
v -16 15 -0
v -16 16 -0
v 16 12 -0
v 16 15 -0
v 16 16 -0
v -16 8 -8
v -16 11 -8
v -16 12 -8
v 16 8 -8
v 16 11 -8
v 16 12 -8
v -16 0 -16
v -16 7 -16
v -16 8 -16
v 16 0 -16
v 16 7 -16
v 16 8 -16
v -16 0 16
v 16 0 16
v -16 0 -15
v 16 0 -15
v -16 0 -16
v 16 0 -16
v -16 8 -8
v 16 8 -8
v -16 8 -16
v 16 8 -16
v -16 12 -0
v 16 12 -0
v -16 12 -8
v 16 12 -8
v -16 16 8
v 16 16 8
v -16 16 -0
v 16 16 -0
v -16 20 16
v 16 20 16
v -16 20 8
v 16 20 8

# faces
f 4/1/1 2/1/1 1/1/1
f 5/3/1 3/3/1 2/3/1
f 5/1/1 2/1/1 4/1/1
f 6/3/1 3/3/1 5/3/1
f 7/2/1 5/2/1 4/2/1
f 7/2/1 6/2/1 5/2/1
f 8/2/1 6/2/1 7/2/1
f 9/2/1 6/2/1 8/2/1
f 10/2/1 7/2/1 4/2/1
f 10/3/1 8/3/1 7/3/1
f 11/3/1 8/3/1 10/3/1
f 12/2/1 10/2/1 4/2/1
f 12/2/1 11/2/1 10/2/1
f 13/2/1 11/2/1 12/2/1
f 14/2/1 11/2/1 13/2/1
f 15/2/1 12/2/1 4/2/1
f 15/3/1 13/3/1 12/3/1
f 16/3/1 13/3/1 15/3/1
f 17/2/1 15/2/1 4/2/1
f 17/2/1 16/2/1 15/2/1
f 18/2/1 16/2/1 17/2/1
f 19/2/1 16/2/1 18/2/1
f 20/2/1 17/2/1 4/2/1
f 20/3/1 18/3/1 17/3/1
f 21/3/1 18/3/1 20/3/1
f 22/2/1 20/2/1 4/2/1
f 22/2/1 21/2/1 20/2/1
f 23/2/1 21/2/1 22/2/1
f 24/1/2 25/1/2 27/1/2
f 25/3/2 26/3/2 28/3/2
f 27/1/2 25/1/2 28/1/2
f 28/3/2 26/3/2 29/3/2
f 27/2/2 28/2/2 30/2/2
f 28/2/2 29/2/2 30/2/2
f 30/2/2 29/2/2 31/2/2
f 31/2/2 29/2/2 32/2/2
f 27/2/2 30/2/2 33/2/2
f 30/3/2 31/3/2 33/3/2
f 33/3/2 31/3/2 34/3/2
f 27/2/2 33/2/2 35/2/2
f 33/2/2 34/2/2 35/2/2
f 35/2/2 34/2/2 36/2/2
f 36/2/2 34/2/2 37/2/2
f 27/2/2 35/2/2 38/2/2
f 35/3/2 36/3/2 38/3/2
f 38/3/2 36/3/2 39/3/2
f 27/2/2 38/2/2 40/2/2
f 38/2/2 39/2/2 40/2/2
f 40/2/2 39/2/2 41/2/2
f 41/2/2 39/2/2 42/2/2
f 27/2/2 40/2/2 43/2/2
f 40/3/2 41/3/2 43/3/2
f 43/3/2 41/3/2 44/3/2
f 27/2/2 43/2/2 45/2/2
f 43/2/2 44/2/2 45/2/2
f 45/2/2 44/2/2 46/2/2
f 50/1/3 48/1/3 47/1/3
f 50/2/3 49/2/3 48/2/3
f 51/2/3 49/2/3 50/2/3
f 52/1/3 50/1/3 47/1/3
f 52/1/3 51/1/3 50/1/3
f 53/2/3 49/2/3 51/2/3
f 53/1/3 51/1/3 52/1/3
f 54/1/3 52/1/3 47/1/3
f 55/2/3 53/2/3 52/2/3
f 55/1/3 52/1/3 54/1/3
f 56/2/3 49/2/3 53/2/3
f 56/2/3 53/2/3 55/2/3
f 57/3/4 58/3/4 60/3/4
f 58/2/4 59/2/4 61/2/4
f 60/3/4 58/3/4 61/3/4
f 61/2/4 59/2/4 62/2/4
f 63/3/4 64/3/4 66/3/4
f 64/2/4 65/2/4 67/2/4
f 66/3/4 64/3/4 67/3/4
f 67/2/4 65/2/4 68/2/4
f 69/3/4 70/3/4 72/3/4
f 70/2/4 71/2/4 73/2/4
f 72/3/4 70/3/4 73/3/4
f 73/2/4 71/2/4 74/2/4
f 75/3/4 76/3/4 78/3/4
f 76/2/4 77/2/4 79/2/4
f 78/3/4 76/3/4 79/3/4
f 79/2/4 77/2/4 80/2/4
f 83/1/5 82/1/5 81/1/5
f 84/1/5 82/1/5 83/1/5
f 85/3/5 84/3/5 83/3/5
f 86/3/5 84/3/5 85/3/5
f 87/2/6 88/2/6 89/2/6
f 89/2/6 88/2/6 90/2/6
f 91/2/6 92/2/6 93/2/6
f 93/2/6 92/2/6 94/2/6
f 95/2/6 96/2/6 97/2/6
f 97/2/6 96/2/6 98/2/6
f 99/2/6 100/2/6 101/2/6
f 101/2/6 100/2/6 102/2/6
