# MagicaVoxel @ Ephtracy

# material
mtllib 017.mtl
usemtl palette

# normals
vn -1 0 0
vn 1 0 0
vn 0 0 1
vn 0 0 -1
vn 0 -1 0
vn 0 1 0

# texcoords
vt 0.677734 0.5
vt 0.966797 0.5

# verts
v -16 0 16
v -16 0 -16
v -16 8 16
v -16 8 -16
v -10 8 10
v -10 8 9
v -10 8 -9
v -10 8 -10
v -10 14 9
v -10 14 -9
v -10 15 10
v -10 15 -10
v 9 8 10
v 9 8 9
v 9 8 -9
v 9 8 -10
v 9 14 10
v 9 14 9
v 9 14 -9
v 9 14 -10
v 9 15 9
v 9 15 -9
v -9 8 10
v -9 8 9
v -9 8 -9
v -9 8 -10
v -9 14 10
v -9 14 9
v -9 14 -9
v -9 14 -10
v -9 15 9
v -9 15 -9
v 10 8 10
v 10 8 9
v 10 8 -9
v 10 8 -10
v 10 14 9
v 10 14 -9
v 10 15 10
v 10 15 -10
v 16 0 16
v 16 0 -16
v 16 8 16
v 16 8 -16
v -16 0 16
v -16 8 16
v 16 0 16
v 16 8 16
v -10 8 10
v -10 15 10
v -9 8 10
v -9 14 10
v 9 8 10
v 9 14 10
v 10 8 10
v 10 15 10
v -10 8 -9
v -10 14 -9
v -9 8 -9
v -9 14 -9
v -9 15 -9
v 9 8 -9
v 9 14 -9
v 9 15 -9
v 10 8 -9
v 10 14 -9
v -10 8 9
v -10 14 9
v -9 8 9
v -9 14 9
v -9 15 9
v 9 8 9
v 9 14 9
v 9 15 9
v 10 8 9
v 10 14 9
v -10 8 -10
v -10 15 -10
v -9 8 -10
v -9 14 -10
v 9 8 -10
v 9 14 -10
v 10 8 -10
v 10 15 -10
v -16 0 -16
v -16 8 -16
v 16 0 -16
v 16 8 -16
v -16 0 16
v 16 0 16
v -16 0 -16
v 16 0 -16
v -9 14 10
v 9 14 10
v -10 14 9
v -9 14 9
v 9 14 9
v 10 14 9
v -10 14 -9
v -9 14 -9
v 9 14 -9
v 10 14 -9
v -9 14 -10
v 9 14 -10
v -16 8 16
v 16 8 16
v -13 8 13
v -12 8 13
v 12 8 13
v 13 8 13
v -13 8 12
v -12 8 12
v 12 8 12
v 13 8 12
v -11 8 11
v -8 8 11
v 8 8 11
v 11 8 11
v -10 8 10
v -9 8 10
v 9 8 10
v 10 8 10
v -10 8 9
v -9 8 9
v 9 8 9
v 10 8 9
v -11 8 8
v -8 8 8
v 8 8 8
v 11 8 8
v -1 8 6
v 2 8 6
v 0 8 5
v 1 8 5
v 0 8 4
v 1 8 4
v -1 8 3
v 2 8 3
v -8 8 2
v -5 8 2
v 5 8 2
v 8 8 2
v -7 8 1
v -6 8 1
v 6 8 1
v 7 8 1
v -7 8 -0
v -6 8 -0
v 6 8 -0
v 7 8 -0
v -8 8 -1
v -5 8 -1
v 5 8 -1
v 8 8 -1
v -1 8 -3
v 2 8 -3
v 0 8 -4
v 1 8 -4
v 0 8 -5
v 1 8 -5
v -1 8 -6
v 2 8 -6
v -11 8 -8
v -8 8 -8
v 8 8 -8
v 11 8 -8
v -10 8 -9
v -9 8 -9
v 9 8 -9
v 10 8 -9
v -10 8 -10
v -9 8 -10
v 9 8 -10
v 10 8 -10
v -11 8 -11
v -8 8 -11
v 8 8 -11
v 11 8 -11
v -13 8 -12
v -12 8 -12
v 12 8 -12
v 13 8 -12
v -13 8 -13
v -12 8 -13
v 12 8 -13
v 13 8 -13
v -16 8 -16
v 16 8 -16
v -10 15 10
v 10 15 10
v -9 15 9
v 9 15 9
v -9 15 -9
v 9 15 -9
v -10 15 -10
v 10 15 -10

# faces
f 3/1/1 2/1/1 1/1/1
f 4/1/1 2/1/1 3/1/1
f 9/2/1 6/2/1 5/2/1
f 10/2/1 8/2/1 7/2/1
f 11/2/1 9/2/1 5/2/1
f 11/2/1 10/2/1 9/2/1
f 12/2/1 8/2/1 10/2/1
f 12/2/1 10/2/1 11/2/1
f 17/2/1 14/2/1 13/2/1
f 18/2/1 14/2/1 17/2/1
f 19/2/1 16/2/1 15/2/1
f 20/2/1 16/2/1 19/2/1
f 21/2/1 19/2/1 18/2/1
f 22/2/1 19/2/1 21/2/1
f 23/2/2 24/2/2 27/2/2
f 27/2/2 24/2/2 28/2/2
f 25/2/2 26/2/2 29/2/2
f 29/2/2 26/2/2 30/2/2
f 28/2/2 29/2/2 31/2/2
f 31/2/2 29/2/2 32/2/2
f 33/2/2 34/2/2 37/2/2
f 35/2/2 36/2/2 38/2/2
f 33/2/2 37/2/2 39/2/2
f 37/2/2 38/2/2 39/2/2
f 38/2/2 36/2/2 40/2/2
f 39/2/2 38/2/2 40/2/2
f 41/1/2 42/1/2 43/1/2
f 43/1/2 42/1/2 44/1/2
f 47/1/3 46/1/3 45/1/3
f 48/1/3 46/1/3 47/1/3
f 51/2/3 50/2/3 49/2/3
f 52/2/3 50/2/3 51/2/3
f 54/2/3 50/2/3 52/2/3
f 55/2/3 54/2/3 53/2/3
f 56/2/3 50/2/3 54/2/3
f 56/2/3 54/2/3 55/2/3
f 59/2/3 58/2/3 57/2/3
f 60/2/3 58/2/3 59/2/3
f 63/2/3 61/2/3 60/2/3
f 64/2/3 61/2/3 63/2/3
f 65/2/3 63/2/3 62/2/3
f 66/2/3 63/2/3 65/2/3
f 67/2/4 68/2/4 69/2/4
f 69/2/4 68/2/4 70/2/4
f 70/2/4 71/2/4 73/2/4
f 73/2/4 71/2/4 74/2/4
f 72/2/4 73/2/4 75/2/4
f 75/2/4 73/2/4 76/2/4
f 77/2/4 78/2/4 79/2/4
f 79/2/4 78/2/4 80/2/4
f 80/2/4 78/2/4 82/2/4
f 81/2/4 82/2/4 83/2/4
f 82/2/4 78/2/4 84/2/4
f 83/2/4 82/2/4 84/2/4
f 85/1/4 86/1/4 87/1/4
f 87/1/4 86/1/4 88/1/4
f 91/1/5 90/1/5 89/1/5
f 92/1/5 90/1/5 91/1/5
f 96/2/5 94/2/5 93/2/5
f 97/2/5 94/2/5 96/2/5
f 99/2/5 96/2/5 95/2/5
f 100/2/5 96/2/5 99/2/5
f 101/2/5 98/2/5 97/2/5
f 102/2/5 98/2/5 101/2/5
f 103/2/5 101/2/5 100/2/5
f 104/2/5 101/2/5 103/2/5
f 105/1/6 106/1/6 107/1/6
f 107/1/6 106/1/6 108/1/6
f 108/1/6 106/1/6 109/1/6
f 109/1/6 106/1/6 110/1/6
f 105/1/6 107/1/6 111/1/6
f 107/2/6 108/2/6 111/2/6
f 108/1/6 109/1/6 112/1/6
f 111/2/6 108/2/6 112/2/6
f 109/2/6 110/2/6 113/2/6
f 112/1/6 109/1/6 113/1/6
f 110/1/6 106/1/6 114/1/6
f 113/2/6 110/2/6 114/2/6
f 112/1/6 113/1/6 115/1/6
f 111/1/6 112/1/6 115/1/6
f 113/1/6 114/1/6 115/1/6
f 115/1/6 114/1/6 116/1/6
f 116/1/6 114/1/6 117/1/6
f 117/1/6 114/1/6 118/1/6
f 115/2/6 116/2/6 119/2/6
f 119/2/6 116/2/6 120/2/6
f 117/2/6 118/2/6 121/2/6
f 121/2/6 118/2/6 122/2/6
f 115/2/6 119/2/6 123/2/6
f 120/2/6 116/2/6 124/2/6
f 117/2/6 121/2/6 125/2/6
f 122/2/6 118/2/6 126/2/6
f 111/1/6 115/1/6 127/1/6
f 115/2/6 123/2/6 127/2/6
f 123/2/6 124/2/6 127/2/6
f 116/1/6 117/1/6 128/1/6
f 127/2/6 124/2/6 128/2/6
f 124/2/6 116/2/6 128/2/6
f 125/2/6 126/2/6 129/2/6
f 128/1/6 117/1/6 129/1/6
f 117/2/6 125/2/6 129/2/6
f 118/1/6 114/1/6 130/1/6
f 129/2/6 126/2/6 130/2/6
f 126/2/6 118/2/6 130/2/6
f 127/1/6 128/1/6 131/1/6
f 128/1/6 129/1/6 131/1/6
f 129/1/6 130/1/6 131/1/6
f 131/1/6 130/1/6 132/1/6
f 131/2/6 132/2/6 133/2/6
f 133/2/6 132/2/6 134/2/6
f 131/2/6 133/2/6 135/2/6
f 133/1/6 134/1/6 135/1/6
f 134/2/6 132/2/6 136/2/6
f 135/1/6 134/1/6 136/1/6
f 127/1/6 131/1/6 137/1/6
f 131/2/6 135/2/6 137/2/6
f 135/2/6 136/2/6 137/2/6
f 136/2/6 132/2/6 138/2/6
f 137/2/6 136/2/6 138/2/6
f 132/1/6 130/1/6 138/1/6
f 127/1/6 137/1/6 139/1/6
f 137/1/6 138/1/6 139/1/6
f 139/1/6 138/1/6 140/1/6
f 138/1/6 130/1/6 141/1/6
f 140/1/6 138/1/6 141/1/6
f 141/1/6 130/1/6 142/1/6
f 139/2/6 140/2/6 143/2/6
f 143/2/6 140/2/6 144/2/6
f 141/2/6 142/2/6 145/2/6
f 145/2/6 142/2/6 146/2/6
f 139/2/6 143/2/6 147/2/6
f 143/1/6 144/1/6 147/1/6
f 144/2/6 140/2/6 148/2/6
f 147/1/6 144/1/6 148/1/6
f 145/1/6 146/1/6 149/1/6
f 141/2/6 145/2/6 149/2/6
f 146/2/6 142/2/6 150/2/6
f 149/1/6 146/1/6 150/1/6
f 127/1/6 139/1/6 151/1/6
f 139/2/6 147/2/6 151/2/6
f 147/2/6 148/2/6 151/2/6
f 140/1/6 141/1/6 152/1/6
f 151/2/6 148/2/6 152/2/6
f 148/2/6 140/2/6 152/2/6
f 149/2/6 150/2/6 153/2/6
f 152/1/6 141/1/6 153/1/6
f 141/2/6 149/2/6 153/2/6
f 142/1/6 130/1/6 154/1/6
f 153/2/6 150/2/6 154/2/6
f 150/2/6 142/2/6 154/2/6
f 152/1/6 153/1/6 155/1/6
f 151/1/6 152/1/6 155/1/6
f 153/1/6 154/1/6 155/1/6
f 155/1/6 154/1/6 156/1/6
f 155/2/6 156/2/6 157/2/6
f 157/2/6 156/2/6 158/2/6
f 155/2/6 157/2/6 159/2/6
f 157/1/6 158/1/6 159/1/6
f 158/2/6 156/2/6 160/2/6
f 159/1/6 158/1/6 160/1/6
f 151/1/6 155/1/6 161/1/6
f 155/2/6 159/2/6 161/2/6
f 159/2/6 160/2/6 161/2/6
f 160/2/6 156/2/6 162/2/6
f 161/2/6 160/2/6 162/2/6
f 156/1/6 154/1/6 162/1/6
f 111/1/6 127/1/6 163/1/6
f 127/1/6 151/1/6 163/1/6
f 161/1/6 162/1/6 163/1/6
f 151/1/6 161/1/6 163/1/6
f 163/1/6 162/1/6 164/1/6
f 162/1/6 154/1/6 165/1/6
f 164/1/6 162/1/6 165/1/6
f 154/1/6 130/1/6 165/1/6
f 130/1/6 114/1/6 166/1/6
f 165/1/6 130/1/6 166/1/6
f 163/2/6 164/2/6 167/2/6
f 167/2/6 164/2/6 168/2/6
f 165/2/6 166/2/6 169/2/6
f 169/2/6 166/2/6 170/2/6
f 163/2/6 167/2/6 171/2/6
f 168/2/6 164/2/6 172/2/6
f 165/2/6 169/2/6 173/2/6
f 170/2/6 166/2/6 174/2/6
f 111/1/6 163/1/6 175/1/6
f 163/2/6 171/2/6 175/2/6
f 171/2/6 172/2/6 175/2/6
f 164/1/6 165/1/6 176/1/6
f 175/2/6 172/2/6 176/2/6
f 172/2/6 164/2/6 176/2/6
f 173/2/6 174/2/6 177/2/6
f 176/1/6 165/1/6 177/1/6
f 165/2/6 173/2/6 177/2/6
f 166/1/6 114/1/6 178/1/6
f 177/2/6 174/2/6 178/2/6
f 174/2/6 166/2/6 178/2/6
f 105/1/6 111/1/6 179/1/6
f 111/1/6 175/1/6 179/1/6
f 177/1/6 178/1/6 179/1/6
f 176/1/6 177/1/6 179/1/6
f 175/1/6 176/1/6 179/1/6
f 179/1/6 178/1/6 180/1/6
f 178/1/6 114/1/6 181/1/6
f 180/1/6 178/1/6 181/1/6
f 114/1/6 106/1/6 182/1/6
f 181/1/6 114/1/6 182/1/6
f 179/2/6 180/2/6 183/2/6
f 105/1/6 179/1/6 183/1/6
f 180/1/6 181/1/6 184/1/6
f 183/2/6 180/2/6 184/2/6
f 181/2/6 182/2/6 185/2/6
f 184/1/6 181/1/6 185/1/6
f 182/1/6 106/1/6 186/1/6
f 185/2/6 182/2/6 186/2/6
f 105/1/6 183/1/6 187/1/6
f 184/1/6 185/1/6 187/1/6
f 185/1/6 186/1/6 187/1/6
f 183/1/6 184/1/6 187/1/6
f 186/1/6 106/1/6 188/1/6
f 187/1/6 186/1/6 188/1/6
f 189/2/6 190/2/6 191/2/6
f 191/2/6 190/2/6 192/2/6
f 189/2/6 191/2/6 193/2/6
f 192/2/6 190/2/6 194/2/6
f 189/2/6 193/2/6 195/2/6
f 193/2/6 194/2/6 195/2/6
f 194/2/6 190/2/6 196/2/6
f 195/2/6 194/2/6 196/2/6
