# MagicaVoxel @ Ephtracy

# material
mtllib 004.mtl
usemtl palette

# normals
vn -1 0 0
vn 1 0 0
vn 0 0 1
vn 0 0 -1
vn 0 -1 0
vn 0 1 0

# texcoords
vt 0.306641 0.5
vt 0.677734 0.5
vt 0.966797 0.5

# verts
v -16 0 16
v -16 0 -16
v -16 8 15
v -16 8 8
v -16 8 -16
v -16 12 9
v -16 12 8
v -16 13 9
v -16 13 8
v -16 16 9
v -16 16 8
v -16 17 9
v -16 17 8
v -16 20 9
v -16 20 8
v -16 21 9
v -16 21 8
v -16 24 9
v -16 24 8
v -16 25 9
v -16 25 8
v -16 28 9
v -16 28 8
v -16 29 9
v -16 29 8
v -16 31 16
v -16 31 15
v -16 32 15
v -16 32 8
v -16 64 16
v -16 64 15
v -16 64 8
v -13 13 9
v -13 13 8
v -13 16 9
v -13 16 8
v -13 25 9
v -13 25 8
v -13 28 9
v -13 28 8
v -11 21 9
v -11 21 8
v -11 24 9
v -11 24 8
v -11 29 9
v -11 29 8
v -11 31 16
v -11 31 15
v -11 31 9
v -11 32 16
v -11 32 15
v -11 32 8
v -8 17 9
v -8 17 8
v -8 20 9
v -8 20 8
v -7 13 9
v -7 13 8
v -7 16 9
v -7 16 8
v -6 24 10
v -6 24 9
v -6 25 9
v -6 25 8
v -6 28 10
v -6 28 9
v -6 28 8
v -3 17 9
v -3 17 8
v -3 20 9
v -3 20 8
v -3 21 9
v -3 21 8
v -3 24 9
v -3 24 8
v -3 29 9
v -3 29 8
v -3 31 16
v -3 31 15
v -3 31 9
v -3 32 16
v -3 32 15
v -3 32 8
v -1 13 9
v -1 13 8
v -1 16 9
v -1 16 8
v 1 25 9
v 1 25 8
v 1 28 9
v 1 28 8
v 3 17 9
v 3 17 8
v 3 20 9
v 3 20 8
v 5 13 9
v 5 13 8
v 5 16 9
v 5 16 8
v 5 29 9
v 5 29 8
v 5 31 16
v 5 31 15
v 5 31 9
v 5 32 16
v 5 32 15
v 5 32 8
v 6 21 9
v 6 21 8
v 6 24 9
v 6 24 8
v 9 17 9
v 9 17 8
v 9 20 9
v 9 20 8
v 11 13 9
v 11 13 8
v 11 16 9
v 11 16 8
v 11 25 9
v 11 25 8
v 11 28 9
v 11 28 8
v 12 21 9
v 12 21 8
v 12 24 9
v 12 24 8
v 13 29 9
v 13 29 8
v 13 31 16
v 13 31 15
v 13 31 9
v 13 32 16
v 13 32 15
v 13 32 8
v 15 17 9
v 15 17 8
v 15 20 9
v 15 20 8
v -14 13 9
v -14 13 8
v -14 16 9
v -14 16 8
v -14 25 9
v -14 25 8
v -14 28 9
v -14 28 8
v -12 21 9
v -12 21 8
v -12 24 9
v -12 24 8
v -12 29 9
v -12 29 8
v -12 31 16
v -12 31 15
v -12 31 9
v -12 32 16
v -12 32 15
v -12 32 8
v -9 17 9
v -9 17 8
v -9 20 9
v -9 20 8
v -8 13 9
v -8 13 8
v -8 16 9
v -8 16 8
v -7 24 10
v -7 24 9
v -7 25 9
v -7 25 8
v -7 28 10
v -7 28 9
v -7 28 8
v -4 17 9
v -4 17 8
v -4 20 9
v -4 20 8
v -4 21 9
v -4 21 8
v -4 24 9
v -4 24 8
v -4 29 9
v -4 29 8
v -4 31 16
v -4 31 15
v -4 31 9
v -4 32 16
v -4 32 15
v -4 32 8
v -2 13 9
v -2 13 8
v -2 16 9
v -2 16 8
v 0 25 9
v 0 25 8
v 0 28 9
v 0 28 8
v 2 17 9
v 2 17 8
v 2 20 9
v 2 20 8
v 4 13 9
v 4 13 8
v 4 16 9
v 4 16 8
v 4 29 9
v 4 29 8
v 4 31 16
v 4 31 15
v 4 31 9
v 4 32 16
v 4 32 15
v 4 32 8
v 5 21 9
v 5 21 8
v 5 24 9
v 5 24 8
v 8 17 9
v 8 17 8
v 8 20 9
v 8 20 8
v 10 13 9
v 10 13 8
v 10 16 9
v 10 16 8
v 10 25 9
v 10 25 8
v 10 28 9
v 10 28 8
v 11 21 9
v 11 21 8
v 11 24 9
v 11 24 8
v 12 29 9
v 12 29 8
v 12 31 16
v 12 31 15
v 12 31 9
v 12 32 16
v 12 32 15
v 12 32 8
v 14 17 9
v 14 17 8
v 14 20 9
v 14 20 8
v 16 0 16
v 16 0 -16
v 16 8 15
v 16 8 8
v 16 8 -16
v 16 12 9
v 16 12 8
v 16 13 9
v 16 13 8
v 16 16 9
v 16 16 8
v 16 17 9
v 16 17 8
v 16 20 9
v 16 20 8
v 16 21 9
v 16 21 8
v 16 24 9
v 16 24 8
v 16 25 9
v 16 25 8
v 16 28 9
v 16 28 8
v 16 29 9
v 16 29 8
v 16 31 16
v 16 31 15
v 16 32 15
v 16 32 8
v 16 64 16
v 16 64 15
v 16 64 8
v -16 0 16
v -16 31 16
v -16 64 16
v -12 31 16
v -12 32 16
v -11 31 16
v -11 32 16
v -4 31 16
v -4 32 16
v -3 31 16
v -3 32 16
v 4 31 16
v 4 32 16
v 5 31 16
v 5 32 16
v 12 31 16
v 12 32 16
v 13 31 16
v 13 32 16
v 16 0 16
v 16 31 16
v 16 64 16
v -7 24 10
v -7 28 10
v -6 24 10
v -6 28 10
v -16 12 9
v -16 13 9
v -16 16 9
v -16 17 9
v -16 20 9
v -16 21 9
v -16 24 9
v -16 25 9
v -16 28 9
v -16 29 9
v -14 13 9
v -14 16 9
v -14 25 9
v -14 28 9
v -13 13 9
v -13 16 9
v -13 25 9
v -13 28 9
v -12 21 9
v -12 24 9
v -12 29 9
v -12 31 9
v -11 21 9
v -11 24 9
v -11 29 9
v -11 31 9
v -9 17 9
v -9 20 9
v -8 13 9
v -8 16 9
v -8 17 9
v -8 20 9
v -7 13 9
v -7 16 9
v -7 24 9
v -7 25 9
v -7 28 9
v -6 24 9
v -6 25 9
v -6 28 9
v -4 17 9
v -4 20 9
v -4 21 9
v -4 24 9
v -4 29 9
v -4 31 9
v -3 17 9
v -3 20 9
v -3 21 9
v -3 24 9
v -3 29 9
v -3 31 9
v -2 13 9
v -2 16 9
v -1 13 9
v -1 16 9
v 0 25 9
v 0 28 9
v 1 25 9
v 1 28 9
v 2 17 9
v 2 20 9
v 3 17 9
v 3 20 9
v 4 13 9
v 4 16 9
v 4 29 9
v 4 31 9
v 5 13 9
v 5 16 9
v 5 21 9
v 5 24 9
v 5 29 9
v 5 31 9
v 6 21 9
v 6 24 9
v 8 17 9
v 8 20 9
v 9 17 9
v 9 20 9
v 10 13 9
v 10 16 9
v 10 25 9
v 10 28 9
v 11 13 9
v 11 16 9
v 11 21 9
v 11 24 9
v 11 25 9
v 11 28 9
v 12 21 9
v 12 24 9
v 12 29 9
v 12 31 9
v 13 29 9
v 13 31 9
v 14 17 9
v 14 20 9
v 15 17 9
v 15 20 9
v 16 12 9
v 16 13 9
v 16 16 9
v 16 17 9
v 16 20 9
v 16 21 9
v 16 24 9
v 16 25 9
v 16 28 9
v 16 29 9
v -16 8 8
v -16 12 8
v -16 13 8
v -16 16 8
v -16 17 8
v -16 20 8
v -16 21 8
v -16 24 8
v -16 25 8
v -16 28 8
v -16 29 8
v -16 32 8
v -16 64 8
v -14 13 8
v -14 16 8
v -14 25 8
v -14 28 8
v -13 13 8
v -13 16 8
v -13 25 8
v -13 28 8
v -12 21 8
v -12 24 8
v -12 29 8
v -12 32 8
v -11 21 8
v -11 24 8
v -11 29 8
v -11 32 8
v -9 17 8
v -9 20 8
v -8 13 8
v -8 16 8
v -8 17 8
v -8 20 8
v -7 13 8
v -7 16 8
v -7 25 8
v -7 28 8
v -6 25 8
v -6 28 8
v -4 17 8
v -4 20 8
v -4 21 8
v -4 24 8
v -4 29 8
v -4 32 8
v -3 17 8
v -3 20 8
v -3 21 8
v -3 24 8
v -3 29 8
v -3 32 8
v -2 13 8
v -2 16 8
v -1 13 8
v -1 16 8
v 0 25 8
v 0 28 8
v 1 25 8
v 1 28 8
v 2 17 8
v 2 20 8
v 3 17 8
v 3 20 8
v 4 13 8
v 4 16 8
v 4 29 8
v 4 32 8
v 5 13 8
v 5 16 8
v 5 21 8
v 5 24 8
v 5 29 8
v 5 32 8
v 6 21 8
v 6 24 8
v 8 17 8
v 8 20 8
v 9 17 8
v 9 20 8
v 10 13 8
v 10 16 8
v 10 25 8
v 10 28 8
v 11 13 8
v 11 16 8
v 11 21 8
v 11 24 8
v 11 25 8
v 11 28 8
v 12 21 8
v 12 24 8
v 12 29 8
v 12 32 8
v 13 29 8
v 13 32 8
v 14 17 8
v 14 20 8
v 15 17 8
v 15 20 8
v 16 8 8
v 16 12 8
v 16 13 8
v 16 16 8
v 16 17 8
v 16 20 8
v 16 21 8
v 16 24 8
v 16 25 8
v 16 28 8
v 16 29 8
v 16 32 8
v 16 64 8
v -16 0 -16
v -16 8 -16
v 16 0 -16
v 16 8 -16
v -16 0 16
v 16 0 16
v -16 0 -16
v 16 0 -16
v -16 13 9
v -14 13 9
v -13 13 9
v -8 13 9
v -7 13 9
v -2 13 9
v -1 13 9
v 4 13 9
v 5 13 9
v 10 13 9
v 11 13 9
v 16 13 9
v -16 13 8
v -14 13 8
v -13 13 8
v -8 13 8
v -7 13 8
v -2 13 8
v -1 13 8
v 4 13 8
v 5 13 8
v 10 13 8
v 11 13 8
v 16 13 8
v -16 17 9
v -9 17 9
v -8 17 9
v -4 17 9
v -3 17 9
v 2 17 9
v 3 17 9
v 8 17 9
v 9 17 9
v 14 17 9
v 15 17 9
v 16 17 9
v -16 17 8
v -9 17 8
v -8 17 8
v -4 17 8
v -3 17 8
v 2 17 8
v 3 17 8
v 8 17 8
v 9 17 8
v 14 17 8
v 15 17 8
v 16 17 8
v -16 21 9
v -12 21 9
v -11 21 9
v -4 21 9
v -3 21 9
v 5 21 9
v 6 21 9
v 11 21 9
v 12 21 9
v 16 21 9
v -16 21 8
v -12 21 8
v -11 21 8
v -4 21 8
v -3 21 8
v 5 21 8
v 6 21 8
v 11 21 8
v 12 21 8
v 16 21 8
v -16 25 9
v -14 25 9
v -13 25 9
v -7 25 9
v -6 25 9
v 0 25 9
v 1 25 9
v 10 25 9
v 11 25 9
v 16 25 9
v -16 25 8
v -14 25 8
v -13 25 8
v -7 25 8
v -6 25 8
v 0 25 8
v 1 25 8
v 10 25 8
v 11 25 8
v 16 25 8
v -7 28 10
v -6 28 10
v -7 28 9
v -6 28 9
v -16 29 9
v -12 29 9
v -11 29 9
v -4 29 9
v -3 29 9
v 4 29 9
v 5 29 9
v 12 29 9
v 13 29 9
v 16 29 9
v -16 29 8
v -12 29 8
v -11 29 8
v -4 29 8
v -3 29 8
v 4 29 8
v 5 29 8
v 12 29 8
v 13 29 8
v 16 29 8
v -12 32 16
v -11 32 16
v -4 32 16
v -3 32 16
v 4 32 16
v 5 32 16
v 12 32 16
v 13 32 16
v -12 32 15
v -11 32 15
v -4 32 15
v -3 32 15
v 4 32 15
v 5 32 15
v 12 32 15
v 13 32 15
v -12 32 8
v -11 32 8
v -4 32 8
v -3 32 8
v 4 32 8
v 5 32 8
v 12 32 8
v 13 32 8
v -16 8 8
v 16 8 8
v -16 8 -16
v 16 8 -16
v -16 12 9
v 16 12 9
v -16 12 8
v 16 12 8
v -16 16 9
v -14 16 9
v -13 16 9
v -8 16 9
v -7 16 9
v -2 16 9
v -1 16 9
v 4 16 9
v 5 16 9
v 10 16 9
v 11 16 9
v 16 16 9
v -16 16 8
v -14 16 8
v -13 16 8
v -8 16 8
v -7 16 8
v -2 16 8
v -1 16 8
v 4 16 8
v 5 16 8
v 10 16 8
v 11 16 8
v 16 16 8
v -16 20 9
v -9 20 9
v -8 20 9
v -4 20 9
v -3 20 9
v 2 20 9
v 3 20 9
v 8 20 9
v 9 20 9
v 14 20 9
v 15 20 9
v 16 20 9
v -16 20 8
v -9 20 8
v -8 20 8
v -4 20 8
v -3 20 8
v 2 20 8
v 3 20 8
v 8 20 8
v 9 20 8
v 14 20 8
v 15 20 8
v 16 20 8
v -7 24 10
v -6 24 10
v -16 24 9
v -12 24 9
v -11 24 9
v -7 24 9
v -6 24 9
v -4 24 9
v -3 24 9
v 5 24 9
v 6 24 9
v 11 24 9
v 12 24 9
v 16 24 9
v -16 24 8
v -12 24 8
v -11 24 8
v -4 24 8
v -3 24 8
v 5 24 8
v 6 24 8
v 11 24 8
v 12 24 8
v 16 24 8
v -16 28 9
v -14 28 9
v -13 28 9
v -7 28 9
v -6 28 9
v 0 28 9
v 1 28 9
v 10 28 9
v 11 28 9
v 16 28 9
v -16 28 8
v -14 28 8
v -13 28 8
v -7 28 8
v -6 28 8
v 0 28 8
v 1 28 8
v 10 28 8
v 11 28 8
v 16 28 8
v -12 31 16
v -11 31 16
v -4 31 16
v -3 31 16
v 4 31 16
v 5 31 16
v 12 31 16
v 13 31 16
v -12 31 15
v -11 31 15
v -4 31 15
v -3 31 15
v 4 31 15
v 5 31 15
v 12 31 15
v 13 31 15
v -12 31 9
v -11 31 9
v -4 31 9
v -3 31 9
v 4 31 9
v 5 31 9
v 12 31 9
v 13 31 9
v -16 64 16
v 16 64 16
v -16 64 15
v 16 64 15
v -16 64 8
v 16 64 8

# faces
f 3/2/1 2/2/1 1/2/1
f 4/2/1 2/2/1 3/2/1
f 5/2/1 2/2/1 4/2/1
f 6/1/1 4/1/1 3/1/1
f 7/1/1 4/1/1 6/1/1
f 8/1/1 6/1/1 3/1/1
f 10/1/1 8/1/1 3/1/1
f 10/1/1 9/1/1 8/1/1
f 11/1/1 9/1/1 10/1/1
f 12/1/1 10/1/1 3/1/1
f 14/1/1 12/1/1 3/1/1
f 14/1/1 13/1/1 12/1/1
f 15/1/1 13/1/1 14/1/1
f 16/1/1 14/1/1 3/1/1
f 18/1/1 16/1/1 3/1/1
f 18/1/1 17/1/1 16/1/1
f 19/1/1 17/1/1 18/1/1
f 20/1/1 18/1/1 3/1/1
f 22/1/1 20/1/1 3/1/1
f 22/1/1 21/1/1 20/1/1
f 23/1/1 21/1/1 22/1/1
f 24/1/1 22/1/1 3/1/1
f 26/2/1 3/2/1 1/2/1
f 27/1/1 25/1/1 24/1/1
f 27/2/1 3/2/1 26/2/1
f 27/1/1 24/1/1 3/1/1
f 28/1/1 27/1/1 26/1/1
f 28/1/1 25/1/1 27/1/1
f 29/1/1 25/1/1 28/1/1
f 30/1/1 28/1/1 26/1/1
f 31/3/1 29/3/1 28/3/1
f 31/1/1 28/1/1 30/1/1
f 32/3/1 29/3/1 31/3/1
f 35/1/1 34/1/1 33/1/1
f 36/1/1 34/1/1 35/1/1
f 39/1/1 38/1/1 37/1/1
f 40/1/1 38/1/1 39/1/1
f 43/1/1 42/1/1 41/1/1
f 44/1/1 42/1/1 43/1/1
f 49/1/1 46/1/1 45/1/1
f 50/1/1 48/1/1 47/1/1
f 50/1/1 49/1/1 48/1/1
f 51/1/1 49/1/1 50/1/1
f 52/1/1 46/1/1 49/1/1
f 52/1/1 49/1/1 51/1/1
f 55/1/1 54/1/1 53/1/1
f 56/1/1 54/1/1 55/1/1
f 59/1/1 58/1/1 57/1/1
f 60/1/1 58/1/1 59/1/1
f 63/1/1 62/1/1 61/1/1
f 65/1/1 63/1/1 61/1/1
f 65/1/1 64/1/1 63/1/1
f 66/1/1 64/1/1 65/1/1
f 67/1/1 64/1/1 66/1/1
f 70/1/1 69/1/1 68/1/1
f 71/1/1 69/1/1 70/1/1
f 74/1/1 73/1/1 72/1/1
f 75/1/1 73/1/1 74/1/1
f 80/1/1 77/1/1 76/1/1
f 81/1/1 79/1/1 78/1/1
f 81/1/1 80/1/1 79/1/1
f 82/1/1 80/1/1 81/1/1
f 83/1/1 77/1/1 80/1/1
f 83/1/1 80/1/1 82/1/1
f 86/1/1 85/1/1 84/1/1
f 87/1/1 85/1/1 86/1/1
f 90/1/1 89/1/1 88/1/1
f 91/1/1 89/1/1 90/1/1
f 94/1/1 93/1/1 92/1/1
f 95/1/1 93/1/1 94/1/1
f 98/1/1 97/1/1 96/1/1
f 99/1/1 97/1/1 98/1/1
f 104/1/1 101/1/1 100/1/1
f 105/1/1 103/1/1 102/1/1
f 105/1/1 104/1/1 103/1/1
f 106/1/1 104/1/1 105/1/1
f 107/1/1 101/1/1 104/1/1
f 107/1/1 104/1/1 106/1/1
f 110/1/1 109/1/1 108/1/1
f 111/1/1 109/1/1 110/1/1
f 114/1/1 113/1/1 112/1/1
f 115/1/1 113/1/1 114/1/1
f 118/1/1 117/1/1 116/1/1
f 119/1/1 117/1/1 118/1/1
f 122/1/1 121/1/1 120/1/1
f 123/1/1 121/1/1 122/1/1
f 126/1/1 125/1/1 124/1/1
f 127/1/1 125/1/1 126/1/1
f 132/1/1 129/1/1 128/1/1
f 133/1/1 131/1/1 130/1/1
f 133/1/1 132/1/1 131/1/1
f 134/1/1 132/1/1 133/1/1
f 135/1/1 129/1/1 132/1/1
f 135/1/1 132/1/1 134/1/1
f 138/1/1 137/1/1 136/1/1
f 139/1/1 137/1/1 138/1/1
f 140/1/2 141/1/2 142/1/2
f 142/1/2 141/1/2 143/1/2
f 144/1/2 145/1/2 146/1/2
f 146/1/2 145/1/2 147/1/2
f 148/1/2 149/1/2 150/1/2
f 150/1/2 149/1/2 151/1/2
f 152/1/2 153/1/2 156/1/2
f 154/1/2 155/1/2 157/1/2
f 155/1/2 156/1/2 157/1/2
f 157/1/2 156/1/2 158/1/2
f 156/1/2 153/1/2 159/1/2
f 158/1/2 156/1/2 159/1/2
f 160/1/2 161/1/2 162/1/2
f 162/1/2 161/1/2 163/1/2
f 164/1/2 165/1/2 166/1/2
f 166/1/2 165/1/2 167/1/2
f 168/1/2 169/1/2 170/1/2
f 168/1/2 170/1/2 172/1/2
f 170/1/2 171/1/2 172/1/2
f 172/1/2 171/1/2 173/1/2
f 173/1/2 171/1/2 174/1/2
f 175/1/2 176/1/2 177/1/2
f 177/1/2 176/1/2 178/1/2
f 179/1/2 180/1/2 181/1/2
f 181/1/2 180/1/2 182/1/2
f 183/1/2 184/1/2 187/1/2
f 185/1/2 186/1/2 188/1/2
f 186/1/2 187/1/2 188/1/2
f 188/1/2 187/1/2 189/1/2
f 187/1/2 184/1/2 190/1/2
f 189/1/2 187/1/2 190/1/2
f 191/1/2 192/1/2 193/1/2
f 193/1/2 192/1/2 194/1/2
f 195/1/2 196/1/2 197/1/2
f 197/1/2 196/1/2 198/1/2
f 199/1/2 200/1/2 201/1/2
f 201/1/2 200/1/2 202/1/2
f 203/1/2 204/1/2 205/1/2
f 205/1/2 204/1/2 206/1/2
f 207/1/2 208/1/2 211/1/2
f 209/1/2 210/1/2 212/1/2
f 210/1/2 211/1/2 212/1/2
f 212/1/2 211/1/2 213/1/2
f 211/1/2 208/1/2 214/1/2
f 213/1/2 211/1/2 214/1/2
f 215/1/2 216/1/2 217/1/2
f 217/1/2 216/1/2 218/1/2
f 219/1/2 220/1/2 221/1/2
f 221/1/2 220/1/2 222/1/2
f 223/1/2 224/1/2 225/1/2
f 225/1/2 224/1/2 226/1/2
f 227/1/2 228/1/2 229/1/2
f 229/1/2 228/1/2 230/1/2
f 231/1/2 232/1/2 233/1/2
f 233/1/2 232/1/2 234/1/2
f 235/1/2 236/1/2 239/1/2
f 237/1/2 238/1/2 240/1/2
f 238/1/2 239/1/2 240/1/2
f 240/1/2 239/1/2 241/1/2
f 239/1/2 236/1/2 242/1/2
f 241/1/2 239/1/2 242/1/2
f 243/1/2 244/1/2 245/1/2
f 245/1/2 244/1/2 246/1/2
f 247/2/2 248/2/2 249/2/2
f 249/2/2 248/2/2 250/2/2
f 250/2/2 248/2/2 251/2/2
f 249/1/2 250/1/2 252/1/2
f 252/1/2 250/1/2 253/1/2
f 249/1/2 252/1/2 254/1/2
f 249/1/2 254/1/2 256/1/2
f 254/1/2 255/1/2 256/1/2
f 256/1/2 255/1/2 257/1/2
f 249/1/2 256/1/2 258/1/2
f 249/1/2 258/1/2 260/1/2
f 258/1/2 259/1/2 260/1/2
f 260/1/2 259/1/2 261/1/2
f 249/1/2 260/1/2 262/1/2
f 249/1/2 262/1/2 264/1/2
f 262/1/2 263/1/2 264/1/2
f 264/1/2 263/1/2 265/1/2
f 249/1/2 264/1/2 266/1/2
f 249/1/2 266/1/2 268/1/2
f 266/1/2 267/1/2 268/1/2
f 268/1/2 267/1/2 269/1/2
f 249/1/2 268/1/2 270/1/2
f 247/2/2 249/2/2 272/2/2
f 270/1/2 271/1/2 273/1/2
f 272/2/2 249/2/2 273/2/2
f 249/1/2 270/1/2 273/1/2
f 272/1/2 273/1/2 274/1/2
f 273/1/2 271/1/2 274/1/2
f 274/1/2 271/1/2 275/1/2
f 272/1/2 274/1/2 276/1/2
f 274/3/2 275/3/2 277/3/2
f 276/1/2 274/1/2 277/1/2
f 277/3/2 275/3/2 278/3/2
f 282/2/3 280/2/3 279/2/3
f 282/1/3 281/1/3 280/1/3
f 283/1/3 281/1/3 282/1/3
f 284/2/3 282/2/3 279/2/3
f 285/1/3 281/1/3 283/1/3
f 286/2/3 284/2/3 279/2/3
f 286/1/3 285/1/3 284/1/3
f 287/1/3 281/1/3 285/1/3
f 287/1/3 285/1/3 286/1/3
f 288/2/3 286/2/3 279/2/3
f 289/1/3 281/1/3 287/1/3
f 290/2/3 288/2/3 279/2/3
f 290/1/3 289/1/3 288/1/3
f 291/1/3 281/1/3 289/1/3
f 291/1/3 289/1/3 290/1/3
f 292/2/3 290/2/3 279/2/3
f 293/1/3 281/1/3 291/1/3
f 294/2/3 292/2/3 279/2/3
f 294/1/3 293/1/3 292/1/3
f 295/1/3 281/1/3 293/1/3
f 295/1/3 293/1/3 294/1/3
f 296/2/3 294/2/3 279/2/3
f 297/1/3 281/1/3 295/1/3
f 298/2/3 296/2/3 279/2/3
f 299/1/3 297/1/3 296/1/3
f 299/2/3 296/2/3 298/2/3
f 300/1/3 281/1/3 297/1/3
f 300/1/3 297/1/3 299/1/3
f 301/1/4 302/1/4 303/1/4
f 303/1/4 302/1/4 304/1/4
f 305/1/4 306/1/4 315/1/4
f 307/1/4 308/1/4 316/1/4
f 311/1/4 312/1/4 317/1/4
f 313/1/4 314/1/4 318/1/4
f 305/1/4 315/1/4 319/1/4
f 315/1/4 316/1/4 319/1/4
f 316/1/4 308/1/4 320/1/4
f 319/1/4 316/1/4 320/1/4
f 311/1/4 317/1/4 321/1/4
f 317/1/4 318/1/4 321/1/4
f 318/1/4 314/1/4 322/1/4
f 321/1/4 318/1/4 322/1/4
f 309/1/4 310/1/4 323/1/4
f 311/1/4 321/1/4 324/1/4
f 322/1/4 314/1/4 325/1/4
f 323/1/4 324/1/4 327/1/4
f 309/1/4 323/1/4 327/1/4
f 324/1/4 321/1/4 328/1/4
f 327/1/4 324/1/4 328/1/4
f 325/1/4 326/1/4 329/1/4
f 322/1/4 325/1/4 329/1/4
f 329/1/4 326/1/4 330/1/4
f 320/1/4 308/1/4 331/1/4
f 309/1/4 327/1/4 332/1/4
f 305/1/4 319/1/4 333/1/4
f 331/1/4 332/1/4 334/1/4
f 320/1/4 331/1/4 334/1/4
f 334/1/4 332/1/4 335/1/4
f 332/1/4 327/1/4 336/1/4
f 335/1/4 332/1/4 336/1/4
f 305/1/4 333/1/4 337/1/4
f 334/1/4 335/1/4 337/1/4
f 333/1/4 334/1/4 337/1/4
f 337/1/4 335/1/4 338/1/4
f 328/1/4 321/1/4 339/1/4
f 339/1/4 321/1/4 340/1/4
f 322/1/4 329/1/4 341/1/4
f 341/1/4 329/1/4 344/1/4
f 338/1/4 335/1/4 345/1/4
f 336/1/4 327/1/4 346/1/4
f 346/1/4 327/1/4 347/1/4
f 342/1/4 343/1/4 348/1/4
f 344/1/4 329/1/4 349/1/4
f 347/1/4 348/1/4 351/1/4
f 346/1/4 347/1/4 351/1/4
f 338/1/4 345/1/4 351/1/4
f 345/1/4 346/1/4 351/1/4
f 351/1/4 348/1/4 352/1/4
f 352/1/4 348/1/4 353/1/4
f 348/1/4 343/1/4 354/1/4
f 353/1/4 348/1/4 354/1/4
f 349/1/4 350/1/4 355/1/4
f 344/1/4 349/1/4 355/1/4
f 355/1/4 350/1/4 356/1/4
f 305/1/4 337/1/4 357/1/4
f 338/1/4 351/1/4 358/1/4
f 305/1/4 357/1/4 359/1/4
f 357/1/4 358/1/4 359/1/4
f 358/1/4 351/1/4 360/1/4
f 359/1/4 358/1/4 360/1/4
f 354/1/4 343/1/4 361/1/4
f 344/1/4 355/1/4 362/1/4
f 354/1/4 361/1/4 363/1/4
f 361/1/4 362/1/4 363/1/4
f 362/1/4 355/1/4 364/1/4
f 363/1/4 362/1/4 364/1/4
f 360/1/4 351/1/4 365/1/4
f 352/1/4 353/1/4 366/1/4
f 360/1/4 365/1/4 367/1/4
f 365/1/4 366/1/4 367/1/4
f 366/1/4 353/1/4 368/1/4
f 367/1/4 366/1/4 368/1/4
f 305/1/4 359/1/4 369/1/4
f 360/1/4 367/1/4 370/1/4
f 364/1/4 355/1/4 371/1/4
f 369/1/4 370/1/4 373/1/4
f 305/1/4 369/1/4 373/1/4
f 370/1/4 367/1/4 374/1/4
f 373/1/4 370/1/4 374/1/4
f 368/1/4 353/1/4 375/1/4
f 354/1/4 363/1/4 376/1/4
f 371/1/4 372/1/4 377/1/4
f 364/1/4 371/1/4 377/1/4
f 377/1/4 372/1/4 378/1/4
f 375/1/4 376/1/4 379/1/4
f 368/1/4 375/1/4 379/1/4
f 376/1/4 363/1/4 380/1/4
f 379/1/4 376/1/4 380/1/4
f 374/1/4 367/1/4 381/1/4
f 368/1/4 379/1/4 382/1/4
f 374/1/4 381/1/4 383/1/4
f 381/1/4 382/1/4 383/1/4
f 382/1/4 379/1/4 384/1/4
f 383/1/4 382/1/4 384/1/4
f 305/1/4 373/1/4 385/1/4
f 374/1/4 383/1/4 386/1/4
f 380/1/4 363/1/4 387/1/4
f 364/1/4 377/1/4 388/1/4
f 305/1/4 385/1/4 389/1/4
f 385/1/4 386/1/4 389/1/4
f 386/1/4 383/1/4 390/1/4
f 389/1/4 386/1/4 390/1/4
f 384/1/4 379/1/4 391/1/4
f 387/1/4 388/1/4 392/1/4
f 380/1/4 387/1/4 392/1/4
f 392/1/4 388/1/4 393/1/4
f 388/1/4 377/1/4 394/1/4
f 393/1/4 388/1/4 394/1/4
f 384/1/4 391/1/4 395/1/4
f 391/1/4 392/1/4 395/1/4
f 392/1/4 393/1/4 395/1/4
f 395/1/4 393/1/4 396/1/4
f 394/1/4 377/1/4 397/1/4
f 397/1/4 398/1/4 399/1/4
f 394/1/4 397/1/4 399/1/4
f 399/1/4 398/1/4 400/1/4
f 390/1/4 383/1/4 401/1/4
f 384/1/4 395/1/4 402/1/4
f 390/1/4 401/1/4 403/1/4
f 401/1/4 402/1/4 403/1/4
f 402/1/4 395/1/4 404/1/4
f 403/1/4 402/1/4 404/1/4
f 305/1/4 389/1/4 405/1/4
f 405/1/4 389/1/4 406/1/4
f 390/1/4 403/1/4 407/1/4
f 407/1/4 403/1/4 408/1/4
f 404/1/4 395/1/4 409/1/4
f 409/1/4 395/1/4 410/1/4
f 396/1/4 393/1/4 411/1/4
f 411/1/4 393/1/4 412/1/4
f 394/1/4 399/1/4 413/1/4
f 413/1/4 399/1/4 414/1/4
f 417/1/4 418/1/4 428/1/4
f 428/1/4 418/1/4 429/1/4
f 423/1/4 424/1/4 430/1/4
f 430/1/4 424/1/4 431/1/4
f 421/1/4 422/1/4 436/1/4
f 436/1/4 422/1/4 437/1/4
f 425/1/4 426/1/4 438/1/4
f 426/3/4 427/3/4 439/3/4
f 438/1/4 426/1/4 439/1/4
f 439/3/4 427/3/4 443/3/4
f 419/1/4 420/1/4 444/1/4
f 444/1/4 420/1/4 445/1/4
f 432/1/4 433/1/4 446/1/4
f 446/1/4 433/1/4 447/1/4
f 434/1/4 435/1/4 452/1/4
f 452/1/4 435/1/4 453/1/4
f 448/1/4 449/1/4 456/1/4
f 456/1/4 449/1/4 457/1/4
f 440/1/4 441/1/4 458/1/4
f 458/1/4 441/1/4 459/1/4
f 442/1/4 443/1/4 460/1/4
f 443/3/4 427/3/4 461/3/4
f 460/1/4 443/1/4 461/1/4
f 461/3/4 427/3/4 467/3/4
f 450/1/4 451/1/4 468/1/4
f 468/1/4 451/1/4 469/1/4
f 454/1/4 455/1/4 472/1/4
f 472/1/4 455/1/4 473/1/4
f 462/1/4 463/1/4 476/1/4
f 476/1/4 463/1/4 477/1/4
f 470/1/4 471/1/4 480/1/4
f 480/1/4 471/1/4 481/1/4
f 466/1/4 467/1/4 482/1/4
f 467/3/4 427/3/4 483/3/4
f 482/1/4 467/1/4 483/1/4
f 464/1/4 465/1/4 486/1/4
f 486/1/4 465/1/4 487/1/4
f 483/3/4 427/3/4 489/3/4
f 478/1/4 479/1/4 492/1/4
f 492/1/4 479/1/4 493/1/4
f 484/1/4 485/1/4 496/1/4
f 496/1/4 485/1/4 497/1/4
f 474/1/4 475/1/4 498/1/4
f 498/1/4 475/1/4 499/1/4
f 490/1/4 491/1/4 502/1/4
f 502/1/4 491/1/4 503/1/4
f 488/1/4 489/1/4 508/1/4
f 489/3/4 427/3/4 509/3/4
f 508/1/4 489/1/4 509/1/4
f 509/3/4 427/3/4 511/3/4
f 494/1/4 495/1/4 512/1/4
f 512/1/4 495/1/4 513/1/4
f 415/1/4 416/1/4 516/1/4
f 516/1/4 416/1/4 517/1/4
f 500/1/4 501/1/4 518/1/4
f 518/1/4 501/1/4 519/1/4
f 514/1/4 515/1/4 520/1/4
f 520/1/4 515/1/4 521/1/4
f 506/1/4 507/1/4 522/1/4
f 522/1/4 507/1/4 523/1/4
f 504/1/4 505/1/4 524/1/4
f 524/1/4 505/1/4 525/1/4
f 510/1/4 511/1/4 526/1/4
f 511/3/4 427/3/4 527/3/4
f 526/1/4 511/1/4 527/1/4
f 527/3/4 427/3/4 528/3/4
f 529/2/4 530/2/4 531/2/4
f 531/2/4 530/2/4 532/2/4
f 535/2/5 534/2/5 533/2/5
f 536/2/5 534/2/5 535/2/5
f 549/1/5 538/1/5 537/1/5
f 550/1/5 538/1/5 549/1/5
f 551/1/5 540/1/5 539/1/5
f 552/1/5 540/1/5 551/1/5
f 553/1/5 542/1/5 541/1/5
f 554/1/5 542/1/5 553/1/5
f 555/1/5 544/1/5 543/1/5
f 556/1/5 544/1/5 555/1/5
f 557/1/5 546/1/5 545/1/5
f 558/1/5 546/1/5 557/1/5
f 559/1/5 548/1/5 547/1/5
f 560/1/5 548/1/5 559/1/5
f 573/1/5 562/1/5 561/1/5
f 574/1/5 562/1/5 573/1/5
f 575/1/5 564/1/5 563/1/5
f 576/1/5 564/1/5 575/1/5
f 577/1/5 566/1/5 565/1/5
f 578/1/5 566/1/5 577/1/5
f 579/1/5 568/1/5 567/1/5
f 580/1/5 568/1/5 579/1/5
f 581/1/5 570/1/5 569/1/5
f 582/1/5 570/1/5 581/1/5
f 583/1/5 572/1/5 571/1/5
f 584/1/5 572/1/5 583/1/5
f 595/1/5 586/1/5 585/1/5
f 596/1/5 586/1/5 595/1/5
f 597/1/5 588/1/5 587/1/5
f 598/1/5 588/1/5 597/1/5
f 599/1/5 590/1/5 589/1/5
f 600/1/5 590/1/5 599/1/5
f 601/1/5 592/1/5 591/1/5
f 602/1/5 592/1/5 601/1/5
f 603/1/5 594/1/5 593/1/5
f 604/1/5 594/1/5 603/1/5
f 615/1/5 606/1/5 605/1/5
f 616/1/5 606/1/5 615/1/5
f 617/1/5 608/1/5 607/1/5
f 618/1/5 608/1/5 617/1/5
f 619/1/5 610/1/5 609/1/5
f 620/1/5 610/1/5 619/1/5
f 621/1/5 612/1/5 611/1/5
f 622/1/5 612/1/5 621/1/5
f 623/1/5 614/1/5 613/1/5
f 624/1/5 614/1/5 623/1/5
f 627/1/5 626/1/5 625/1/5
f 628/1/5 626/1/5 627/1/5
f 639/1/5 630/1/5 629/1/5
f 640/1/5 630/1/5 639/1/5
f 641/1/5 632/1/5 631/1/5
f 642/1/5 632/1/5 641/1/5
f 643/1/5 634/1/5 633/1/5
f 644/1/5 634/1/5 643/1/5
f 645/1/5 636/1/5 635/1/5
f 646/1/5 636/1/5 645/1/5
f 647/1/5 638/1/5 637/1/5
f 648/1/5 638/1/5 647/1/5
f 657/1/5 650/1/5 649/1/5
f 658/1/5 650/1/5 657/1/5
f 659/1/5 652/1/5 651/1/5
f 660/1/5 652/1/5 659/1/5
f 661/1/5 654/1/5 653/1/5
f 662/1/5 654/1/5 661/1/5
f 663/1/5 656/1/5 655/1/5
f 664/1/5 656/1/5 663/1/5
f 665/3/5 658/3/5 657/3/5
f 666/3/5 658/3/5 665/3/5
f 667/3/5 660/3/5 659/3/5
f 668/3/5 660/3/5 667/3/5
f 669/3/5 662/3/5 661/3/5
f 670/3/5 662/3/5 669/3/5
f 671/3/5 664/3/5 663/3/5
f 672/3/5 664/3/5 671/3/5
f 673/2/6 674/2/6 675/2/6
f 675/2/6 674/2/6 676/2/6
f 677/1/6 678/1/6 679/1/6
f 679/1/6 678/1/6 680/1/6
f 681/1/6 682/1/6 693/1/6
f 693/1/6 682/1/6 694/1/6
f 683/1/6 684/1/6 695/1/6
f 695/1/6 684/1/6 696/1/6
f 685/1/6 686/1/6 697/1/6
f 697/1/6 686/1/6 698/1/6
f 687/1/6 688/1/6 699/1/6
f 699/1/6 688/1/6 700/1/6
f 689/1/6 690/1/6 701/1/6
f 701/1/6 690/1/6 702/1/6
f 691/1/6 692/1/6 703/1/6
f 703/1/6 692/1/6 704/1/6
f 705/1/6 706/1/6 717/1/6
f 717/1/6 706/1/6 718/1/6
f 707/1/6 708/1/6 719/1/6
f 719/1/6 708/1/6 720/1/6
f 709/1/6 710/1/6 721/1/6
f 721/1/6 710/1/6 722/1/6
f 711/1/6 712/1/6 723/1/6
f 723/1/6 712/1/6 724/1/6
f 713/1/6 714/1/6 725/1/6
f 725/1/6 714/1/6 726/1/6
f 715/1/6 716/1/6 727/1/6
f 727/1/6 716/1/6 728/1/6
f 729/1/6 730/1/6 734/1/6
f 734/1/6 730/1/6 735/1/6
f 731/1/6 732/1/6 743/1/6
f 743/1/6 732/1/6 744/1/6
f 733/1/6 734/1/6 745/1/6
f 734/1/6 735/1/6 745/1/6
f 735/1/6 736/1/6 745/1/6
f 745/1/6 736/1/6 746/1/6
f 737/1/6 738/1/6 747/1/6
f 747/1/6 738/1/6 748/1/6
f 739/1/6 740/1/6 749/1/6
f 749/1/6 740/1/6 750/1/6
f 741/1/6 742/1/6 751/1/6
f 751/1/6 742/1/6 752/1/6
f 753/1/6 754/1/6 763/1/6
f 763/1/6 754/1/6 764/1/6
f 755/1/6 756/1/6 765/1/6
f 765/1/6 756/1/6 766/1/6
f 757/1/6 758/1/6 767/1/6
f 767/1/6 758/1/6 768/1/6
f 759/1/6 760/1/6 769/1/6
f 769/1/6 760/1/6 770/1/6
f 761/1/6 762/1/6 771/1/6
f 771/1/6 762/1/6 772/1/6
f 773/2/6 774/2/6 781/2/6
f 781/2/6 774/2/6 782/2/6
f 775/2/6 776/2/6 783/2/6
f 783/2/6 776/2/6 784/2/6
f 777/2/6 778/2/6 785/2/6
f 785/2/6 778/2/6 786/2/6
f 779/2/6 780/2/6 787/2/6
f 787/2/6 780/2/6 788/2/6
f 781/1/6 782/1/6 789/1/6
f 789/1/6 782/1/6 790/1/6
f 783/1/6 784/1/6 791/1/6
f 791/1/6 784/1/6 792/1/6
f 785/1/6 786/1/6 793/1/6
f 793/1/6 786/1/6 794/1/6
f 787/1/6 788/1/6 795/1/6
f 795/1/6 788/1/6 796/1/6
f 797/1/6 798/1/6 799/1/6
f 799/1/6 798/1/6 800/1/6
f 799/3/6 800/3/6 801/3/6
f 801/3/6 800/3/6 802/3/6
