# MagicaVoxel @ Ephtracy

# material
mtllib 006.mtl
usemtl palette

# normals
vn -1 0 0
vn 1 0 0
vn 0 0 1
vn 0 0 -1
vn 0 -1 0
vn 0 1 0

# texcoords
vt 0.677734 0.5
vt 0.966797 0.5

# verts
v -16 0 16
v -16 0 -16
v -16 8 16
v -16 8 -16
v -16 9 16
v -16 9 -16
v -12 8 16
v -12 8 -16
v -12 9 16
v -12 9 -16
v 16 0 16
v 16 0 -16
v 16 8 16
v 16 8 -16
v -16 0 16
v -16 8 16
v -16 9 16
v -12 8 16
v -12 9 16
v 16 0 16
v 16 8 16
v -16 0 -16
v -16 8 -16
v -16 9 -16
v -12 8 -16
v -12 9 -16
v 16 0 -16
v 16 8 -16
v -16 0 16
v 16 0 16
v -16 0 -16
v 16 0 -16
v -12 8 16
v 16 8 16
v -12 8 -16
v 16 8 -16
v -16 9 16
v -12 9 16
v -16 9 -16
v -12 9 -16

# faces
f 3/1/1 2/1/1 1/1/1
f 4/1/1 2/1/1 3/1/1
f 5/2/1 4/2/1 3/2/1
f 6/2/1 4/2/1 5/2/1
f 7/2/2 8/2/2 9/2/2
f 9/2/2 8/2/2 10/2/2
f 11/1/2 12/1/2 13/1/2
f 13/1/2 12/1/2 14/1/2
f 18/1/3 16/1/3 15/1/3
f 18/2/3 17/2/3 16/2/3
f 19/2/3 17/2/3 18/2/3
f 20/1/3 18/1/3 15/1/3
f 21/1/3 18/1/3 20/1/3
f 22/1/4 23/1/4 25/1/4
f 23/2/4 24/2/4 25/2/4
f 25/2/4 24/2/4 26/2/4
f 22/1/4 25/1/4 27/1/4
f 27/1/4 25/1/4 28/1/4
f 31/1/5 30/1/5 29/1/5
f 32/1/5 30/1/5 31/1/5
f 33/1/6 34/1/6 35/1/6
f 35/1/6 34/1/6 36/1/6
f 37/2/6 38/2/6 39/2/6
f 39/2/6 38/2/6 40/2/6
