# MagicaVoxel @ Ephtracy

# material
mtllib 009.mtl
usemtl palette

# normals
vn -1 0 0
vn 1 0 0
vn 0 0 1
vn 0 0 -1
vn 0 -1 0
vn 0 1 0

# texcoords
vt 0.677734 0.5
vt 0.966797 0.5

# verts
v -16 0 16
v -16 0 -16
v -16 8 16
v -16 8 -0
v -16 8 -15
v -16 32 -15
v -16 32 -16
v -16 64 -0
v -16 64 -16
v 16 0 16
v 16 0 -16
v 16 8 16
v 16 8 -0
v 16 8 -15
v 16 32 -15
v 16 32 -16
v 16 64 -0
v 16 64 -16
v -16 0 16
v -16 8 16
v 16 0 16
v 16 8 16
v -16 8 -0
v -16 64 -0
v 16 8 -0
v 16 64 -0
v -16 0 -16
v -16 32 -16
v -16 64 -16
v 16 0 -16
v 16 32 -16
v 16 64 -16
v -16 0 16
v 16 0 16
v -16 0 -16
v 16 0 -16
v -16 8 16
v 16 8 16
v -16 8 -0
v 16 8 -0
v -16 64 -0
v 16 64 -0
v -16 64 -16
v 16 64 -16

# faces
f 3/1/1 2/1/1 1/1/1
f 4/1/1 2/1/1 3/1/1
f 5/1/1 2/1/1 4/1/1
f 6/1/1 2/1/1 5/1/1
f 6/2/1 5/2/1 4/2/1
f 7/1/1 2/1/1 6/1/1
f 8/2/1 6/2/1 4/2/1
f 8/2/1 7/2/1 6/2/1
f 9/2/1 7/2/1 8/2/1
f 10/1/2 11/1/2 12/1/2
f 12/1/2 11/1/2 13/1/2
f 13/1/2 11/1/2 14/1/2
f 14/1/2 11/1/2 15/1/2
f 13/2/2 14/2/2 15/2/2
f 15/1/2 11/1/2 16/1/2
f 13/2/2 15/2/2 17/2/2
f 15/2/2 16/2/2 17/2/2
f 17/2/2 16/2/2 18/2/2
f 21/1/3 20/1/3 19/1/3
f 22/1/3 20/1/3 21/1/3
f 25/2/3 24/2/3 23/2/3
f 26/2/3 24/2/3 25/2/3
f 27/1/4 28/1/4 30/1/4
f 28/2/4 29/2/4 31/2/4
f 30/1/4 28/1/4 31/1/4
f 31/2/4 29/2/4 32/2/4
f 35/1/5 34/1/5 33/1/5
f 36/1/5 34/1/5 35/1/5
f 37/1/6 38/1/6 39/1/6
f 39/1/6 38/1/6 40/1/6
f 41/2/6 42/2/6 43/2/6
f 43/2/6 42/2/6 44/2/6
