# MagicaVoxel @ Ephtracy

# material
mtllib 011.mtl
usemtl palette

# normals
vn -1 0 0
vn 1 0 0
vn 0 0 1
vn 0 0 -1
vn 0 -1 0
vn 0 1 0

# texcoords
vt 0.677734 0.5
vt 0.966797 0.5

# verts
v -16 0 16
v -16 0 -16
v -16 8 16
v -16 8 12
v -16 8 -16
v -16 9 16
v -16 9 12
v -14 8 13
v -14 8 12
v -14 9 13
v -14 9 12
v -13 8 14
v -13 8 13
v -13 9 14
v -13 9 13
v -12 8 16
v -12 8 14
v -12 9 16
v -12 9 14
v 16 0 16
v 16 0 -16
v 16 8 16
v 16 8 -16
v -16 0 16
v -16 8 16
v -16 9 16
v -12 8 16
v -12 9 16
v 16 0 16
v 16 8 16
v -13 8 14
v -13 9 14
v -12 8 14
v -12 9 14
v -14 8 13
v -14 9 13
v -13 8 13
v -13 9 13
v -16 8 12
v -16 9 12
v -14 8 12
v -14 9 12
v -16 0 -16
v -16 8 -16
v 16 0 -16
v 16 8 -16
v -16 0 16
v 16 0 16
v -16 0 -16
v 16 0 -16
v -12 8 16
v 16 8 16
v -13 8 14
v -12 8 14
v -14 8 13
v -13 8 13
v -16 8 12
v -14 8 12
v -16 8 -16
v 16 8 -16
v -16 9 16
v -12 9 16
v -13 9 14
v -12 9 14
v -14 9 13
v -13 9 13
v -16 9 12
v -14 9 12

# faces
f 3/1/1 2/1/1 1/1/1
f 4/1/1 2/1/1 3/1/1
f 5/1/1 2/1/1 4/1/1
f 6/2/1 4/2/1 3/2/1
f 7/2/1 4/2/1 6/2/1
f 8/2/2 9/2/2 10/2/2
f 10/2/2 9/2/2 11/2/2
f 12/2/2 13/2/2 14/2/2
f 14/2/2 13/2/2 15/2/2
f 16/2/2 17/2/2 18/2/2
f 18/2/2 17/2/2 19/2/2
f 20/1/2 21/1/2 22/1/2
f 22/1/2 21/1/2 23/1/2
f 27/1/3 25/1/3 24/1/3
f 27/2/3 26/2/3 25/2/3
f 28/2/3 26/2/3 27/2/3
f 29/1/3 27/1/3 24/1/3
f 30/1/3 27/1/3 29/1/3
f 31/2/4 32/2/4 33/2/4
f 33/2/4 32/2/4 34/2/4
f 35/2/4 36/2/4 37/2/4
f 37/2/4 36/2/4 38/2/4
f 39/2/4 40/2/4 41/2/4
f 41/2/4 40/2/4 42/2/4
f 43/1/4 44/1/4 45/1/4
f 45/1/4 44/1/4 46/1/4
f 49/1/5 48/1/5 47/1/5
f 50/1/5 48/1/5 49/1/5
f 51/1/6 52/1/6 54/1/6
f 53/1/6 54/1/6 56/1/6
f 55/1/6 56/1/6 58/1/6
f 57/1/6 58/1/6 59/1/6
f 54/1/6 52/1/6 60/1/6
f 59/1/6 58/1/6 60/1/6
f 56/1/6 54/1/6 60/1/6
f 58/1/6 56/1/6 60/1/6
f 61/2/6 62/2/6 63/2/6
f 63/2/6 62/2/6 64/2/6
f 61/2/6 63/2/6 65/2/6
f 65/2/6 63/2/6 66/2/6
f 61/2/6 65/2/6 67/2/6
f 67/2/6 65/2/6 68/2/6
