# MagicaVoxel @ Ephtracy

# group
g 002_001_01

# material
mtllib 002_001_01.mtl
usemtl palette

# normals
vn -1 0 0
vn 1 0 0
vn 0 0 1
vn 0 0 -1
vn 0 -1 0
vn 0 1 0

# texcoords
vt 0.908203 0.5
vt 0.970703 0.5
vt 0.974609 0.5

# verts
v -16 0 16
v -16 0 -16
v -16 1 -1
v -16 1 -2
v -16 2 13
v -16 2 11
v -16 2 7
v -16 2 6
v -16 2 -0
v -16 2 -1
v -16 2 -9
v -16 2 -10
v -16 3 14
v -16 3 13
v -16 3 8
v -16 3 7
v -16 3 -0
v -16 3 -1
v -16 3 -5
v -16 3 -6
v -16 3 -8
v -16 3 -9
v -16 3 -10
v -16 3 -11
v -16 4 16
v -16 4 14
v -16 4 11
v -16 4 8
v -16 4 6
v -16 4 -1
v -16 4 -2
v -16 4 -5
v -16 4 -6
v -16 4 -8
v -16 4 -11
v -16 4 -16
v -16 6 16
v -16 6 -16
v -13 6 -6
v -13 6 -7
v -13 7 -6
v -13 7 -7
v -12 6 9
v -12 6 8
v -12 7 9
v -12 7 8
v -10 6 1
v -10 6 -0
v -10 7 1
v -10 7 -0
v -7 6 3
v -7 6 1
v -7 6 -11
v -7 6 -12
v -7 7 3
v -7 7 1
v -7 7 -11
v -7 7 -12
v -6 6 4
v -6 6 3
v -6 6 1
v -6 6 -0
v -6 7 4
v -6 7 3
v -6 7 1
v -6 7 -0
v -4 6 9
v -4 6 8
v -4 7 9
v -4 7 8
v -1 6 16
v -1 6 15
v -1 6 -6
v -1 6 -7
v -1 7 16
v -1 7 15
v -1 7 -6
v -1 7 -7
v 1 6 1
v 1 6 -0
v 1 7 1
v 1 7 -0
v 5 6 -8
v 5 6 -9
v 5 7 -8
v 5 7 -9
v 8 6 8
v 8 6 7
v 8 7 8
v 8 7 7
v 9 6 -15
v 9 6 -16
v 9 7 -15
v 9 7 -16
v 11 6 -4
v 11 6 -5
v 11 7 -4
v 11 7 -5
v 12 6 5
v 12 6 4
v 12 6 3
v 12 6 2
v 12 7 5
v 12 7 4
v 12 7 3
v 12 7 2
v -12 6 -6
v -12 6 -7
v -12 7 -6
v -12 7 -7
v -11 6 9
v -11 6 8
v -11 7 9
v -11 7 8
v -9 6 1
v -9 6 -0
v -9 7 1
v -9 7 -0
v -6 6 3
v -6 6 1
v -6 6 -11
v -6 6 -12
v -6 7 3
v -6 7 1
v -6 7 -11
v -6 7 -12
v -5 6 4
v -5 6 3
v -5 6 1
v -5 6 -0
v -5 7 4
v -5 7 3
v -5 7 1
v -5 7 -0
v -3 6 9
v -3 6 8
v -3 7 9
v -3 7 8
v 0 6 16
v 0 6 15
v 0 6 -6
v 0 6 -7
v 0 7 16
v 0 7 15
v 0 7 -6
v 0 7 -7
v 2 6 1
v 2 6 -0
v 2 7 1
v 2 7 -0
v 6 6 -8
v 6 6 -9
v 6 7 -8
v 6 7 -9
v 9 6 8
v 9 6 7
v 9 7 8
v 9 7 7
v 10 6 -15
v 10 6 -16
v 10 7 -15
v 10 7 -16
v 12 6 -4
v 12 6 -5
v 12 7 -4
v 12 7 -5
v 13 6 5
v 13 6 4
v 13 6 3
v 13 6 2
v 13 7 5
v 13 7 4
v 13 7 3
v 13 7 2
v 16 0 16
v 16 0 -16
v 16 2 11
v 16 2 10
v 16 2 -6
v 16 2 -7
v 16 3 16
v 16 3 15
v 16 3 13
v 16 3 12
v 16 3 10
v 16 3 9
v 16 3 -0
v 16 3 -1
v 16 3 -5
v 16 3 -6
v 16 3 -12
v 16 3 -13
v 16 4 15
v 16 4 13
v 16 4 12
v 16 4 11
v 16 4 9
v 16 4 -0
v 16 4 -1
v 16 4 -5
v 16 4 -7
v 16 4 -12
v 16 4 -13
v 16 4 -16
v 16 6 16
v 16 6 -16
v -16 0 16
v -16 4 16
v -16 6 16
v -14 3 16
v -14 4 16
v -13 3 16
v -13 4 16
v -11 3 16
v -11 4 16
v -10 3 16
v -10 4 16
v -3 3 16
v -3 4 16
v -2 3 16
v -2 4 16
v -1 6 16
v -1 7 16
v 0 6 16
v 0 7 16
v 1 2 16
v 1 4 16
v 2 2 16
v 2 3 16
v 3 3 16
v 3 4 16
v 4 3 16
v 4 4 16
v 5 3 16
v 5 4 16
v 11 2 16
v 11 4 16
v 12 2 16
v 12 4 16
v 15 3 16
v 15 4 16
v 16 0 16
v 16 3 16
v 16 6 16
v -12 6 9
v -12 7 9
v -11 6 9
v -11 7 9
v -4 6 9
v -4 7 9
v -3 6 9
v -3 7 9
v 8 6 8
v 8 7 8
v 9 6 8
v 9 7 8
v 12 6 5
v 12 7 5
v 13 6 5
v 13 7 5
v -6 6 4
v -6 7 4
v -5 6 4
v -5 7 4
v -7 6 3
v -7 7 3
v -6 6 3
v -6 7 3
v 12 6 3
v 12 7 3
v 13 6 3
v 13 7 3
v -10 6 1
v -10 7 1
v -9 6 1
v -9 7 1
v -6 6 1
v -6 7 1
v -5 6 1
v -5 7 1
v 1 6 1
v 1 7 1
v 2 6 1
v 2 7 1
v 11 6 -4
v 11 7 -4
v 12 6 -4
v 12 7 -4
v -13 6 -6
v -13 7 -6
v -12 6 -6
v -12 7 -6
v -1 6 -6
v -1 7 -6
v 0 6 -6
v 0 7 -6
v 5 6 -8
v 5 7 -8
v 6 6 -8
v 6 7 -8
v -7 6 -11
v -7 7 -11
v -6 6 -11
v -6 7 -11
v 9 6 -15
v 9 7 -15
v 10 6 -15
v 10 7 -15
v -1 6 15
v -1 7 15
v 0 6 15
v 0 7 15
v -12 6 8
v -12 7 8
v -11 6 8
v -11 7 8
v -4 6 8
v -4 7 8
v -3 6 8
v -3 7 8
v 8 6 7
v 8 7 7
v 9 6 7
v 9 7 7
v 12 6 4
v 12 7 4
v 13 6 4
v 13 7 4
v -6 6 3
v -6 7 3
v -5 6 3
v -5 7 3
v 12 6 2
v 12 7 2
v 13 6 2
v 13 7 2
v -7 6 1
v -7 7 1
v -6 6 1
v -6 7 1
v -10 6 -0
v -10 7 -0
v -9 6 -0
v -9 7 -0
v -6 6 -0
v -6 7 -0
v -5 6 -0
v -5 7 -0
v 1 6 -0
v 1 7 -0
v 2 6 -0
v 2 7 -0
v 11 6 -5
v 11 7 -5
v 12 6 -5
v 12 7 -5
v -13 6 -7
v -13 7 -7
v -12 6 -7
v -12 7 -7
v -1 6 -7
v -1 7 -7
v 0 6 -7
v 0 7 -7
v 5 6 -9
v 5 7 -9
v 6 6 -9
v 6 7 -9
v -7 6 -12
v -7 7 -12
v -6 6 -12
v -6 7 -12
v -16 0 -16
v -16 4 -16
v -16 6 -16
v -13 2 -16
v -13 4 -16
v -12 2 -16
v -12 3 -16
v -11 2 -16
v -11 3 -16
v -11 4 -16
v -10 1 -16
v -10 2 -16
v -10 3 -16
v -10 4 -16
v -9 1 -16
v -9 4 -16
v -5 2 -16
v -5 4 -16
v -4 2 -16
v -4 3 -16
v -3 3 -16
v -3 4 -16
v 6 2 -16
v 6 4 -16
v 7 1 -16
v 7 2 -16
v 7 3 -16
v 7 4 -16
v 8 1 -16
v 8 3 -16
v 9 6 -16
v 9 7 -16
v 10 3 -16
v 10 4 -16
v 10 6 -16
v 10 7 -16
v 12 2 -16
v 12 3 -16
v 13 2 -16
v 13 4 -16
v 16 0 -16
v 16 4 -16
v 16 6 -16
v -16 0 16
v 16 0 16
v -16 0 -16
v 16 0 -16
v -16 6 16
v -1 6 16
v 0 6 16
v 16 6 16
v -1 6 15
v 0 6 15
v -12 6 9
v -11 6 9
v -4 6 9
v -3 6 9
v -12 6 8
v -11 6 8
v -4 6 8
v -3 6 8
v 8 6 8
v 9 6 8
v 8 6 7
v 9 6 7
v 12 6 5
v 13 6 5
v -6 6 4
v -5 6 4
v 12 6 4
v 13 6 4
v -7 6 3
v -6 6 3
v -5 6 3
v 12 6 3
v 13 6 3
v 12 6 2
v 13 6 2
v -10 6 1
v -9 6 1
v -7 6 1
v -6 6 1
v -5 6 1
v 1 6 1
v 2 6 1
v -10 6 -0
v -9 6 -0
v -6 6 -0
v -5 6 -0
v 1 6 -0
v 2 6 -0
v 11 6 -4
v 12 6 -4
v 11 6 -5
v 12 6 -5
v -13 6 -6
v -12 6 -6
v -1 6 -6
v 0 6 -6
v -13 6 -7
v -12 6 -7
v -1 6 -7
v 0 6 -7
v 5 6 -8
v 6 6 -8
v 5 6 -9
v 6 6 -9
v -7 6 -11
v -6 6 -11
v -7 6 -12
v -6 6 -12
v 9 6 -15
v 10 6 -15
v -16 6 -16
v 9 6 -16
v 10 6 -16
v 16 6 -16
v -1 7 16
v 0 7 16
v -1 7 15
v 0 7 15
v -12 7 9
v -11 7 9
v -4 7 9
v -3 7 9
v -12 7 8
v -11 7 8
v -4 7 8
v -3 7 8
v 8 7 8
v 9 7 8
v 8 7 7
v 9 7 7
v 12 7 5
v 13 7 5
v -6 7 4
v -5 7 4
v 12 7 4
v 13 7 4
v -7 7 3
v -6 7 3
v -5 7 3
v 12 7 3
v 13 7 3
v 12 7 2
v 13 7 2
v -10 7 1
v -9 7 1
v -7 7 1
v -6 7 1
v -5 7 1
v 1 7 1
v 2 7 1
v -10 7 -0
v -9 7 -0
v -6 7 -0
v -5 7 -0
v 1 7 -0
v 2 7 -0
v 11 7 -4
v 12 7 -4
v 11 7 -5
v 12 7 -5
v -13 7 -6
v -12 7 -6
v -1 7 -6
v 0 7 -6
v -13 7 -7
v -12 7 -7
v -1 7 -7
v 0 7 -7
v 5 7 -8
v 6 7 -8
v 5 7 -9
v 6 7 -9
v -7 7 -11
v -6 7 -11
v -7 7 -12
v -6 7 -12
v 9 7 -15
v 10 7 -15
v 9 7 -16
v 10 7 -16

# faces
f 3/1/1 2/1/1 1/1/1
f 4/1/1 2/1/1 3/1/1
f 5/1/1 3/1/1 1/1/1
f 6/1/1 3/1/1 5/1/1
f 7/1/1 3/1/1 6/1/1
f 8/1/1 3/1/1 7/1/1
f 9/1/1 3/1/1 8/1/1
f 10/2/1 4/2/1 3/2/1
f 10/1/1 3/1/1 9/1/1
f 11/1/1 2/1/1 4/1/1
f 12/1/1 2/1/1 11/1/1
f 13/1/1 5/1/1 1/1/1
f 14/2/1 6/2/1 5/2/1
f 14/1/1 5/1/1 13/1/1
f 15/1/1 7/1/1 6/1/1
f 16/2/1 8/2/1 7/2/1
f 16/1/1 7/1/1 15/1/1
f 17/1/1 9/1/1 8/1/1
f 17/2/1 10/2/1 9/2/1
f 18/2/1 4/2/1 10/2/1
f 18/2/1 10/2/1 17/2/1
f 19/1/1 11/1/1 4/1/1
f 20/1/1 11/1/1 19/1/1
f 21/1/1 11/1/1 20/1/1
f 22/2/1 12/2/1 11/2/1
f 22/1/1 11/1/1 21/1/1
f 23/1/1 2/1/1 12/1/1
f 23/2/1 12/2/1 22/2/1
f 24/1/1 2/1/1 23/1/1
f 25/1/1 13/1/1 1/1/1
f 26/2/1 14/2/1 13/2/1
f 26/1/1 13/1/1 25/1/1
f 27/2/1 6/2/1 14/2/1
f 27/2/1 14/2/1 26/2/1
f 27/1/1 15/1/1 6/1/1
f 28/2/1 16/2/1 15/2/1
f 28/1/1 15/1/1 27/1/1
f 29/1/1 17/1/1 8/1/1
f 29/2/1 16/2/1 28/2/1
f 29/2/1 8/2/1 16/2/1
f 29/1/1 18/1/1 17/1/1
f 30/2/1 4/2/1 18/2/1
f 30/1/1 18/1/1 29/1/1
f 31/1/1 19/1/1 4/1/1
f 31/2/1 4/2/1 30/2/1
f 32/2/1 20/2/1 19/2/1
f 32/1/1 19/1/1 31/1/1
f 33/1/1 21/1/1 20/1/1
f 33/2/1 20/2/1 32/2/1
f 34/2/1 23/2/1 22/2/1
f 34/1/1 21/1/1 33/1/1
f 34/2/1 22/2/1 21/2/1
f 34/2/1 24/2/1 23/2/1
f 35/1/1 2/1/1 24/1/1
f 35/2/1 24/2/1 34/2/1
f 36/1/1 2/1/1 35/1/1
f 37/2/1 28/2/1 27/2/1
f 37/2/1 33/2/1 32/2/1
f 37/2/1 36/2/1 35/2/1
f 37/2/1 35/2/1 34/2/1
f 37/2/1 30/2/1 29/2/1
f 37/2/1 32/2/1 31/2/1
f 37/2/1 29/2/1 28/2/1
f 37/2/1 27/2/1 26/2/1
f 37/2/1 31/2/1 30/2/1
f 37/2/1 26/2/1 25/2/1
f 37/2/1 34/2/1 33/2/1
f 38/2/1 36/2/1 37/2/1
f 41/3/1 40/3/1 39/3/1
f 42/3/1 40/3/1 41/3/1
f 45/3/1 44/3/1 43/3/1
f 46/3/1 44/3/1 45/3/1
f 49/3/1 48/3/1 47/3/1
f 50/3/1 48/3/1 49/3/1
f 55/3/1 52/3/1 51/3/1
f 56/3/1 52/3/1 55/3/1
f 57/3/1 54/3/1 53/3/1
f 58/3/1 54/3/1 57/3/1
f 63/3/1 60/3/1 59/3/1
f 64/3/1 60/3/1 63/3/1
f 65/3/1 62/3/1 61/3/1
f 66/3/1 62/3/1 65/3/1
f 69/3/1 68/3/1 67/3/1
f 70/3/1 68/3/1 69/3/1
f 75/3/1 72/3/1 71/3/1
f 76/3/1 72/3/1 75/3/1
f 77/3/1 74/3/1 73/3/1
f 78/3/1 74/3/1 77/3/1
f 81/3/1 80/3/1 79/3/1
f 82/3/1 80/3/1 81/3/1
f 85/3/1 84/3/1 83/3/1
f 86/3/1 84/3/1 85/3/1
f 89/3/1 88/3/1 87/3/1
f 90/3/1 88/3/1 89/3/1
f 93/3/1 92/3/1 91/3/1
f 94/3/1 92/3/1 93/3/1
f 97/3/1 96/3/1 95/3/1
f 98/3/1 96/3/1 97/3/1
f 103/3/1 100/3/1 99/3/1
f 104/3/1 100/3/1 103/3/1
f 105/3/1 102/3/1 101/3/1
f 106/3/1 102/3/1 105/3/1
f 107/3/2 108/3/2 109/3/2
f 109/3/2 108/3/2 110/3/2
f 111/3/2 112/3/2 113/3/2
f 113/3/2 112/3/2 114/3/2
f 115/3/2 116/3/2 117/3/2
f 117/3/2 116/3/2 118/3/2
f 119/3/2 120/3/2 123/3/2
f 123/3/2 120/3/2 124/3/2
f 121/3/2 122/3/2 125/3/2
f 125/3/2 122/3/2 126/3/2
f 127/3/2 128/3/2 131/3/2
f 131/3/2 128/3/2 132/3/2
f 129/3/2 130/3/2 133/3/2
f 133/3/2 130/3/2 134/3/2
f 135/3/2 136/3/2 137/3/2
f 137/3/2 136/3/2 138/3/2
f 139/3/2 140/3/2 143/3/2
f 143/3/2 140/3/2 144/3/2
f 141/3/2 142/3/2 145/3/2
f 145/3/2 142/3/2 146/3/2
f 147/3/2 148/3/2 149/3/2
f 149/3/2 148/3/2 150/3/2
f 151/3/2 152/3/2 153/3/2
f 153/3/2 152/3/2 154/3/2
f 155/3/2 156/3/2 157/3/2
f 157/3/2 156/3/2 158/3/2
f 159/3/2 160/3/2 161/3/2
f 161/3/2 160/3/2 162/3/2
f 163/3/2 164/3/2 165/3/2
f 165/3/2 164/3/2 166/3/2
f 167/3/2 168/3/2 171/3/2
f 171/3/2 168/3/2 172/3/2
f 169/3/2 170/3/2 173/3/2
f 173/3/2 170/3/2 174/3/2
f 175/1/2 176/1/2 177/1/2
f 177/1/2 176/1/2 178/1/2
f 178/1/2 176/1/2 179/1/2
f 179/1/2 176/1/2 180/1/2
f 175/1/2 177/1/2 181/1/2
f 181/1/2 177/1/2 182/1/2
f 182/1/2 177/1/2 183/1/2
f 183/1/2 177/1/2 184/1/2
f 177/2/2 178/2/2 185/2/2
f 178/1/2 179/1/2 185/1/2
f 185/1/2 179/1/2 186/1/2
f 186/1/2 179/1/2 187/1/2
f 187/1/2 179/1/2 188/1/2
f 188/1/2 179/1/2 189/1/2
f 179/2/2 180/2/2 190/2/2
f 189/1/2 179/1/2 190/1/2
f 180/1/2 176/1/2 191/1/2
f 191/1/2 176/1/2 192/1/2
f 181/2/2 182/2/2 193/2/2
f 182/1/2 183/1/2 193/1/2
f 183/2/2 184/2/2 194/2/2
f 193/1/2 183/1/2 194/1/2
f 184/1/2 177/1/2 195/1/2
f 194/2/2 184/2/2 195/2/2
f 177/2/2 185/2/2 196/2/2
f 195/1/2 177/1/2 196/1/2
f 185/2/2 186/2/2 196/2/2
f 186/1/2 187/1/2 197/1/2
f 196/2/2 186/2/2 197/2/2
f 187/2/2 188/2/2 198/2/2
f 197/1/2 187/1/2 198/1/2
f 188/1/2 189/1/2 199/1/2
f 198/2/2 188/2/2 199/2/2
f 189/2/2 190/2/2 200/2/2
f 199/1/2 189/1/2 200/1/2
f 190/2/2 180/2/2 201/2/2
f 200/2/2 190/2/2 201/2/2
f 180/1/2 191/1/2 201/1/2
f 191/2/2 192/2/2 202/2/2
f 201/1/2 191/1/2 202/1/2
f 192/1/2 176/1/2 203/1/2
f 202/2/2 192/2/2 203/2/2
f 203/1/2 176/1/2 204/1/2
f 199/2/2 200/2/2 205/2/2
f 193/2/2 194/2/2 205/2/2
f 203/2/2 204/2/2 205/2/2
f 202/2/2 203/2/2 205/2/2
f 196/2/2 197/2/2 205/2/2
f 195/2/2 196/2/2 205/2/2
f 198/2/2 199/2/2 205/2/2
f 194/2/2 195/2/2 205/2/2
f 200/2/2 201/2/2 205/2/2
f 201/2/2 202/2/2 205/2/2
f 181/2/2 193/2/2 205/2/2
f 197/2/2 198/2/2 205/2/2
f 205/2/2 204/2/2 206/2/2
f 210/1/3 208/1/3 207/1/3
f 211/2/3 209/2/3 208/2/3
f 211/1/3 208/1/3 210/1/3
f 212/1/3 210/1/3 207/1/3
f 212/2/3 211/2/3 210/2/3
f 213/2/3 209/2/3 211/2/3
f 213/2/3 211/2/3 212/2/3
f 214/1/3 212/1/3 207/1/3
f 214/1/3 213/1/3 212/1/3
f 215/2/3 209/2/3 213/2/3
f 215/1/3 213/1/3 214/1/3
f 216/1/3 214/1/3 207/1/3
f 216/2/3 215/2/3 214/2/3
f 217/2/3 209/2/3 215/2/3
f 217/2/3 215/2/3 216/2/3
f 218/1/3 216/1/3 207/1/3
f 218/1/3 217/1/3 216/1/3
f 219/2/3 209/2/3 217/2/3
f 219/1/3 217/1/3 218/1/3
f 220/1/3 218/1/3 207/1/3
f 220/2/3 219/2/3 218/2/3
f 221/2/3 209/2/3 219/2/3
f 221/2/3 219/2/3 220/2/3
f 222/2/3 209/2/3 221/2/3
f 224/2/3 222/2/3 221/2/3
f 224/3/3 223/3/3 222/3/3
f 225/3/3 223/3/3 224/3/3
f 226/1/3 220/1/3 207/1/3
f 226/1/3 221/1/3 220/1/3
f 227/2/3 224/2/3 221/2/3
f 227/1/3 221/1/3 226/1/3
f 228/1/3 226/1/3 207/1/3
f 228/2/3 227/2/3 226/2/3
f 229/2/3 227/2/3 228/2/3
f 230/1/3 229/1/3 228/1/3
f 230/2/3 227/2/3 229/2/3
f 231/2/3 224/2/3 227/2/3
f 231/2/3 227/2/3 230/2/3
f 232/1/3 230/1/3 228/1/3
f 232/1/3 231/1/3 230/1/3
f 233/2/3 224/2/3 231/2/3
f 233/1/3 231/1/3 232/1/3
f 234/1/3 232/1/3 228/1/3
f 234/2/3 233/2/3 232/2/3
f 235/2/3 224/2/3 233/2/3
f 235/2/3 233/2/3 234/2/3
f 236/1/3 234/1/3 228/1/3
f 236/1/3 228/1/3 207/1/3
f 236/1/3 235/1/3 234/1/3
f 237/2/3 224/2/3 235/2/3
f 237/1/3 235/1/3 236/1/3
f 238/1/3 236/1/3 207/1/3
f 238/2/3 237/2/3 236/2/3
f 239/2/3 224/2/3 237/2/3
f 239/2/3 237/2/3 238/2/3
f 240/1/3 239/1/3 238/1/3
f 241/2/3 224/2/3 239/2/3
f 241/1/3 239/1/3 240/1/3
f 242/1/3 238/1/3 207/1/3
f 242/1/3 240/1/3 238/1/3
f 243/2/3 241/2/3 240/2/3
f 243/1/3 240/1/3 242/1/3
f 244/2/3 224/2/3 241/2/3
f 244/2/3 241/2/3 243/2/3
f 247/3/3 246/3/3 245/3/3
f 248/3/3 246/3/3 247/3/3
f 251/3/3 250/3/3 249/3/3
f 252/3/3 250/3/3 251/3/3
f 255/3/3 254/3/3 253/3/3
f 256/3/3 254/3/3 255/3/3
f 259/3/3 258/3/3 257/3/3
f 260/3/3 258/3/3 259/3/3
f 263/3/3 262/3/3 261/3/3
f 264/3/3 262/3/3 263/3/3
f 267/3/3 266/3/3 265/3/3
f 268/3/3 266/3/3 267/3/3
f 271/3/3 270/3/3 269/3/3
f 272/3/3 270/3/3 271/3/3
f 275/3/3 274/3/3 273/3/3
f 276/3/3 274/3/3 275/3/3
f 279/3/3 278/3/3 277/3/3
f 280/3/3 278/3/3 279/3/3
f 283/3/3 282/3/3 281/3/3
f 284/3/3 282/3/3 283/3/3
f 287/3/3 286/3/3 285/3/3
f 288/3/3 286/3/3 287/3/3
f 291/3/3 290/3/3 289/3/3
f 292/3/3 290/3/3 291/3/3
f 295/3/3 294/3/3 293/3/3
f 296/3/3 294/3/3 295/3/3
f 299/3/3 298/3/3 297/3/3
f 300/3/3 298/3/3 299/3/3
f 303/3/3 302/3/3 301/3/3
f 304/3/3 302/3/3 303/3/3
f 307/3/3 306/3/3 305/3/3
f 308/3/3 306/3/3 307/3/3
f 309/3/4 310/3/4 311/3/4
f 311/3/4 310/3/4 312/3/4
f 313/3/4 314/3/4 315/3/4
f 315/3/4 314/3/4 316/3/4
f 317/3/4 318/3/4 319/3/4
f 319/3/4 318/3/4 320/3/4
f 321/3/4 322/3/4 323/3/4
f 323/3/4 322/3/4 324/3/4
f 325/3/4 326/3/4 327/3/4
f 327/3/4 326/3/4 328/3/4
f 329/3/4 330/3/4 331/3/4
f 331/3/4 330/3/4 332/3/4
f 333/3/4 334/3/4 335/3/4
f 335/3/4 334/3/4 336/3/4
f 337/3/4 338/3/4 339/3/4
f 339/3/4 338/3/4 340/3/4
f 341/3/4 342/3/4 343/3/4
f 343/3/4 342/3/4 344/3/4
f 345/3/4 346/3/4 347/3/4
f 347/3/4 346/3/4 348/3/4
f 349/3/4 350/3/4 351/3/4
f 351/3/4 350/3/4 352/3/4
f 353/3/4 354/3/4 355/3/4
f 355/3/4 354/3/4 356/3/4
f 357/3/4 358/3/4 359/3/4
f 359/3/4 358/3/4 360/3/4
f 361/3/4 362/3/4 363/3/4
f 363/3/4 362/3/4 364/3/4
f 365/3/4 366/3/4 367/3/4
f 367/3/4 366/3/4 368/3/4
f 369/3/4 370/3/4 371/3/4
f 371/3/4 370/3/4 372/3/4
f 373/1/4 374/1/4 376/1/4
f 374/2/4 375/2/4 377/2/4
f 376/1/4 374/1/4 377/1/4
f 373/1/4 376/1/4 378/1/4
f 376/2/4 377/2/4 378/2/4
f 378/2/4 377/2/4 379/2/4
f 373/1/4 378/1/4 380/1/4
f 378/1/4 379/1/4 380/1/4
f 379/2/4 377/2/4 381/2/4
f 380/1/4 379/1/4 381/1/4
f 377/2/4 375/2/4 382/2/4
f 381/2/4 377/2/4 382/2/4
f 373/1/4 380/1/4 383/1/4
f 380/2/4 381/2/4 384/2/4
f 383/1/4 380/1/4 384/1/4
f 381/1/4 382/1/4 385/1/4
f 384/2/4 381/2/4 385/2/4
f 382/2/4 375/2/4 386/2/4
f 385/1/4 382/1/4 386/1/4
f 373/1/4 383/1/4 387/1/4
f 384/2/4 385/2/4 387/2/4
f 385/2/4 386/2/4 387/2/4
f 383/2/4 384/2/4 387/2/4
f 386/2/4 375/2/4 388/2/4
f 387/2/4 386/2/4 388/2/4
f 387/1/4 388/1/4 389/1/4
f 388/2/4 375/2/4 390/2/4
f 389/1/4 388/1/4 390/1/4
f 387/1/4 389/1/4 391/1/4
f 389/2/4 390/2/4 391/2/4
f 391/2/4 390/2/4 392/2/4
f 391/1/4 392/1/4 393/1/4
f 392/2/4 390/2/4 393/2/4
f 390/2/4 375/2/4 394/2/4
f 393/2/4 390/2/4 394/2/4
f 391/1/4 393/1/4 395/1/4
f 387/1/4 391/1/4 395/1/4
f 393/1/4 394/1/4 395/1/4
f 394/2/4 375/2/4 396/2/4
f 395/1/4 394/1/4 396/1/4
f 373/1/4 387/1/4 397/1/4
f 387/1/4 395/1/4 397/1/4
f 395/2/4 396/2/4 398/2/4
f 397/1/4 395/1/4 398/1/4
f 398/2/4 396/2/4 399/2/4
f 396/2/4 375/2/4 400/2/4
f 399/2/4 396/2/4 400/2/4
f 398/2/4 399/2/4 401/2/4
f 373/1/4 397/1/4 401/1/4
f 397/2/4 398/2/4 401/2/4
f 399/1/4 400/1/4 402/1/4
f 401/2/4 399/2/4 402/2/4
f 400/2/4 375/2/4 403/2/4
f 402/1/4 400/1/4 405/1/4
f 401/1/4 402/1/4 405/1/4
f 400/2/4 403/2/4 406/2/4
f 405/1/4 400/1/4 406/1/4
f 403/3/4 404/3/4 407/3/4
f 406/2/4 403/2/4 407/2/4
f 407/3/4 404/3/4 408/3/4
f 401/1/4 405/1/4 409/1/4
f 405/2/4 406/2/4 410/2/4
f 409/1/4 405/1/4 410/1/4
f 406/2/4 407/2/4 410/2/4
f 401/1/4 409/1/4 411/1/4
f 409/2/4 410/2/4 411/2/4
f 410/2/4 407/2/4 412/2/4
f 411/2/4 410/2/4 412/2/4
f 401/1/4 411/1/4 413/1/4
f 373/1/4 401/1/4 413/1/4
f 411/1/4 412/1/4 413/1/4
f 412/2/4 407/2/4 414/2/4
f 413/1/4 412/1/4 414/1/4
f 414/2/4 407/2/4 415/2/4
f 418/1/5 417/1/5 416/1/5
f 419/1/5 417/1/5 418/1/5
f 420/2/6 421/2/6 424/2/6
f 422/2/6 423/2/6 425/2/6
f 420/2/6 424/2/6 426/2/6
f 424/2/6 425/2/6 426/2/6
f 426/2/6 425/2/6 427/2/6
f 427/2/6 425/2/6 428/2/6
f 428/2/6 425/2/6 429/2/6
f 420/2/6 426/2/6 430/2/6
f 427/2/6 428/2/6 431/2/6
f 431/2/6 428/2/6 432/2/6
f 429/2/6 425/2/6 433/2/6
f 425/2/6 423/2/6 434/2/6
f 433/2/6 425/2/6 434/2/6
f 434/2/6 423/2/6 435/2/6
f 432/2/6 433/2/6 436/2/6
f 431/2/6 432/2/6 436/2/6
f 433/2/6 434/2/6 436/2/6
f 430/2/6 431/2/6 436/2/6
f 435/2/6 423/2/6 437/2/6
f 437/2/6 423/2/6 438/2/6
f 436/2/6 437/2/6 438/2/6
f 438/2/6 423/2/6 439/2/6
f 430/2/6 436/2/6 440/2/6
f 436/2/6 438/2/6 440/2/6
f 440/2/6 438/2/6 441/2/6
f 441/2/6 438/2/6 442/2/6
f 439/2/6 423/2/6 443/2/6
f 430/2/6 440/2/6 444/2/6
f 444/2/6 440/2/6 445/2/6
f 441/2/6 442/2/6 446/2/6
f 442/2/6 443/2/6 446/2/6
f 446/2/6 443/2/6 447/2/6
f 443/2/6 423/2/6 448/2/6
f 447/2/6 443/2/6 448/2/6
f 446/2/6 447/2/6 449/2/6
f 445/2/6 446/2/6 449/2/6
f 448/2/6 423/2/6 450/2/6
f 430/2/6 444/2/6 451/2/6
f 451/2/6 444/2/6 452/2/6
f 452/2/6 444/2/6 453/2/6
f 445/2/6 449/2/6 454/2/6
f 449/2/6 450/2/6 454/2/6
f 454/2/6 450/2/6 455/2/6
f 455/2/6 450/2/6 456/2/6
f 456/2/6 450/2/6 457/2/6
f 430/2/6 451/2/6 458/2/6
f 452/2/6 453/2/6 459/2/6
f 453/2/6 454/2/6 459/2/6
f 459/2/6 454/2/6 460/2/6
f 455/2/6 456/2/6 461/2/6
f 461/2/6 456/2/6 462/2/6
f 457/2/6 450/2/6 463/2/6
f 461/2/6 462/2/6 464/2/6
f 462/2/6 463/2/6 464/2/6
f 463/2/6 450/2/6 464/2/6
f 459/2/6 460/2/6 464/2/6
f 460/2/6 461/2/6 464/2/6
f 458/2/6 459/2/6 464/2/6
f 464/2/6 450/2/6 465/2/6
f 458/2/6 464/2/6 466/2/6
f 465/2/6 450/2/6 467/2/6
f 430/2/6 458/2/6 468/2/6
f 466/2/6 467/2/6 468/2/6
f 420/2/6 430/2/6 468/2/6
f 458/2/6 466/2/6 468/2/6
f 468/2/6 467/2/6 469/2/6
f 469/2/6 467/2/6 470/2/6
f 470/2/6 467/2/6 471/2/6
f 420/2/6 468/2/6 472/2/6
f 469/2/6 470/2/6 473/2/6
f 473/2/6 470/2/6 474/2/6
f 471/2/6 467/2/6 475/2/6
f 473/2/6 474/2/6 476/2/6
f 474/2/6 475/2/6 476/2/6
f 475/2/6 467/2/6 476/2/6
f 472/2/6 473/2/6 476/2/6
f 476/2/6 467/2/6 477/2/6
f 472/2/6 476/2/6 478/2/6
f 477/2/6 467/2/6 479/2/6
f 472/2/6 478/2/6 480/2/6
f 478/2/6 479/2/6 480/2/6
f 480/2/6 479/2/6 481/2/6
f 472/2/6 480/2/6 482/2/6
f 481/2/6 479/2/6 483/2/6
f 479/2/6 467/2/6 484/2/6
f 482/2/6 483/2/6 484/2/6
f 483/2/6 479/2/6 484/2/6
f 484/2/6 467/2/6 485/2/6
f 420/2/6 472/2/6 486/2/6
f 472/2/6 482/2/6 486/2/6
f 482/2/6 484/2/6 486/2/6
f 486/2/6 484/2/6 487/2/6
f 485/2/6 467/2/6 488/2/6
f 467/2/6 450/2/6 489/2/6
f 488/2/6 467/2/6 489/2/6
f 450/2/6 423/2/6 489/2/6
f 490/3/6 491/3/6 492/3/6
f 492/3/6 491/3/6 493/3/6
f 494/3/6 495/3/6 498/3/6
f 498/3/6 495/3/6 499/3/6
f 496/3/6 497/3/6 500/3/6
f 500/3/6 497/3/6 501/3/6
f 502/3/6 503/3/6 504/3/6
f 504/3/6 503/3/6 505/3/6
f 506/3/6 507/3/6 510/3/6
f 510/3/6 507/3/6 511/3/6
f 508/3/6 509/3/6 513/3/6
f 513/3/6 509/3/6 514/3/6
f 515/3/6 516/3/6 517/3/6
f 517/3/6 516/3/6 518/3/6
f 512/3/6 513/3/6 521/3/6
f 521/3/6 513/3/6 522/3/6
f 519/3/6 520/3/6 526/3/6
f 526/3/6 520/3/6 527/3/6
f 522/3/6 523/3/6 528/3/6
f 528/3/6 523/3/6 529/3/6
f 524/3/6 525/3/6 530/3/6
f 530/3/6 525/3/6 531/3/6
f 532/3/6 533/3/6 534/3/6
f 534/3/6 533/3/6 535/3/6
f 536/3/6 537/3/6 540/3/6
f 540/3/6 537/3/6 541/3/6
f 538/3/6 539/3/6 542/3/6
f 542/3/6 539/3/6 543/3/6
f 544/3/6 545/3/6 546/3/6
f 546/3/6 545/3/6 547/3/6
f 548/3/6 549/3/6 550/3/6
f 550/3/6 549/3/6 551/3/6
f 552/3/6 553/3/6 554/3/6
f 554/3/6 553/3/6 555/3/6
