# MagicaVoxel @ Ephtracy

# material
mtllib 008.mtl
usemtl palette

# normals
vn -1 0 0
vn 1 0 0
vn 0 0 1
vn 0 0 -1
vn 0 -1 0
vn 0 1 0

# texcoords
vt 0.677734 0.5
vt 0.966797 0.5

# verts
v -16 0 16
v -16 0 -16
v -16 8 16
v -16 8 -12
v -16 8 -16
v -16 9 -12
v -16 9 -16
v 16 0 16
v 16 0 -16
v 16 8 16
v 16 8 -12
v 16 8 -16
v 16 9 -12
v 16 9 -16
v -16 0 16
v -16 8 16
v 16 0 16
v 16 8 16
v -16 8 -12
v -16 9 -12
v 16 8 -12
v 16 9 -12
v -16 0 -16
v -16 8 -16
v -16 9 -16
v 16 0 -16
v 16 8 -16
v 16 9 -16
v -16 0 16
v 16 0 16
v -16 0 -16
v 16 0 -16
v -16 8 16
v 16 8 16
v -16 8 -12
v 16 8 -12
v -16 9 -12
v 16 9 -12
v -16 9 -16
v 16 9 -16

# faces
f 3/1/1 2/1/1 1/1/1
f 4/1/1 2/1/1 3/1/1
f 5/1/1 2/1/1 4/1/1
f 6/2/1 5/2/1 4/2/1
f 7/2/1 5/2/1 6/2/1
f 8/1/2 9/1/2 10/1/2
f 10/1/2 9/1/2 11/1/2
f 11/1/2 9/1/2 12/1/2
f 11/2/2 12/2/2 13/2/2
f 13/2/2 12/2/2 14/2/2
f 17/1/3 16/1/3 15/1/3
f 18/1/3 16/1/3 17/1/3
f 21/2/3 20/2/3 19/2/3
f 22/2/3 20/2/3 21/2/3
f 23/1/4 24/1/4 26/1/4
f 24/2/4 25/2/4 27/2/4
f 26/1/4 24/1/4 27/1/4
f 27/2/4 25/2/4 28/2/4
f 31/1/5 30/1/5 29/1/5
f 32/1/5 30/1/5 31/1/5
f 33/1/6 34/1/6 35/1/6
f 35/1/6 34/1/6 36/1/6
f 37/2/6 38/2/6 39/2/6
f 39/2/6 38/2/6 40/2/6
